<?xml version="1.0" encoding="utf-8"?>
<!-- Generator: Adobe Illustrator 26.0.1, SVG Export Plug-In . SVG Version: 6.00 Build 0)  -->
<svg version="1.1" id="Layer_1" xmlns="http://www.w3.org/2000/svg" xmlns:xlink="http://www.w3.org/1999/xlink" x="0px" y="0px"
	 viewBox="0 0 393.5 391.8" style="enable-background:new 0 0 393.5 391.8;" xml:space="preserve">
<style type="text/css">
	.st0{fill:none;stroke:#00D885;stroke-width:2;stroke-miterlimit:10;}
	.st1{fill:none;stroke:#695CFF;stroke-width:2;stroke-miterlimit:10;}
	.st2{fill:none;stroke:#FF9C00;stroke-width:2;stroke-miterlimit:10;}
	.st3{fill:#FF9C00;}
	.st4{fill:#FFFFFF;}
	.st5{fill:#00D885;}
	.st6{fill:#695CFF;}
</style>
<circle class="st0" cx="259.1" cy="136.9" r="124.4"/>
<circle class="st1" cx="196.8" cy="257.4" r="124.4"/>
<circle class="st2" cx="134.4" cy="136.9" r="124.4"/>
<path class="st3" d="M46.8,89.7H53c4.2,0,6.9,3,6.9,7.5s-2.5,7.3-7.1,7.3h-6V89.7z M52.6,101.7c2.6,0,3.8-1.6,3.8-4.5
	s-1.3-4.7-3.8-4.7h-2.4v9.1H52.6z"/>
<path class="st3" d="M61.5,89.7h3.2v2.7h-3.2V89.7z M61.5,93.9h3.1v10.6h-3.1L61.5,93.9z"/>
<path class="st3" d="M66.6,104.9h3.1c0.2,0.6,0.8,1.1,2,1.1c1.5,0,2.2-0.8,2.2-2.1v-0.2c0-0.5,0-0.9,0.1-1.4h-0.1
	c-0.6,1-1.7,1.6-2.8,1.6c-2.5,0-4.6-1.8-4.6-5s1.9-5.2,4.5-5.2c1.3-0.1,2.5,0.5,3.1,1.7l0,0v-1.4h3v9.7c0.1,1.3-0.4,2.6-1.4,3.5
	c-1.1,0.8-2.5,1.2-3.8,1.2C68.8,108.3,66.9,107,66.6,104.9z M74,98.8c0-1.6-0.8-2.8-2.3-2.8c-1.4,0-2.2,1.1-2.2,2.8s0.9,2.8,2.3,2.8
	C73.3,101.5,74,100.3,74,98.8z"/>
<path class="st3" d="M79,89.7h3.2v2.7H79V89.7z M79,93.9h3.1v10.6H79V93.9z"/>
<path class="st3" d="M83.6,93.9h1.6v-3.4h3.1v3.4h2.1v2h-2.1v5.3c0,0.8,0.4,1,1.2,1c0.2,0,0.5,0,0.7,0h0.2v2.3
	c-0.6,0.1-1.2,0.2-1.8,0.2c-2,0-3.3-0.6-3.3-2.8v-6h-1.6L83.6,93.9z"/>
<path class="st3" d="M98.7,103.3L98.7,103.3c-0.7,1.1-1.9,1.7-3.2,1.6c-2.1,0-3.6-1.1-3.6-3.2c0-2.4,1.9-3,4.2-3.2
	c1.9-0.3,2.7-0.6,2.7-1.4s-0.5-1.3-1.6-1.3s-1.8,0.6-1.9,1.4h-2.9c0.1-1.8,1.6-3.5,4.7-3.5c1.1-0.1,2.1,0.2,3.1,0.6
	c1.1,0.7,1.7,1.9,1.6,3.2v5.5c0,0.8,0.1,1.3,0.4,1.5v0.2h-3.1C98.8,104.2,98.7,103.7,98.7,103.3z M98.7,100.7v-1.4
	c-0.6,0.3-1.2,0.5-1.8,0.6c-1.4,0.3-2,0.6-2,1.6s0.7,1.3,1.6,1.3c1.2,0.1,2.2-0.7,2.3-1.9C98.7,100.9,98.7,100.8,98.7,100.7
	L98.7,100.7z"/>
<path class="st3" d="M103.9,89.7h3.1v14.9h-3.2L103.9,89.7z"/>
<path class="st4" d="M40.7,124.4c-0.2-2,1.3-3.8,3.3-4c0.1,0,0.2,0,0.3,0c1.6-0.1,3.1,1,3.2,2.6h-1.3c-0.1-1-1-1.7-2-1.6
	c-1.5,0-2.3,1.3-2.3,2.9s0.8,2.9,2.3,2.9c1,0.1,1.9-0.6,2-1.7c0-0.1,0-0.1,0-0.2h1.3c-0.1,1.7-1.5,2.9-3.1,2.9c-0.1,0-0.1,0-0.2,0
	c-2,0-3.7-1.7-3.6-3.7C40.7,124.5,40.7,124.5,40.7,124.4z"/>
<path class="st4" d="M48.8,126.2c0-1.8,1.3-2.1,3.2-2.4c1.1-0.1,1.8-0.3,1.8-1.1s-0.6-1.3-1.6-1.3c-1.2,0-1.8,0.6-1.8,1.5h-1.3
	c0-1.3,1-2.4,3-2.4c0.6,0,1.3,0.1,1.8,0.4c0.7,0.4,1.1,1.2,1,2v3.5c0,0.6,0.1,0.9,0.8,0.8h0.1v0.9c-0.2,0.1-0.5,0.1-0.7,0.1
	c-0.7,0.1-1.3-0.4-1.3-1.1c0,0,0-0.1,0-0.1l0,0c-0.6,0.8-1.5,1.3-2.5,1.3C49.9,128.3,48.8,127.6,48.8,126.2z M53.9,125.4v-1.2
	c-0.5,0.3-1.1,0.4-1.7,0.5c-1.2,0.2-2,0.4-2,1.5s0.8,1.2,1.5,1.2c1.1,0.1,2.1-0.7,2.2-1.8C53.9,125.5,53.9,125.5,53.9,125.4z"/>
<path class="st4" d="M57,120.6h1.3v1.2l0,0c0.5-0.9,1.4-1.4,2.4-1.4c1.9,0,3.2,1.5,3.2,4s-1.2,4-3.3,4c-1,0-1.9-0.4-2.4-1.2l0,0
	c0,0.3,0,0.7,0,1.3v2.3H57V120.6z M62.6,124.4c0-1.7-0.7-2.9-2.1-2.9c-1.6,0-2.3,1.3-2.3,2.9s0.6,2.9,2.3,2.9
	C61.9,127.3,62.6,126.1,62.6,124.4z"/>
<path class="st4" d="M65,126.2c0-1.8,1.3-2.1,3.2-2.4c1.1-0.1,1.8-0.3,1.8-1.1s-0.6-1.3-1.6-1.3c-1.2,0-1.8,0.6-1.8,1.5h-1.2
	c0.1-1.3,1-2.4,3-2.4c0.6,0,1.3,0.1,1.8,0.4c0.7,0.4,1.1,1.2,1,2v3.5c0,0.6,0.1,0.9,0.8,0.8h0.1v0.9c-0.2,0.1-0.5,0.1-0.7,0.1
	c-0.7,0.1-1.3-0.4-1.3-1.1c0,0,0-0.1,0-0.1l0,0c-0.6,0.8-1.5,1.3-2.5,1.3C66.2,128.3,65,127.6,65,126.2z M70.1,125.4v-1.2
	c-0.5,0.3-1.1,0.4-1.7,0.5c-1.2,0.2-2,0.4-2,1.5s0.7,1.2,1.5,1.2c1.1,0.1,2.1-0.7,2.2-1.8C70.1,125.5,70.1,125.4,70.1,125.4
	L70.1,125.4z"/>
<path class="st4" d="M74.5,127.1L74.5,127.1v1.1h-1.3v-10.4h1.3v2.7c0,0.6,0,1.1,0,1.4l0,0c0.5-0.9,1.4-1.4,2.4-1.4
	c1.9,0,3.2,1.5,3.2,4s-1.2,4-3.2,4C75.9,128.5,75,128,74.5,127.1z M78.8,124.4c0-1.7-0.7-2.9-2-2.9c-1.6,0-2.3,1.3-2.3,2.9
	s0.8,2.9,2.3,2.9C78.1,127.3,78.8,126.1,78.8,124.4z"/>
<path class="st4" d="M81.5,117.7h1.4v1.5h-1.4V117.7z M81.5,120.6h1.3v7.5h-1.3L81.5,120.6z"/>
<path class="st4" d="M84.7,117.7H86v10.4h-1.3L84.7,117.7z"/>
<path class="st4" d="M87.8,117.7h1.4v1.5h-1.4V117.7z M87.8,120.6h1.3v7.5h-1.3L87.8,120.6z"/>
<path class="st4" d="M90.4,120.6h1.2v-2.4h1.3v2.4h1.6v1h-1.6v4.8c0,0.5,0.3,0.7,0.8,0.7c0.2,0,0.4,0,0.7-0.1l0,0v1.1
	c-0.3,0.1-0.7,0.1-1,0.1c-1,0-1.7-0.4-1.7-1.5v-5h-1.2V120.6z"/>
<path class="st4" d="M95.8,117.7h1.3v1.5h-1.3V117.7z M95.8,120.6h1.3v7.5h-1.3L95.8,120.6z"/>
<path class="st4" d="M98.5,124.4c-0.2-2,1.3-3.8,3.3-4c0.1,0,0.2,0,0.3,0c1,0,1.9,0.4,2.6,1.2c0.7,0.9,1,2,0.9,3.1h-5.8
	c0.1,1.5,0.9,2.6,2.4,2.6c0.9,0.1,1.7-0.4,2-1.3h1.3c-0.4,1.5-1.8,2.5-3.3,2.4c-2,0-3.7-1.6-3.7-3.6
	C98.5,124.6,98.5,124.5,98.5,124.4z M99.8,123.8h4.4c-0.1-1.4-0.8-2.3-2.1-2.3S100,122.4,99.8,123.8z"/>
<path class="st4" d="M106.5,125.9h1.3c0.2,1.1,1,1.5,2.1,1.5s1.7-0.5,1.7-1.2s-0.6-1-2-1.3s-2.8-0.6-2.8-2.3c0-1.3,1-2.1,2.8-2.1
	s2.8,0.9,3,2.2h-1.3c-0.1-0.8-0.7-1.2-1.7-1.2s-1.4,0.5-1.4,1c0,0.8,0.7,0.9,2,1.2c1.5,0.3,2.8,0.6,2.8,2.4c0,1.5-1.3,2.3-3,2.3
	C107.8,128.4,106.6,127.4,106.5,125.9z"/>
<path class="st5" d="M301.1,89.7h11.2v2.8h-7.8v3h6.7v2.7h-6.7v3.5h7.9v2.9h-11.3V89.7z"/>
<path class="st5" d="M313.7,99.9h3.4c0.2,1.6,1.2,2.3,3.2,2.3c1.3,0,2.6-0.5,2.6-1.7s-1.3-1.6-3.4-2.1c-2.9-0.7-5.3-1.4-5.3-4.5
	s2.5-4.5,5.8-4.5s5.6,1.5,5.8,4.4h-3.3c-0.2-1.2-1.1-1.8-2.6-1.8s-2.3,0.6-2.3,1.5c0,1.2,1.3,1.4,3.6,1.9c2.7,0.6,5.1,1.5,5.1,4.6
	s-2.6,4.8-6,4.8C316.3,104.9,313.8,103.1,313.7,99.9z"/>
<path class="st5" d="M339.1,102.6L339.1,102.6c-0.9,1.5-2.6,2.5-4.3,2.3c-1.9,0.1-3.7-0.7-5.1-2.1c-1.4-1.6-2.1-3.6-2-5.6
	c-0.1-2.3,0.9-4.6,2.6-6.2c1.3-1.1,3-1.7,4.7-1.6c3.8,0,6,2,6.5,4.8h-3.4c-0.4-1.3-1.7-2.1-3-2c-2.6,0-3.9,2.1-3.9,4.9
	s1.5,4.9,4,4.9c1.7,0.2,3.2-1.1,3.4-2.8c0,0,0-0.1,0-0.1v-0.1h-3v-2.5h6.2v8h-2.4L339.1,102.6z"/>
<path class="st4" d="M277.7,124.4c-0.2-2,1.3-3.8,3.3-4c0.1,0,0.2,0,0.3,0c1.6-0.1,3.1,1,3.2,2.6h-1.3c-0.1-1-1-1.7-1.9-1.6
	c-1.5,0-2.3,1.3-2.3,2.9s0.8,2.9,2.3,2.9c1,0.1,1.9-0.6,2-1.7c0-0.1,0-0.1,0-0.2h1.3c-0.1,1.7-1.5,2.9-3.1,2.9c0,0-0.1,0-0.1,0
	c-2,0-3.7-1.6-3.7-3.6C277.7,124.6,277.7,124.5,277.7,124.4z"/>
<path class="st4" d="M294.2,120.6h1.3v1.1l0,0c0.4-0.8,1.3-1.3,2.2-1.3c0.9,0,1.7,0.5,2,1.4l0,0c0.5-0.9,1.4-1.4,2.3-1.4
	c1.2-0.1,2.3,0.9,2.3,2.1c0,0.1,0,0.2,0,0.3v5.3h-1.3V123c0.1-0.7-0.5-1.4-1.2-1.5c0,0-0.1,0-0.1,0c-1,0-1.8,0.9-1.8,2c0,0,0,0,0,0
	v4.6h-1.3V123c0-0.9-0.5-1.5-1.3-1.5c-1.1,0.1-1.9,0.9-1.9,2v4.6h-1.3L294.2,120.6z"/>
<path class="st4" d="M306.2,120.6h1.3v1.1l0,0c0.4-0.8,1.3-1.3,2.2-1.3c0.9,0,1.7,0.5,1.9,1.4l0,0c0.5-0.9,1.4-1.4,2.3-1.4
	c1.2-0.1,2.3,0.9,2.3,2.1c0,0.1,0,0.2,0,0.3v5.3H315V123c0.1-0.7-0.5-1.4-1.2-1.5c0,0-0.1,0-0.1,0c-1,0-1.8,0.9-1.8,2c0,0,0,0,0,0
	v4.6h-1.3V123c0.1-0.7-0.4-1.4-1.1-1.5c-0.1,0-0.1,0-0.2,0c-1,0.1-1.9,0.9-1.9,2v4.6h-1.3L306.2,120.6z"/>
<path class="st4" d="M318.1,117.7h1.4v1.5h-1.4V117.7z M318.1,120.6h1.3v7.5h-1.3V120.6z"/>
<path class="st4" d="M320.7,120.6h1.2v-2.4h1.3v2.4h1.6v1h-1.6v4.8c0,0.5,0.3,0.7,0.8,0.7c0.2,0,0.4,0,0.7-0.1l0,0v1.1
	c-0.3,0.1-0.7,0.1-1,0.1c-1,0-1.7-0.4-1.7-1.5v-5h-1.2L320.7,120.6z"/>
<path class="st4" d="M326.1,120.6h1.3v1.1l0,0c0.4-0.8,1.3-1.3,2.2-1.3c0.9,0,1.7,0.5,2,1.4l0,0c0.5-0.9,1.3-1.4,2.3-1.4
	c1.2-0.1,2.3,0.9,2.3,2.1c0,0.1,0,0.2,0,0.4v5.3H335V123c0.1-0.7-0.5-1.4-1.2-1.5c0,0-0.1,0-0.1,0c-1,0-1.8,0.9-1.8,2c0,0,0,0,0,0
	v4.6h-1.3V123c0.1-0.7-0.4-1.4-1.1-1.5c-0.1,0-0.1,0-0.2,0c-1,0.1-1.9,0.9-1.9,2v4.6h-1.3V120.6z"/>
<path class="st4" d="M337.6,124.4c-0.2-2,1.3-3.8,3.3-4c0.1,0,0.2,0,0.3,0c1,0,1.9,0.4,2.6,1.2c0.7,0.9,1,2,0.9,3.1H339
	c0.1,1.5,0.9,2.6,2.4,2.6c0.9,0.1,1.7-0.4,2-1.3h1.3c-0.4,1.5-1.8,2.5-3.3,2.4c-2,0-3.7-1.5-3.7-3.5
	C337.6,124.7,337.6,124.5,337.6,124.4z M339,123.8h4.4c-0.1-1.4-0.8-2.3-2.1-2.3S339.1,122.4,339,123.8L339,123.8z"/>
<path class="st4" d="M347.4,121.7L347.4,121.7c0.5-0.8,1.4-1.3,2.4-1.2c1.3-0.1,2.4,0.8,2.5,2c0,0.1,0,0.3,0,0.4v5.3H351v-5.1
	c0-0.8-0.6-1.5-1.4-1.5c-0.1,0-0.2,0-0.3,0c-1.1,0-2,0.8-2,1.9c0,0,0,0.1,0,0.1v4.6h-1.3v-7.5h1.3L347.4,121.7z"/>
<path class="st4" d="M353.5,120.6h1.2v-2.4h1.3v2.4h1.5v1H356v4.8c0,0.5,0.3,0.7,0.8,0.7c0.2,0,0.4,0,0.7-0.1l0,0v1.1
	c-0.3,0.1-0.7,0.1-1,0.1c-1,0-1.7-0.4-1.7-1.5v-5h-1.2V120.6z"/>
<path class="st4" d="M358.4,125.9h1.3c0.1,1.1,1,1.5,2.1,1.5s1.7-0.5,1.7-1.2s-0.6-1-2-1.3s-2.8-0.6-2.8-2.3c0-1.3,1-2.1,2.8-2.1
	s2.8,0.9,3,2.2h-1.3c-0.1-0.8-0.6-1.2-1.7-1.2s-1.5,0.5-1.5,1c0,0.8,0.7,0.9,2,1.2c1.5,0.3,2.8,0.6,2.8,2.4c0,1.5-1.3,2.3-3,2.3
	C359.7,128.4,358.5,127.4,358.4,125.9z"/>
<path class="st4" d="M285.6,145.1c0-1.6,1-2.4,2.4-3.1l-0.2-0.2c-0.6-0.6-1-1.5-1-2.4c0-1.2,1.1-2.2,2.3-2.2c0,0,0.1,0,0.1,0
	c1.2-0.1,2.3,0.8,2.4,2.1c0,0.1,0,0.1,0,0.2c0,1.3-0.9,2-2,2.6l2.1,2.7c0.3-0.7,0.4-1.4,0.4-2.1h1.1c0,1-0.2,2.1-0.7,3l1.6,2.1h-1.6
	l-0.8-1l0,0c-0.7,0.8-1.8,1.3-2.9,1.3c-1.7,0.1-3.2-1.1-3.4-2.8C285.6,145.1,285.6,145.1,285.6,145.1z M291.2,145.8l-2.5-3.1
	c-1,0.6-1.7,1.3-1.7,2.4c0.1,1,0.9,1.8,2,1.8c0,0,0,0,0.1,0C289.9,146.8,290.6,146.5,291.2,145.8L291.2,145.8z M288.9,141l0.2,0.2
	c0.9-0.6,1.3-1.1,1.3-1.9c0.1-0.6-0.4-1.1-1-1.2c0,0-0.1,0-0.1,0c-0.6,0-1.1,0.4-1.2,1.1c0,0,0,0,0,0.1
	C288.2,140,288.5,140.6,288.9,141L288.9,141z"/>
<path class="st4" d="M300.2,141.6L300.2,141.6c0.4-0.9,1.3-1.4,2.2-1.5c0.2,0,0.3,0,0.5,0.1v1.2l0,0c-0.2-0.1-0.4-0.1-0.5-0.1
	c-1.2,0-2.2,0.9-2.2,2.1c0,0,0,0.1,0,0.1v4.1h-1.3v-7.5h1.3L300.2,141.6z"/>
<path class="st4" d="M303.5,144c-0.2-2,1.4-3.8,3.4-3.9c0.1,0,0.1,0,0.2,0c1,0,1.9,0.4,2.6,1.2c0.7,0.9,1,2,0.9,3.1h-5.8
	c0.1,1.5,0.9,2.6,2.4,2.6c0.9,0.1,1.7-0.4,2-1.3h1.3c-0.4,1.5-1.8,2.5-3.3,2.4c-2,0-3.7-1.6-3.7-3.6
	C303.5,144.2,303.5,144.1,303.5,144z M304.9,143.4h4.4c-0.1-1.4-0.8-2.3-2.1-2.3S305.1,142.1,304.9,143.4L304.9,143.4z"/>
<path class="st4" d="M312,140.2h1.3v1.2l0,0c0.5-0.9,1.4-1.4,2.4-1.4c1.9,0,3.2,1.5,3.2,4s-1.2,4-3.3,4c-0.9,0-1.8-0.4-2.4-1.2l0,0
	c0,0.3,0,0.7,0,1.3v2.3H312V140.2z M317.6,144.1c0-1.6-0.7-2.9-2.1-2.9c-1.6,0-2.3,1.3-2.3,2.9s0.6,2.9,2.3,2.9
	C317,146.9,317.6,145.7,317.6,144.1L317.6,144.1z"/>
<path class="st4" d="M320,144c0.2-2,2-3.5,4-3.3c2,0.2,3.5,2,3.3,4c-0.2,1.9-1.7,3.4-3.7,3.4c-2,0-3.7-1.6-3.7-3.6
	C320,144.2,320,144.1,320,144z M326,144.3c0-1.6-0.8-2.9-2.3-2.9s-2.3,1.3-2.3,2.9s0.8,2.9,2.3,2.9S326,146,326,144.3z"/>
<path class="st4" d="M330,141.6L330,141.6c0.4-0.9,1.3-1.4,2.2-1.5c0.2,0,0.3,0,0.5,0.1v1.2l0,0c-0.2-0.1-0.4-0.1-0.5-0.1
	c-1.2,0-2.2,0.9-2.2,2.1c0,0,0,0.1,0,0.1v4.1h-1.3v-7.5h1.3V141.6z"/>
<path class="st4" d="M333.5,140.2h1.2v-2.4h1.3v2.4h1.5v1H336v4.8c0,0.5,0.3,0.7,0.8,0.7c0.2,0,0.4,0,0.7-0.1l0,0v1.1
	c-0.3,0.1-0.7,0.1-1,0.1c-1,0-1.7-0.4-1.7-1.5v-5h-1.2L333.5,140.2z"/>
<path class="st4" d="M338.9,137.3h1.4v1.5h-1.4V137.3z M338.9,140.2h1.3v7.5h-1.3V140.2z"/>
<path class="st4" d="M343.3,141.3L343.3,141.3c0.5-0.8,1.4-1.3,2.4-1.2c1.3-0.1,2.4,0.8,2.5,2c0,0.1,0,0.3,0,0.4v5.2H347v-5.1
	c0-0.8-0.6-1.5-1.4-1.5c-0.1,0-0.2,0-0.3,0c-1.1,0-2,0.8-2,1.9c0,0,0,0.1,0,0.1v4.6H342v-7.5h1.3L343.3,141.3z"/>
<path class="st4" d="M349.9,148.3h1.2c0.1,0.8,0.9,1.1,2,1.1c1.3,0,2.1-0.6,2.1-1.9v-0.2c0-0.4,0-0.8,0-1.1l0,0
	c-0.5,0.8-1.3,1.2-2.2,1.2c-1.9,0-3.3-1.5-3.3-3.7s1.5-3.7,3.2-3.7c0.9-0.1,1.8,0.4,2.3,1.2l0,0v-1h1.3v7.2c0.1,0.8-0.3,1.7-0.9,2.2
	c-0.7,0.5-1.6,0.8-2.4,0.7C351.2,150.4,350.1,149.6,349.9,148.3z M355.3,143.7c0-1.6-0.7-2.6-2.2-2.6s-2.1,1-2.1,2.6
	s0.7,2.6,2.1,2.6C354.8,146.4,355.3,145.2,355.3,143.7z"/>
<path class="st6" d="M163.5,283.2h6.6c1.5-0.1,2.9,0.4,4,1.4c0.9,0.9,1.5,2.2,1.4,3.6c0,2.8-1.9,4.8-5,4.8H167v5.2h-3.5V283.2z
	 M167,290.2h2.9c1.1,0.1,2.1-0.7,2.2-1.8c0-0.1,0-0.2,0-0.3c0-1.1-0.8-2-1.8-2c-0.1,0-0.2,0-0.4,0H167V290.2z"/>
<path class="st6" d="M176.1,292.8c-0.2-3,2.1-5.5,5.1-5.6c0.1,0,0.3,0,0.4,0c1.3,0,2.7,0.5,3.7,1.4c1.2,1.4,1.9,3.2,1.7,5.1h-7.8
	c0.2,1.6,1.1,2.6,2.6,2.6c0.8,0.1,1.5-0.3,1.9-1h3c-0.5,1.9-2.3,3.3-5,3.3c-3,0.1-5.5-2.1-5.6-5.1
	C176.1,293.2,176.1,293,176.1,292.8z M179.2,291.8h4.5c-0.1-1.5-0.9-2.4-2.2-2.4C180.2,289.4,179.4,290.3,179.2,291.8L179.2,291.8z"
	/>
<path class="st6" d="M188.1,292.8c0-3.1,2.5-5.6,5.6-5.6s5.6,2.5,5.6,5.6c0,3.1-2.5,5.6-5.6,5.6c-3,0.1-5.5-2.2-5.6-5.2
	C188.1,293.1,188.1,292.9,188.1,292.8z M196.1,292.8c0-2-0.9-3.4-2.4-3.4s-2.4,1.4-2.4,3.4s0.8,3.4,2.4,3.4S196.1,294.8,196.1,292.8
	z"/>
<path class="st6" d="M200.9,287.5h3v1.5h0.1c0.6-1.2,1.9-1.9,3.2-1.8c2.8,0,4.6,2.4,4.6,5.6c0,3.5-1.8,5.7-4.7,5.7
	c-1.3,0.1-2.5-0.6-3.1-1.7l0,0c0,0.4,0.1,1.2,0.1,2.3v2.5H201L200.9,287.5z M208.6,292.9c0-1.9-0.7-3.2-2.3-3.2s-2.4,1.4-2.4,3.2
	s0.8,3.1,2.4,3.1C207.8,296,208.6,294.8,208.6,292.9L208.6,292.9z"/>
<path class="st6" d="M213.4,283.2h3.2v14.9h-3.2V283.2z"/>
<path class="st6" d="M218.2,292.8c-0.2-3,2.1-5.5,5.1-5.6c0.1,0,0.3,0,0.4,0c1.3,0,2.7,0.5,3.7,1.4c1.2,1.4,1.9,3.2,1.7,5.1h-7.8
	c0.2,1.6,1.1,2.6,2.6,2.6c0.8,0.1,1.5-0.3,1.9-1h3c-0.5,1.9-2.3,3.3-5,3.3c-3,0.1-5.5-2.1-5.6-5.1
	C218.1,293.2,218.1,293,218.2,292.8z M221.3,291.8h4.5c-0.1-1.5-0.9-2.4-2.2-2.4C222.2,289.4,221.5,290.3,221.3,291.8L221.3,291.8z"
	/>
<path class="st4" d="M166.5,315.5L166.5,315.5c0.4-0.9,1.3-1.4,2.2-1.5c0.2,0,0.3,0,0.5,0.1v1.2h-0.1c-0.2-0.1-0.4-0.1-0.5-0.1
	c-1.2,0-2.2,0.9-2.2,2.1c0,0,0,0.1,0,0.1v4.1h-1.3v-7.5h1.3L166.5,315.5z"/>
<path class="st4" d="M170.2,322.2h1.2c0.1,0.8,0.9,1.1,2,1.1c1.3,0,2.1-0.6,2.1-1.9v-0.2c0-0.4,0-0.8,0-1.1l0,0
	c-0.5,0.8-1.3,1.2-2.2,1.2c-1.9,0-3.3-1.5-3.3-3.4c0-0.1,0-0.2,0-0.3c0-2.3,1.5-3.7,3.2-3.7c0.9-0.1,1.8,0.4,2.3,1.2l0,0v-1h1.3v7.2
	c0.1,0.8-0.3,1.7-0.9,2.2c-0.7,0.5-1.6,0.8-2.4,0.7C171.4,324.3,170.3,323.5,170.2,322.2z M175.6,317.6c0-1.6-0.7-2.5-2.2-2.5
	s-2.1,1-2.1,2.6s0.7,2.6,2.1,2.6C175,320.3,175.6,319.1,175.6,317.6z"/>
<path class="st4" d="M178.2,319.7c0-1.8,1.3-2.1,3.2-2.4c1.1-0.1,1.8-0.3,1.8-1.1s-0.6-1.3-1.6-1.3c-1.2,0-1.8,0.6-1.8,1.5h-1.3
	c0.1-1.3,1-2.4,3.1-2.4c0.6,0,1.3,0.1,1.8,0.4c0.7,0.4,1.1,1.2,1,2v3.6c0,0.6,0.1,0.9,0.8,0.8h0.1v0.9c-0.2,0.1-0.5,0.1-0.7,0.1
	c-0.7,0.1-1.3-0.4-1.3-1.1c0,0,0-0.1,0-0.1l0,0c-0.6,0.8-1.5,1.3-2.5,1.3C179.4,321.8,178.2,321.1,178.2,319.7z M183.3,318.9v-1.2
	c-0.5,0.3-1.1,0.4-1.6,0.5c-1.2,0.2-2,0.4-2,1.5s0.7,1.2,1.5,1.2C182.3,320.9,183.3,320.1,183.3,318.9
	C183.3,318.9,183.3,318.9,183.3,318.9z"/>
<path class="st4" d="M187.7,315.2L187.7,315.2c0.5-0.8,1.4-1.3,2.4-1.2c1.3-0.1,2.4,0.8,2.5,2c0,0.1,0,0.3,0,0.4v5.2h-1.3v-5.1
	c0-0.8-0.6-1.5-1.4-1.5c-0.1,0-0.2,0-0.3,0c-1.1,0-2,0.8-2,1.9c0,0,0,0.1,0,0.1v4.6h-1.3v-7.5h1.3L187.7,315.2z"/>
<path class="st4" d="M194.4,311.3h1.4v1.5h-1.4V311.3z M194.4,314.2h1.3v7.5h-1.3V314.2z"/>
<path class="st4" d="M197.2,320.7l3.4-4.4c0.3-0.4,0.9-1,0.9-1l0,0c0,0-0.9,0-1.4,0h-2.6v-1.1h5.6v0.8l-3.4,4.5
	c-0.3,0.4-1,1.1-1,1.1l0,0c0,0,1,0,1.5,0h3v1.1h-6.1L197.2,320.7z"/>
<path class="st4" d="M204.4,319.7c0-1.8,1.3-2.1,3.2-2.4c1.1-0.1,1.8-0.3,1.8-1.1s-0.6-1.3-1.6-1.3s-1.8,0.6-1.8,1.5h-1.3
	c0.1-1.3,1-2.4,3.1-2.4c0.6,0,1.3,0.1,1.8,0.4c0.7,0.4,1.1,1.2,1,2v3.6c0,0.6,0.1,0.9,0.8,0.8h0.1v0.9c-0.2,0.1-0.5,0.1-0.7,0.1
	c-0.7,0.1-1.3-0.4-1.3-1.1c0,0,0-0.1,0-0.1l0,0c-0.6,0.8-1.5,1.3-2.5,1.3C205.5,321.8,204.4,321.1,204.4,319.7z M209.4,318.9v-1.2
	c-0.5,0.3-1.1,0.5-1.6,0.5c-1.2,0.2-2,0.4-2,1.5s0.7,1.2,1.5,1.2C208.4,320.9,209.4,320.1,209.4,318.9
	C209.4,318.9,209.4,318.9,209.4,318.9z"/>
<path class="st4" d="M212,314.2h1.2v-2.4h1.3v2.4h1.5v1h-1.6v4.7c0,0.5,0.3,0.7,0.8,0.7c0.2,0,0.4,0,0.7-0.1l0,0v1.1
	c-0.3,0.1-0.7,0.1-1,0.1c-1,0-1.7-0.4-1.7-1.5v-5H212V314.2z"/>
<path class="st4" d="M217.3,311.3h1.4v1.5h-1.4V311.3z M217.3,314.2h1.3v7.5h-1.3V314.2z"/>
<path class="st4" d="M230,315.2L230,315.2c0.5-0.8,1.4-1.3,2.4-1.2c1.3-0.1,2.4,0.8,2.5,2c0,0.1,0,0.3,0,0.4v5.2h-1.3v-5.1
	c0-0.8-0.6-1.5-1.4-1.5c-0.1,0-0.2,0-0.3,0c-1.1,0-2,0.8-2,1.9c0,0,0,0.1,0,0.1v4.6h-1.3v-7.5h1.3V315.2z"/>
<path class="st4" d="M148.1,338.6c0-1.6,1-2.4,2.4-3.2l-0.1-0.2c-0.6-0.6-1-1.5-1-2.4c0-1.2,1.1-2.2,2.3-2.2c0,0,0.1,0,0.1,0
	c1.2-0.1,2.3,0.8,2.4,2c0,0.1,0,0.1,0,0.2c0,1.3-0.9,2-2,2.6c0.4,0.5,1.6,2,2.1,2.7c0.3-0.7,0.4-1.4,0.4-2.1h1.1
	c0,1.1-0.3,2.1-0.7,3l1.6,2.1h-1.6l-0.8-1l0,0c-0.8,0.8-1.8,1.3-2.9,1.2C149.7,341.6,148.3,340.3,148.1,338.6
	C148.2,338.6,148.2,338.6,148.1,338.6z M153.7,339.4l-2.5-3.1c-0.9,0.6-1.7,1.3-1.7,2.4c0.1,1,0.9,1.8,2,1.8c0,0,0,0,0.1,0
	C152.4,340.3,153.1,340,153.7,339.4z M151.4,334.6l0.2,0.2c0.9-0.6,1.3-1.1,1.3-1.9c0.1-0.6-0.4-1.1-1-1.2c0,0-0.1,0-0.1,0
	c-0.6,0-1.1,0.4-1.2,1.1c0,0,0,0,0,0.1C150.7,333.5,151,334.1,151.4,334.6L151.4,334.6z"/>
<path class="st4" d="M161,337.5c0-2.5,1.4-4,3.3-4c1,0,1.9,0.5,2.4,1.3l0,0c0-0.3-0.1-0.9-0.1-1.4v-2.7h1.4v10.4h-1.3v-1.1l0,0
	c-0.5,0.8-1.4,1.3-2.3,1.3C162.3,341.5,161,340,161,337.5z M166.7,337.5c0-1.7-0.8-2.9-2.3-2.9s-2.1,1.2-2.1,2.9s0.7,2.9,2.1,2.9
	C166,340.4,166.7,339.2,166.7,337.5L166.7,337.5z"/>
<path class="st4" d="M169.4,337.5c-0.1-2,1.4-3.8,3.4-3.9c0.1,0,0.1,0,0.2,0c1,0,1.9,0.4,2.6,1.2c0.7,0.9,1,2,0.9,3.1h-5.8
	c0.1,1.5,0.9,2.6,2.4,2.6c0.9,0.1,1.7-0.4,2-1.3h1.3c-0.4,1.5-1.8,2.5-3.3,2.4c-2,0-3.7-1.6-3.7-3.6
	C169.3,337.7,169.4,337.6,169.4,337.5z M170.7,336.9h4.4c-0.1-1.4-0.8-2.3-2.1-2.3S170.9,335.6,170.7,336.9z"/>
<path class="st4" d="M176.9,333.8h1.4l1.3,4.1c0.3,1,0.7,2.4,0.7,2.4l0,0c0,0,0.3-1.4,0.7-2.4l1.4-4.1h1.3l-2.7,7.5h-1.4
	L176.9,333.8z"/>
<path class="st4" d="M184.1,337.5c-0.1-2,1.4-3.8,3.4-3.9c0.1,0,0.1,0,0.2,0c1,0,1.9,0.4,2.6,1.2c0.7,0.9,1,2,0.9,3.1h-5.8
	c0.1,1.5,0.9,2.6,2.4,2.6c0.9,0.1,1.7-0.4,2-1.3h1.3c-0.4,1.5-1.8,2.5-3.3,2.4c-2,0-3.7-1.6-3.7-3.6
	C184,337.8,184,337.6,184.1,337.5z M185.4,336.9h4.4c-0.1-1.4-0.8-2.3-2.1-2.3S185.6,335.6,185.4,336.9z"/>
<path class="st4" d="M192.6,330.9h1.3v10.4h-1.3V330.9z"/>
<path class="st4" d="M204,333.8h1.3v1.2l0,0c0.5-0.9,1.4-1.4,2.4-1.4c1.9,0,3.2,1.5,3.2,4s-1.2,4-3.3,4c-1,0-1.9-0.4-2.4-1.2l0,0
	c0,0.3,0,0.7,0,1.3v2.3H204V333.8z M209.6,337.6c0-1.7-0.7-2.9-2.1-2.9c-1.6,0-2.3,1.3-2.3,2.9s0.6,2.9,2.3,2.9
	C209,340.4,209.7,339.2,209.6,337.6L209.6,337.6z"/>
<path class="st4" d="M212.4,333.8h1.3v1.1l0,0c0.4-0.8,1.3-1.3,2.2-1.3c0.9,0,1.7,0.6,1.9,1.4l0,0c0.5-0.9,1.4-1.4,2.3-1.4
	c1.2-0.1,2.3,0.9,2.3,2.1c0,0.1,0,0.2,0,0.4v5.2h-1.3v-5.1c0.1-0.7-0.5-1.4-1.2-1.5c-0.1,0-0.1,0-0.2,0c-1,0-1.8,0.9-1.8,1.9
	c0,0,0,0,0,0.1v4.6h-1.3v-5.1c0-0.9-0.5-1.5-1.3-1.5c-1.1,0.1-1.9,0.9-1.9,2v4.6h-1.3L212.4,333.8z"/>
<path class="st4" d="M223.9,337.5c-0.1-2,1.4-3.8,3.4-3.9c0.1,0,0.1,0,0.2,0c1,0,1.9,0.4,2.6,1.2c0.7,0.9,1,2,0.9,3.1h-5.8
	c0.1,1.5,0.9,2.6,2.4,2.6c0.9,0.1,1.7-0.4,2-1.3h1.3c-0.4,1.5-1.8,2.5-3.3,2.4c-2,0-3.7-1.6-3.7-3.6
	C223.9,337.8,223.9,337.7,223.9,337.5z M225.3,336.9h4.4c-0.1-1.4-0.8-2.3-2.1-2.3S225.4,335.6,225.3,336.9z"/>
<path class="st4" d="M233.7,334.8L233.7,334.8c0.6-0.8,1.5-1.3,2.4-1.2c1.3-0.1,2.4,0.8,2.5,2c0,0.1,0,0.3,0,0.4v5.2h-1.3v-5.1
	c0-0.8-0.6-1.5-1.4-1.5c-0.1,0-0.2,0-0.3,0c-1.1,0-2,0.8-2,1.9c0,0,0,0.1,0,0.1v4.6h-1.3v-7.5h1.3L233.7,334.8z"/>
<path class="st4" d="M239.8,333.8h1.2v-2.4h1.3v2.4h1.6v1h-1.6v4.7c0,0.5,0.3,0.7,0.8,0.7c0.2,0,0.4,0,0.7-0.1l0,0v1.1
	c-0.3,0.1-0.7,0.1-1.1,0.1c-1,0-1.7-0.4-1.7-1.5v-5h-1.2L239.8,333.8z"/>
<path class="st4" d="M285.5,124.4c0.2-2,2-3.5,4-3.3c2,0.2,3.5,2,3.3,4c-0.2,1.9-1.7,3.4-3.7,3.4c-2,0-3.7-1.6-3.7-3.6
	C285.5,124.6,285.5,124.5,285.5,124.4z M291.5,124.7c0-1.6-0.8-2.9-2.3-2.9s-2.3,1.3-2.3,2.9s0.8,2.9,2.3,2.9
	S291.5,126.4,291.5,124.7z"/>
<path class="st4" d="M195.3,337.5c0.2-2,2-3.5,4-3.3c2,0.2,3.5,2,3.3,4c-0.2,1.9-1.7,3.4-3.7,3.4c-2,0-3.7-1.6-3.7-3.6
	C195.3,337.7,195.3,337.6,195.3,337.5z M201.3,337.8c0-1.6-0.8-2.9-2.3-2.9s-2.3,1.3-2.3,2.9s0.8,2.9,2.3,2.9
	S201.3,339.4,201.3,337.8z"/>
<path class="st4" d="M220,317.9c0.2-2,2-3.5,4-3.3s3.5,2,3.3,4c-0.2,1.9-1.7,3.4-3.7,3.4c-2,0-3.7-1.6-3.7-3.6
	C220,318.2,220,318,220,317.9z M226,318.3c0-1.6-0.8-2.9-2.3-2.9s-2.3,1.3-2.3,2.9s0.8,2.9,2.3,2.9S226,319.9,226,318.3z"/>
<path class="st4" d="M156.5,317.9c0.2-2,2-3.5,4-3.3s3.5,2,3.3,4c-0.2,1.9-1.7,3.4-3.7,3.4c-2,0-3.7-1.6-3.7-3.6
	C156.5,318.2,156.5,318,156.5,317.9z M162.5,318.3c0-1.6-0.8-2.9-2.3-2.9s-2.3,1.3-2.3,2.9s0.8,2.9,2.3,2.9S162.5,319.9,162.5,318.3
	z"/>
</svg>
