<svg id="Layer_1" data-name="Layer 1" xmlns="http://www.w3.org/2000/svg" viewBox="0 0 711.1 370.76"><defs><style>.cls-1{fill:#00d885;}.cls-2{fill:#e7045e;}.cls-3{fill:#fff;}.cls-4{fill:#d2d2d2;}.cls-5,.cls-7{fill:none;stroke-width:2px;}.cls-5{stroke:#fff;stroke-linecap:round;stroke-linejoin:round;stroke-dasharray:0.25 5;}.cls-5,.cls-6{opacity:0.5;}.cls-7{stroke:#505050;stroke-miterlimit:10;}</style></defs><rect class="cls-1" x="22.87" y="170.09" width="75.25" height="59.59"/><rect class="cls-2" x="485.75" y="209.01" width="75.25" height="20.67"/><rect class="cls-2" x="595.78" y="190.49" width="75.25" height="39.19"/><rect class="cls-3" x="311.12" y="168.21" width="75.25" height="61.47"/><rect class="cls-3" x="200.06" y="102.98" width="76.12" height="126.69"/><path class="cls-3" d="M45,149.44H42v-2.28c1.82-.06,3.3-.92,3.64-2.78h2.68v13.83H45Z"/><path class="cls-3" d="M50.48,154.81h3.2a1.83,1.83,0,0,0,1.92,1.3,2.11,2.11,0,0,0,1.78-.78,4.5,4.5,0,0,0,.78-2.73h0A3.91,3.91,0,0,1,55.06,154a4.77,4.77,0,0,1-5-4.85c0-2.92,2.33-4.88,5.53-4.88a5.68,5.68,0,0,1,4.12,1.54c1.22,1.18,1.8,3,1.8,5.5a8.89,8.89,0,0,1-1.42,5.33,5.2,5.2,0,0,1-4.4,1.94C52.72,158.53,50.86,157,50.48,154.81Zm7.62-5.71a2.33,2.33,0,0,0-2.44-2.38,2.38,2.38,0,1,0,0,4.75A2.33,2.33,0,0,0,58.1,149.1Z"/><path class="cls-3" d="M62.37,148.22c0-2.44,1.55-4,3.67-4s3.66,1.58,3.66,4-1.54,4-3.66,4A3.68,3.68,0,0,1,62.37,148.22Zm4.87,0c0-1.34-.36-2.32-1.2-2.32s-1.2,1-1.2,2.32.36,2.26,1.2,2.26S67.24,149.56,67.24,148.22Zm6.18-3.74H75.3l-7.4,13.73H66Zm-1.8,10.05a3.67,3.67,0,0,1,3.66-4c2.18,0,3.68,1.57,3.68,4s-1.54,4-3.68,4S71.62,157,71.62,154.53Zm4.88,0c0-1.32-.38-2.31-1.2-2.31s-1.2,1-1.2,2.31.34,2.28,1.2,2.28S76.5,155.87,76.5,154.53Z"/><path class="cls-3" d="M226.35,89.94H220v-3.1l6.34-7.7h3.32v8.24h2v2.56h-2v3h-3.28Zm0-2.56v-4.7h0l-3.8,4.66v0Z"/><path class="cls-3" d="M234.91,84.22H232V81.94c1.82-.06,3.3-.92,3.64-2.78h2.68V93h-3.38Z"/><path class="cls-3" d="M240,83c0-2.44,1.54-4,3.66-4s3.66,1.58,3.66,4-1.54,4-3.66,4A3.67,3.67,0,0,1,240,83Zm4.86,0c0-1.34-.36-2.32-1.2-2.32s-1.2,1-1.2,2.32.36,2.26,1.2,2.26S244.83,84.34,244.83,83ZM251,79.26h1.89L245.49,93h-1.86Zm-1.8,10a3.67,3.67,0,0,1,3.67-4c2.18,0,3.68,1.56,3.68,4s-1.54,4-3.68,4S249.21,91.74,249.21,89.3Zm4.89,0c0-1.32-.38-2.3-1.2-2.3s-1.21,1-1.21,2.3.35,2.28,1.21,2.28S254.1,90.64,254.1,89.3Z"/><path class="cls-3" d="M332.28,152.74c1.24-1.06,2.84-2.06,3.92-3a2.24,2.24,0,0,0,.9-1.71,1.64,1.64,0,0,0-1.78-1.78,1.8,1.8,0,0,0-1.48.62,3,3,0,0,0-.62,2h-3.16a5.41,5.41,0,0,1,.94-3.49,5.1,5.1,0,0,1,4.4-1.88c3.3,0,5.08,2,5.08,4.39a4.78,4.78,0,0,1-2.28,3.94,40.89,40.89,0,0,0-3.66,2.86v0h6v2.78H329.86A5.88,5.88,0,0,1,332.28,152.74Z"/><path class="cls-3" d="M341.62,150.66c0-4.36,2.46-7.17,6.06-7.17s6.06,2.81,6.06,7.17-2.44,7.16-6.08,7.16S341.62,155,341.62,150.66Zm8.64,0c0-2.66-.74-4.55-2.58-4.55s-2.6,1.86-2.6,4.55.76,4.52,2.6,4.52S350.26,153.36,350.26,150.66Z"/><path class="cls-3" d="M354.6,147.51c0-2.44,1.54-4,3.66-4s3.66,1.58,3.66,4-1.54,4-3.66,4A3.67,3.67,0,0,1,354.6,147.51Zm4.86,0c0-1.33-.36-2.32-1.2-2.32s-1.2,1-1.2,2.32.36,2.27,1.2,2.27S359.46,148.86,359.46,147.51Zm6.18-3.74h1.88l-7.4,13.73h-1.86Zm-1.8,10a3.67,3.67,0,0,1,3.66-4c2.18,0,3.68,1.56,3.68,4s-1.54,4-3.68,4S363.84,156.26,363.84,153.82Zm4.88,0c0-1.32-.38-2.3-1.2-2.3s-1.2,1-1.2,2.3.34,2.28,1.2,2.28S368.72,155.16,368.72,153.82Z"/><path class="cls-3" d="M515.81,190.6v0h-6.6V187.7h10.14v2.6a16.84,16.84,0,0,0-4.72,11.11h-3.52A16.75,16.75,0,0,1,515.81,190.6Z"/><path class="cls-3" d="M520.57,191.42c0-2.44,1.54-4,3.66-4s3.66,1.58,3.66,4-1.54,4-3.66,4A3.67,3.67,0,0,1,520.57,191.42Zm4.86,0c0-1.34-.36-2.32-1.2-2.32s-1.2,1-1.2,2.32.36,2.27,1.2,2.27S525.43,192.77,525.43,191.42Zm6.18-3.74h1.88l-7.4,13.73h-1.86Zm-1.8,10a3.67,3.67,0,0,1,3.66-4c2.18,0,3.68,1.56,3.68,4s-1.54,4-3.68,4S529.81,200.17,529.81,197.73Zm4.88,0c0-1.32-.38-2.3-1.2-2.3s-1.2,1-1.2,2.3.34,2.28,1.2,2.28S534.69,199.07,534.69,197.73Z"/><path class="cls-3" d="M618,171.78h-2.95V169.5c1.82-.06,3.31-.92,3.64-2.78h2.69v13.82H618Z"/><path class="cls-3" d="M624.49,179.54A4.78,4.78,0,0,1,623,175.8h3.18a2.31,2.31,0,0,0,2.53,2.48c1.38,0,2.14-.76,2.14-1.9s-.84-1.8-2.34-1.8h-.83v-2.34h.75c1.28,0,2.12-.56,2.12-1.6s-.66-1.56-1.8-1.56a2,2,0,0,0-2.19,2.1h-3.14c.06-2.72,2-4.62,5.37-4.62,3,0,5.08,1.44,5.08,3.86a2.87,2.87,0,0,1-2.08,2.74v0a3.25,3.25,0,0,1,2.48,3.36c0,2.94-2.54,4.3-5.42,4.3A6.28,6.28,0,0,1,624.49,179.54Z"/><path class="cls-3" d="M635.27,170.56c0-2.44,1.55-4,3.67-4s3.66,1.58,3.66,4-1.54,4-3.66,4A3.67,3.67,0,0,1,635.27,170.56Zm4.87,0c0-1.34-.37-2.32-1.2-2.32s-1.21,1-1.21,2.32.37,2.26,1.21,2.26S640.14,171.9,640.14,170.56Zm6.18-3.74h1.88l-7.4,13.72h-1.86Zm-1.8,10a3.67,3.67,0,0,1,3.66-4c2.18,0,3.68,1.56,3.68,4s-1.54,4-3.68,4S644.52,179.3,644.52,176.86Zm4.88,0c0-1.32-.38-2.3-1.2-2.3s-1.2,1-1.2,2.3.34,2.28,1.2,2.28S649.4,178.2,649.4,176.86Z"/><path class="cls-3" d="M35.19,243h5.12a3.87,3.87,0,0,1,2.85,1,2.9,2.9,0,0,1,.8,2.07,2.46,2.46,0,0,1-2,2.49v0a2.89,2.89,0,0,1,2.5,2.87,3.25,3.25,0,0,1-.91,2.32,4,4,0,0,1-3,1.1H35.19Zm4.89,5.08c1.4,0,2.23-.69,2.23-1.89s-.75-1.78-2-1.78H36.82v3.67Zm.37,5.39a2.48,2.48,0,0,0,1.8-.59,1.81,1.81,0,0,0,.52-1.34c0-1.43-1-2.13-2.41-2.13H36.82v4.06Z"/><path class="cls-3" d="M45.73,250.66a4.2,4.2,0,0,1,4.11-4.51,3.65,3.65,0,0,1,2.95,1.33A5.51,5.51,0,0,1,53.84,251H47.25c.11,1.68,1,3,2.69,3a2.16,2.16,0,0,0,2.27-1.48h1.46a3.59,3.59,0,0,1-3.75,2.69C47.28,255.19,45.73,253.18,45.73,250.66Zm1.55-.72h5c-.08-1.65-.93-2.64-2.42-2.64S47.47,248.42,47.28,249.94Z"/><path class="cls-3" d="M54.74,246.36h1.33v-1.19a2.15,2.15,0,0,1,.6-1.71,2.92,2.92,0,0,1,1.89-.5c.23,0,.5,0,.77,0v1.23c-1.41-.1-1.78.13-1.78,1v1.12h1.77v1.17H57.55V255H56.07v-7.42H54.74Z"/><path class="cls-3" d="M60.16,250.66a4.21,4.21,0,0,1,4.21-4.51c2.59,0,4.18,2,4.18,4.51s-1.59,4.53-4.18,4.53A4.21,4.21,0,0,1,60.16,250.66Zm6.87,0c0-1.85-.91-3.33-2.67-3.33s-2.68,1.48-2.68,3.33.91,3.32,2.68,3.32S67,252.52,67,250.66Z"/><path class="cls-3" d="M71.6,247.91h.05a2.87,2.87,0,0,1,2.55-1.66,1.38,1.38,0,0,1,.54.09v1.41h0a1.92,1.92,0,0,0-.61-.08,2.45,2.45,0,0,0-2.46,2.61V255H70.13v-8.59H71.6Z"/><path class="cls-3" d="M75.41,250.66a4.2,4.2,0,0,1,4.11-4.51,3.65,3.65,0,0,1,3,1.33,5.51,5.51,0,0,1,1,3.54H76.93c.11,1.68,1,3,2.69,3a2.16,2.16,0,0,0,2.27-1.48h1.46a3.59,3.59,0,0,1-3.75,2.69C77,255.19,75.41,253.18,75.41,250.66Zm1.55-.72h5c-.08-1.65-.93-2.64-2.42-2.64S77.15,248.42,77,249.94Z"/><path class="cls-3" d="M40.51,275.41a13.52,13.52,0,0,1,3.14-2.27c1.43-.81,2.26-1.39,2.26-2.7a2.17,2.17,0,0,0-2.37-2.26,2.22,2.22,0,0,0-1.75.7,2.79,2.79,0,0,0-.64,2.05H39.57A3.87,3.87,0,0,1,40.63,268a4,4,0,0,1,3-1.14,3.51,3.51,0,0,1,3.84,3.5c0,2.12-1.39,2.85-3.11,3.83-1.18.72-2.73,1.59-3.18,2.77l0,.13H47.3v1.42h-8A4.92,4.92,0,0,1,40.51,275.41Z"/><path class="cls-3" d="M49.07,272.84c0-3.68,1.78-6,4.5-6s4.48,2.24,4.48,6-1.63,6-4.49,6S49.07,276.47,49.07,272.84Zm7.38,0c0-2.84-.94-4.66-2.88-4.66s-2.91,1.79-2.91,4.66,1,4.66,2.91,4.66S56.45,275.72,56.45,272.84Z"/><path class="cls-3" d="M60.69,277.78a3.65,3.65,0,0,1-1.34-2.92h1.5c0,1.68,1.17,2.68,3,2.68,1.52,0,2.59-.76,2.59-2.32,0-1.39-1-2.13-2.88-2.13h-.72v-1.18h.71c1.69,0,2.57-.72,2.57-1.91s-1-1.92-2.38-1.92a2.37,2.37,0,0,0-2.55,2.47H59.71c0-2.15,1.54-3.67,4.09-3.67,2.14,0,3.84,1.17,3.84,3.14a2.42,2.42,0,0,1-1.89,2.39v0a2.76,2.76,0,0,1,2.29,2.9c0,2.23-1.81,3.46-4.13,3.46A5,5,0,0,1,60.69,277.78Z"/><path class="cls-3" d="M69.55,272.84c0-3.68,1.78-6,4.5-6s4.48,2.24,4.48,6-1.63,6-4.49,6S69.55,276.47,69.55,272.84Zm7.38,0c0-2.84-.94-4.66-2.88-4.66s-2.91,1.79-2.91,4.66,1,4.66,2.91,4.66S76.93,275.72,76.93,272.84Z"/><path class="cls-4" d="M10.34,340.76h1.11c.13,1.24,1,1.92,2.43,1.92,1.09,0,1.88-.49,1.88-1.48s-.94-1.32-2.37-1.64-2.71-.72-2.71-2.29c0-1.38,1.16-2.19,2.84-2.19,2,0,2.92,1,3.11,2.41H15.54a1.77,1.77,0,0,0-2-1.53c-1.08,0-1.78.44-1.78,1.25s.89,1.14,2.12,1.4c1.59.32,3,.72,3,2.55,0,1.55-1.28,2.42-3,2.42C11.56,343.58,10.43,342.33,10.34,340.76Z"/><path class="cls-4" d="M17.78,340.47a2.89,2.89,0,1,1,2.89,3.11A2.89,2.89,0,0,1,17.78,340.47Zm4.72,0c0-1.28-.63-2.29-1.84-2.29s-1.84,1-1.84,2.29.63,2.27,1.84,2.27S22.5,341.74,22.5,340.47Z"/><path class="cls-4" d="M28.4,343.41v-.82h0a2,2,0,0,1-1.78,1,1.84,1.84,0,0,1-2-2v-4.07h1v4a1.13,1.13,0,0,0,1.29,1.19,1.48,1.48,0,0,0,1.48-1.61v-3.59h1v5.9Z"/><path class="cls-4" d="M31.85,338.57h0a2,2,0,0,1,1.75-1.14.82.82,0,0,1,.37.07v1h0a1.34,1.34,0,0,0-.42,0,1.68,1.68,0,0,0-1.69,1.79v3.21h-1v-5.9h1Z"/><path class="cls-4" d="M34.46,340.47a2.9,2.9,0,0,1,2.89-3.11,2.39,2.39,0,0,1,2.55,2.07h-1a1.44,1.44,0,0,0-1.53-1.24c-1.21,0-1.84,1-1.84,2.28s.63,2.27,1.84,2.27a1.44,1.44,0,0,0,1.55-1.42h1a2.35,2.35,0,0,1-2.56,2.26A2.9,2.9,0,0,1,34.46,340.47Z"/><path class="cls-4" d="M40.62,340.47a2.9,2.9,0,0,1,2.83-3.11,2.5,2.5,0,0,1,2,.92,3.78,3.78,0,0,1,.72,2.43H41.67c.08,1.15.7,2,1.85,2a1.49,1.49,0,0,0,1.56-1h1a2.46,2.46,0,0,1-2.57,1.85A2.87,2.87,0,0,1,40.62,340.47Zm1.07-.5h3.42c0-1.13-.64-1.81-1.66-1.81S41.82,338.93,41.69,340Z"/><path class="cls-4" d="M47.21,338.73H48.4v1.21H47.21Zm0,3.47H48.4v1.21H47.21Z"/><path class="cls-4" d="M52.38,342.37l4-5.09c.35-.46,1-1.1,1-1.1v0s-.91.05-1.47.05H52.68v-1h5.93v.88l-3.94,5.09c-.4.5-1.08,1.22-1.08,1.22v0s.93,0,1.53,0H58.8v1H52.38Z"/><path class="cls-4" d="M59.36,340.47a2.89,2.89,0,0,1,2.82-3.11,2.49,2.49,0,0,1,2,.92,3.78,3.78,0,0,1,.72,2.43H60.4c.08,1.15.71,2,1.85,2a1.48,1.48,0,0,0,1.56-1h1a2.46,2.46,0,0,1-2.57,1.85A2.86,2.86,0,0,1,59.36,340.47Zm1.06-.5h3.43c-.06-1.13-.64-1.81-1.67-1.81S60.56,338.93,60.42,340Z"/><path class="cls-4" d="M67,338.57h0a2,2,0,0,1,1.75-1.14.82.82,0,0,1,.37.07v1h0a1.38,1.38,0,0,0-.42,0,1.68,1.68,0,0,0-1.69,1.79v3.21H66v-5.9h1Z"/><path class="cls-4" d="M69.65,340.47a2.89,2.89,0,1,1,2.9,3.11A2.89,2.89,0,0,1,69.65,340.47Zm4.72,0c0-1.28-.62-2.29-1.83-2.29s-1.84,1-1.84,2.29.62,2.27,1.84,2.27S74.37,341.74,74.37,340.47Z"/><path class="cls-4" d="M78.09,337.77H76.27v-.7c1,0,1.92-.4,2.06-1.54h.83v7.88H78.09Z"/><path class="cls-4" d="M80.72,339.49c0-2.53,1.22-4.1,3.09-4.1s3.08,1.55,3.08,4.1-1.12,4.1-3.09,4.1S80.72,342,80.72,339.49Zm5.07,0c0-1.95-.65-3.2-2-3.2s-2,1.23-2,3.2.66,3.2,2,3.2S85.79,341.47,85.79,339.49Z"/><path class="cls-4" d="M88.06,339.49c0-2.53,1.22-4.1,3.09-4.1s3.08,1.55,3.08,4.1-1.12,4.1-3.09,4.1S88.06,342,88.06,339.49Zm5.07,0c0-1.95-.65-3.2-2-3.2s-2,1.23-2,3.2.66,3.2,2,3.2S93.13,341.47,93.13,339.49Z"/><path class="cls-4" d="M104.36,343.06a4.09,4.09,0,0,1-2.08.53,4.28,4.28,0,1,1,4-4.27,4.43,4.43,0,0,1-1.21,3.19l1.18.95-.56.68Zm-.86-.69-1.06-.86.55-.68,1.26,1a3.57,3.57,0,0,0,.88-2.52c0-1.88-1-3.3-2.85-3.3s-2.86,1.42-2.86,3.3,1,3.3,2.86,3.3A2.92,2.92,0,0,0,103.5,342.37Z"/><path class="cls-4" d="M108.09,341.26a9,9,0,0,1,2.15-1.56c1-.56,1.55-1,1.55-1.86a1.66,1.66,0,0,0-2.82-1.07,1.88,1.88,0,0,0-.44,1.41h-1.09a2.68,2.68,0,0,1,.72-2,2.81,2.81,0,0,1,2.09-.78,2.41,2.41,0,0,1,2.64,2.41c0,1.45-1,1.95-2.13,2.62-.81.5-1.88,1.09-2.19,1.91l0,.09h4.2v1h-5.5A3.29,3.29,0,0,1,108.09,341.26Z"/><path class="cls-4" d="M117.59,341.26a9,9,0,0,1,2.16-1.56c1-.56,1.55-1,1.55-1.86a1.49,1.49,0,0,0-1.63-1.55,1.51,1.51,0,0,0-1.2.48,1.88,1.88,0,0,0-.44,1.41h-1.09a2.64,2.64,0,0,1,.73-2,2.78,2.78,0,0,1,2.09-.78,2.41,2.41,0,0,1,2.64,2.41c0,1.45-1,1.95-2.14,2.62-.81.5-1.88,1.09-2.19,1.91l0,.09h4.2v1h-5.5A3.39,3.39,0,0,1,117.59,341.26Z"/><path class="cls-4" d="M123.48,339.49c0-2.53,1.22-4.1,3.09-4.1s3.08,1.55,3.08,4.1-1.13,4.1-3.09,4.1S123.48,342,123.48,339.49Zm5.07,0c0-1.95-.65-3.2-2-3.2s-2,1.23-2,3.2.66,3.2,2,3.2S128.55,341.47,128.55,339.49Z"/><path class="cls-4" d="M131.45,341.26a9,9,0,0,1,2.16-1.56c1-.56,1.55-1,1.55-1.86a1.49,1.49,0,0,0-1.63-1.55,1.51,1.51,0,0,0-1.2.48,1.88,1.88,0,0,0-.44,1.41H130.8a2.64,2.64,0,0,1,.73-2,2.78,2.78,0,0,1,2.09-.78,2.41,2.41,0,0,1,2.64,2.41c0,1.45-1,1.95-2.14,2.62-.81.5-1.88,1.09-2.19,1.91l0,.09h4.2v1h-5.5A3.39,3.39,0,0,1,131.45,341.26Z"/><path class="cls-4" d="M138,341.26a9.16,9.16,0,0,1,2.15-1.56c1-.56,1.56-1,1.56-1.86a1.66,1.66,0,0,0-2.83-1.07,1.88,1.88,0,0,0-.44,1.41h-1.09a2.64,2.64,0,0,1,.73-2,2.78,2.78,0,0,1,2.09-.78,2.41,2.41,0,0,1,2.64,2.41c0,1.45-1,1.95-2.14,2.62-.81.5-1.88,1.09-2.19,1.91l0,.09h4.2v1h-5.5A3.39,3.39,0,0,1,138,341.26Z"/><path class="cls-4" d="M146.6,340.76h1.11c.13,1.24.94,1.92,2.43,1.92,1.09,0,1.88-.49,1.88-1.48s-1-1.32-2.38-1.64-2.7-.72-2.7-2.29c0-1.38,1.15-2.19,2.84-2.19,2,0,2.91,1,3.11,2.41H151.8a1.77,1.77,0,0,0-2-1.53c-1.08,0-1.79.44-1.79,1.25s.9,1.14,2.13,1.4c1.58.32,3,.72,3,2.55,0,1.55-1.27,2.42-3,2.42C147.82,343.58,146.69,342.33,146.6,340.76Z"/><path class="cls-4" d="M158.13,343.41v-.82h0a2,2,0,0,1-1.78,1,1.84,1.84,0,0,1-2-2v-4.07h1v4a1.14,1.14,0,0,0,1.29,1.19,1.48,1.48,0,0,0,1.48-1.61v-3.59h1v5.9Z"/><path class="cls-4" d="M161.57,338.57h0a2,2,0,0,1,1.75-1.14.79.79,0,0,1,.37.07v1h0a1.34,1.34,0,0,0-.42,0,1.68,1.68,0,0,0-1.69,1.79v3.21h-1v-5.9h1Z"/><path class="cls-4" d="M164.08,337.51h1.08l1,3.19c.25.79.54,1.88.54,1.88h0s.25-1.09.52-1.88l1.05-3.19h1.06l-2.12,5.9h-1.14Z"/><path class="cls-4" d="M169.72,340.47a2.89,2.89,0,0,1,2.83-3.11,2.47,2.47,0,0,1,2,.92,3.78,3.78,0,0,1,.73,2.43h-4.54c.08,1.15.71,2,1.85,2a1.47,1.47,0,0,0,1.56-1h1a2.47,2.47,0,0,1-2.58,1.85A2.87,2.87,0,0,1,169.72,340.47Zm1.07-.5h3.42c-.06-1.13-.64-1.81-1.66-1.81S170.92,338.93,170.79,340Z"/><path class="cls-4" d="M176.13,345.35v-.88h.05a1.35,1.35,0,0,0,.61.11c.41,0,.67-.15.88-.71a7.39,7.39,0,0,0,.21-.75l-2.25-5.61h1.11l1.22,3.28c.24.67.49,1.59.49,1.59h0s.27-.93.5-1.59l1.18-3.28h1.07L178.72,344c-.49,1.25-1,1.52-1.72,1.52A2.79,2.79,0,0,1,176.13,345.35Z"/><path class="cls-4" d="M184.59,340.47a2.89,2.89,0,1,1,2.89,3.11A2.89,2.89,0,0,1,184.59,340.47Zm4.72,0c0-1.28-.63-2.29-1.84-2.29s-1.83,1-1.83,2.29.62,2.27,1.83,2.27S189.31,341.74,189.31,340.47Z"/><path class="cls-4" d="M191,337.51h.91v-.82a1.48,1.48,0,0,1,.42-1.17,2,2,0,0,1,1.3-.35l.53,0V336c-1-.06-1.22.09-1.22.7v.77h1.21v.8h-1.21v5.1h-1v-5.1H191Z"/><path class="cls-4" d="M197.75,340.76h1.11c.13,1.24.94,1.92,2.43,1.92,1.09,0,1.88-.49,1.88-1.48s-.95-1.32-2.38-1.64-2.7-.72-2.7-2.29c0-1.38,1.15-2.19,2.84-2.19,2,0,2.91,1,3.11,2.41H203a1.77,1.77,0,0,0-2-1.53c-1.08,0-1.79.44-1.79,1.25s.9,1.14,2.13,1.4c1.58.32,3,.72,3,2.55,0,1.55-1.27,2.42-3,2.42C199,343.58,197.83,342.33,197.75,340.76Z"/><path class="cls-4" d="M209.27,343.41v-.82h0a2,2,0,0,1-1.78,1,1.84,1.84,0,0,1-2-2v-4.07h1v4a1.13,1.13,0,0,0,1.29,1.19,1.48,1.48,0,0,0,1.48-1.61v-3.59h1v5.9Z"/><path class="cls-4" d="M211.71,337.51h1v.92h0a2.13,2.13,0,0,1,1.88-1.07c1.51,0,2.54,1.17,2.54,3.12s-1,3.11-2.57,3.11a2.11,2.11,0,0,1-1.86-1h0c0,.21,0,.54,0,1v1.8h-1Zm4.42,3c0-1.3-.54-2.27-1.63-2.27-1.25,0-1.83,1-1.83,2.27s.51,2.24,1.82,2.24C215.58,342.74,216.13,341.79,216.13,340.5Z"/><path class="cls-4" d="M218.26,337.51h1v.92h0a2.13,2.13,0,0,1,1.88-1.07c1.5,0,2.54,1.17,2.54,3.12s-1,3.11-2.58,3.11a2.09,2.09,0,0,1-1.85-1h0c0,.21,0,.54,0,1v1.8h-1Zm4.42,3c0-1.3-.53-2.27-1.62-2.27-1.26,0-1.83,1-1.83,2.27s.51,2.24,1.81,2.24C222.13,342.74,222.68,341.79,222.68,340.5Z"/><path class="cls-4" d="M224.85,335.23h1v8.18h-1Z"/><path class="cls-4" d="M227.17,345.35v-.88h0a1.43,1.43,0,0,0,.62.11c.41,0,.67-.15.88-.71a7.39,7.39,0,0,0,.21-.75l-2.25-5.61h1.11l1.22,3.28c.24.67.49,1.59.49,1.59h0s.28-.93.51-1.59l1.18-3.28h1.06l-2.5,6.44c-.49,1.25-1,1.52-1.72,1.52A2.79,2.79,0,0,1,227.17,345.35Z"/><path class="cls-4" d="M235.78,339.32c0-2.41,1.46-4.27,3.89-4.27a3.53,3.53,0,0,1,2.28.73,2.94,2.94,0,0,1,1,1.92h-1.12a2.05,2.05,0,0,0-2.22-1.67c-1.74,0-2.72,1.41-2.72,3.29s1.08,3.28,2.73,3.28a2.19,2.19,0,0,0,2.3-2.17h1.12a3.18,3.18,0,0,1-3.45,3.15C237.3,343.58,235.78,341.8,235.78,339.32Z"/><path class="cls-4" d="M245.26,338.36h0a2.19,2.19,0,0,1,1.89-1,1.8,1.8,0,0,1,2,1.93v4.12h-1v-4a1.15,1.15,0,0,0-1.3-1.19,1.52,1.52,0,0,0-1.57,1.6v3.59h-1v-8.18h1v2.14C245.29,337.67,245.27,338.08,245.26,338.36Z"/><path class="cls-4" d="M250.3,341.85c0-1.37,1-1.67,2.55-1.86.86-.1,1.43-.24,1.43-.84s-.46-1-1.27-1-1.39.44-1.42,1.15h-1c.05-1,.8-1.9,2.4-1.9a2.83,2.83,0,0,1,1.43.32,1.75,1.75,0,0,1,.79,1.61v2.76c0,.47.11.73.63.62h0v.71a1.57,1.57,0,0,1-.55.09,1,1,0,0,1-1-.92h0a2.34,2.34,0,0,1-2,1C251.18,343.54,250.3,343,250.3,341.85Zm4-.61v-1a4.14,4.14,0,0,1-1.3.42c-1,.16-1.61.34-1.61,1.15s.59,1,1.18,1A1.61,1.61,0,0,0,254.29,341.24Z"/><path class="cls-4" d="M256.71,335.23h1.06v1.19h-1.06Zm0,2.28h1v5.9h-1Z"/><path class="cls-4" d="M260.17,338.34h0a2.2,2.2,0,0,1,1.87-1,1.8,1.8,0,0,1,2,1.93v4.12h-1v-4a1.14,1.14,0,0,0-1.3-1.19,1.52,1.52,0,0,0-1.57,1.6v3.59h-1v-5.9h1Z"/><path class="cls-4" d="M268.51,335.23H272a2.34,2.34,0,0,1,2.54,2.4c0,1.51-.88,2.42-2.65,2.42h-2.2v3.36h-1.13Zm1.13,3.91h2.09c1.11,0,1.64-.57,1.64-1.48s-.58-1.45-1.59-1.45h-2.14Z"/><path class="cls-4" d="M276.49,338.57h0a2,2,0,0,1,1.75-1.14.82.82,0,0,1,.37.07v1h0a1.38,1.38,0,0,0-.42,0,1.68,1.68,0,0,0-1.69,1.79v3.21h-1v-5.9h1Z"/><path class="cls-4" d="M279.11,340.47a2.89,2.89,0,1,1,2.9,3.11A2.89,2.89,0,0,1,279.11,340.47Zm4.72,0c0-1.28-.62-2.29-1.83-2.29s-1.84,1-1.84,2.29.62,2.27,1.84,2.27S283.83,341.74,283.83,340.47Z"/><path class="cls-4" d="M285.49,337.51h.92v-.82a1.48,1.48,0,0,1,.41-1.17,2,2,0,0,1,1.3-.35l.53,0V336c-1-.06-1.22.09-1.22.7v.77h1.21v.8h-1.21v5.1h-1v-5.1h-.92Z"/><path class="cls-4" d="M289.22,340.47a2.89,2.89,0,0,1,2.83-3.11,2.47,2.47,0,0,1,2,.92,3.73,3.73,0,0,1,.73,2.43h-4.53c.07,1.15.7,2,1.84,2a1.49,1.49,0,0,0,1.57-1h1a2.47,2.47,0,0,1-2.58,1.85A2.87,2.87,0,0,1,289.22,340.47Zm1.07-.5h3.42c0-1.13-.64-1.81-1.66-1.81S290.42,338.93,290.29,340Z"/><path class="cls-4" d="M295.51,341.62h1c.12.86.78,1.15,1.63,1.15s1.33-.41,1.33-.94-.5-.81-1.54-1-2.2-.49-2.2-1.78c0-1,.79-1.66,2.16-1.66s2.23.7,2.36,1.72h-1c-.09-.6-.51-.94-1.36-.94s-1.14.37-1.14.82c0,.62.57.74,1.57.93,1.18.24,2.19.5,2.19,1.88,0,1.19-1,1.81-2.38,1.81C296.53,343.59,295.6,342.82,295.51,341.62Z"/><path class="cls-4" d="M301.26,341.62h1c.12.86.78,1.15,1.63,1.15s1.33-.41,1.33-.94-.5-.81-1.54-1-2.2-.49-2.2-1.78c0-1,.79-1.66,2.17-1.66s2.22.7,2.35,1.72h-1c-.09-.6-.51-.94-1.36-.94s-1.14.37-1.14.82c0,.62.57.74,1.57.93,1.18.24,2.19.5,2.19,1.88,0,1.19-1,1.81-2.37,1.81C302.27,343.59,301.34,342.82,301.26,341.62Z"/><path class="cls-4" d="M307.35,335.23h1.07v1.19h-1.07Zm0,2.28h1v5.9h-1Z"/><path class="cls-4" d="M309.48,340.47a2.89,2.89,0,1,1,2.9,3.11A2.89,2.89,0,0,1,309.48,340.47Zm4.72,0c0-1.28-.62-2.29-1.83-2.29s-1.84,1-1.84,2.29.63,2.27,1.84,2.27S314.2,341.74,314.2,340.47Z"/><path class="cls-4" d="M317.35,338.34h0a2.19,2.19,0,0,1,1.87-1,1.8,1.8,0,0,1,2,1.93v4.12h-1v-4a1.14,1.14,0,0,0-1.3-1.19,1.52,1.52,0,0,0-1.57,1.6v3.59h-1v-5.9h1Z"/><path class="cls-4" d="M322.38,341.85c0-1.37,1-1.67,2.54-1.86.87-.1,1.43-.24,1.43-.84s-.45-1-1.27-1-1.38.44-1.42,1.15h-1c.05-1,.81-1.9,2.4-1.9a2.83,2.83,0,0,1,1.43.32,1.73,1.73,0,0,1,.79,1.61v2.76c0,.47.11.73.63.62h0v.71a1.53,1.53,0,0,1-.55.09,1,1,0,0,1-1-.92h0a2.34,2.34,0,0,1-2,1C323.26,343.54,322.38,343,322.38,341.85Zm4-.61v-1a4.14,4.14,0,0,1-1.3.42c-1,.16-1.61.34-1.61,1.15s.59,1,1.18,1A1.61,1.61,0,0,0,326.36,341.24Z"/><path class="cls-4" d="M328.83,335.23h1v8.18h-1Z"/><path class="cls-4" d="M330.92,341.62h1c.12.86.78,1.15,1.62,1.15s1.34-.41,1.34-.94-.5-.81-1.54-1-2.21-.49-2.21-1.78c0-1,.8-1.66,2.17-1.66s2.22.7,2.36,1.72h-1c-.08-.6-.5-.94-1.35-.94s-1.14.37-1.14.82c0,.62.57.74,1.57.93,1.18.24,2.19.5,2.19,1.88,0,1.19-1,1.81-2.38,1.81C331.93,343.59,331,342.82,330.92,341.62Z"/><path class="cls-4" d="M11.72,353.94h0a2.19,2.19,0,0,1,1.87-1,1.8,1.8,0,0,1,2,1.93V359h-1v-4a1.15,1.15,0,0,0-1.3-1.19,1.52,1.52,0,0,0-1.57,1.6V359h-1v-5.9h1Z"/><path class="cls-4" d="M17,354h5.21v.8H17Zm0,2.05h5.21v.8H17Z"/><path class="cls-4" d="M24.17,356.86a9.16,9.16,0,0,1,2.15-1.56c1-.56,1.56-1,1.56-1.86a1.66,1.66,0,0,0-2.83-1.07,1.88,1.88,0,0,0-.44,1.41H23.52a2.64,2.64,0,0,1,.73-2,2.78,2.78,0,0,1,2.09-.78,2.41,2.41,0,0,1,2.64,2.4c0,1.46-1,2-2.14,2.63-.81.5-1.88,1.09-2.19,1.91l0,.08h4.2v1h-5.5A3.39,3.39,0,0,1,24.17,356.86Z"/><path class="cls-4" d="M31.14,358.44a4.27,4.27,0,0,1-1.09-3.39,5.11,5.11,0,0,1,.78-3,2.71,2.71,0,0,1,2.29-1.1,2.36,2.36,0,0,1,2.5,2h-1a1.37,1.37,0,0,0-1.43-1.15c-1.47,0-2,1.19-2.09,3.23h0a2.32,2.32,0,0,1,2.15-1.24,2.63,2.63,0,0,1,2.61,2.64,2.68,2.68,0,0,1-2.7,2.7A2.76,2.76,0,0,1,31.14,358.44Zm3.71-1.91a1.8,1.8,0,1,0-3.6,0,1.79,1.79,0,0,0,1.87,1.82A1.7,1.7,0,0,0,34.85,356.53Z"/><path class="cls-4" d="M36.88,357.08H38a1.5,1.5,0,0,0,1.63,1.24,1.61,1.61,0,0,0,1.31-.53,4,4,0,0,0,.69-2.56h0a2.59,2.59,0,0,1-2.16,1.11,2.66,2.66,0,0,1-2.63-2.66A2.69,2.69,0,0,1,39.56,351a3,3,0,0,1,1.85.61c.89.68,1.17,1.8,1.17,3.52a4.4,4.4,0,0,1-1.08,3.4,2.7,2.7,0,0,1-1.9.67A2.52,2.52,0,0,1,36.88,357.08Zm4.54-3.42a1.79,1.79,0,0,0-1.86-1.82,1.73,1.73,0,0,0-1.8,1.82,1.77,1.77,0,0,0,1.79,1.82A1.74,1.74,0,0,0,41.42,353.66Z"/><path class="cls-3" d="M206.48,243h5.12a3.87,3.87,0,0,1,2.85,1,2.9,2.9,0,0,1,.8,2.07,2.46,2.46,0,0,1-2,2.49v0a2.89,2.89,0,0,1,2.5,2.87,3.21,3.21,0,0,1-.92,2.32,4,4,0,0,1-3,1.1h-5.36Zm4.89,5.08c1.4,0,2.23-.69,2.23-1.89s-.75-1.78-2-1.78h-3.46v3.67Zm.37,5.39a2.44,2.44,0,0,0,1.79-.59,1.78,1.78,0,0,0,.53-1.34c0-1.43-1-2.13-2.41-2.13h-3.54v4.06Z"/><path class="cls-3" d="M217,250.66a4.2,4.2,0,0,1,4.11-4.51,3.65,3.65,0,0,1,3,1.33,5.51,5.51,0,0,1,1,3.54h-6.59c.11,1.68,1,3,2.69,3a2.16,2.16,0,0,0,2.27-1.48H225a3.59,3.59,0,0,1-3.75,2.69C218.57,255.19,217,253.18,217,250.66Zm1.55-.72h5c-.08-1.65-.93-2.64-2.42-2.64S218.76,248.42,218.57,249.94Z"/><path class="cls-3" d="M226,246.36h1.34v-2.71h1.47v2.71h1.78v1.15h-1.78v5.43c0,.62.34.8.88.8a3,3,0,0,0,.76-.12h0v1.25a5,5,0,0,1-1.2.15c-1.15,0-1.95-.48-1.95-1.75v-5.76H226Z"/><path class="cls-3" d="M231.47,246.36h1.58l1.35,4.77c.27,1,.56,2.51.56,2.51h0s.29-1.44.57-2.48l1.3-4.8h1.41l1.28,4.8c.24.91.54,2.5.54,2.5h0a23.57,23.57,0,0,1,.56-2.53l1.42-4.77h1.54l-2.8,8.59h-1.49l-1.27-4.74c-.21-.83-.54-2.4-.54-2.4h0s-.32,1.59-.53,2.4l-1.3,4.74h-1.5Z"/><path class="cls-3" d="M244.2,250.66a4.21,4.21,0,0,1,4.12-4.51,3.63,3.63,0,0,1,2.94,1.33,5.45,5.45,0,0,1,1.06,3.54h-6.6c.12,1.68,1,3,2.69,3a2.17,2.17,0,0,0,2.28-1.48h1.45a3.58,3.58,0,0,1-3.74,2.69C245.75,255.19,244.2,253.18,244.2,250.66Zm1.55-.72h5c-.08-1.65-.93-2.64-2.41-2.64S246,248.42,245.75,249.94Z"/><path class="cls-3" d="M253.43,250.66a4.21,4.21,0,0,1,4.12-4.51,3.63,3.63,0,0,1,2.94,1.33,5.45,5.45,0,0,1,1.06,3.54H255c.11,1.68,1,3,2.68,3a2.17,2.17,0,0,0,2.28-1.48h1.45a3.58,3.58,0,0,1-3.74,2.69C255,255.19,253.43,253.18,253.43,250.66Zm1.56-.72h5c-.08-1.65-.93-2.64-2.42-2.64S255.18,248.42,255,249.94Z"/><path class="cls-3" d="M264.6,247.57h0a3.18,3.18,0,0,1,2.72-1.42,2.61,2.61,0,0,1,2.9,2.8v6H268.8v-5.82a1.66,1.66,0,0,0-1.89-1.73,2.21,2.21,0,0,0-2.29,2.32V255h-1.49v-8.59h1.47Z"/><path class="cls-3" d="M195.38,275.41a13.31,13.31,0,0,1,3.14-2.27c1.42-.81,2.25-1.39,2.25-2.7a2.17,2.17,0,0,0-2.37-2.26,2.22,2.22,0,0,0-1.74.7,2.75,2.75,0,0,0-.64,2.05h-1.58a3.86,3.86,0,0,1,1.05-2.89,4.06,4.06,0,0,1,3-1.14,3.51,3.51,0,0,1,3.84,3.5c0,2.12-1.39,2.85-3.1,3.83-1.18.72-2.74,1.59-3.19,2.77l0,.13h6.12v1.42h-8A4.93,4.93,0,0,1,195.38,275.41Z"/><path class="cls-3" d="M203.94,272.84c0-3.68,1.78-6,4.5-6s4.48,2.24,4.48,6-1.63,6-4.5,6S203.94,276.47,203.94,272.84Zm7.38,0c0-2.84-.95-4.66-2.88-4.66s-2.92,1.79-2.92,4.66,1,4.66,2.92,4.66S211.32,275.72,211.32,272.84Z"/><path class="cls-3" d="M215.56,277.78a3.66,3.66,0,0,1-1.35-2.92h1.51c0,1.68,1.16,2.68,3,2.68,1.53,0,2.6-.76,2.6-2.32,0-1.39-1-2.13-2.88-2.13h-.72v-1.18h.7c1.7,0,2.58-.72,2.58-1.91s-1.06-1.92-2.39-1.92a2.36,2.36,0,0,0-2.54,2.47h-1.49c0-2.15,1.54-3.67,4.08-3.67,2.15,0,3.84,1.17,3.84,3.14a2.42,2.42,0,0,1-1.89,2.39v0a2.75,2.75,0,0,1,2.29,2.9c0,2.23-1.81,3.46-4.13,3.46A4.92,4.92,0,0,1,215.56,277.78Z"/><path class="cls-3" d="M224.42,272.84c0-3.68,1.78-6,4.5-6s4.48,2.24,4.48,6-1.63,6-4.5,6S224.42,276.47,224.42,272.84Zm7.38,0c0-2.84-1-4.66-2.88-4.66S226,270,226,272.84s1,4.66,2.92,4.66S231.8,275.72,231.8,272.84Z"/><path class="cls-3" d="M234.24,273.67h8V275h-8Z"/><path class="cls-3" d="M243.94,275.41a13.31,13.31,0,0,1,3.14-2.27c1.42-.81,2.25-1.39,2.25-2.7a2.17,2.17,0,0,0-2.37-2.26,2.22,2.22,0,0,0-1.74.7,2.75,2.75,0,0,0-.64,2.05H243a3.86,3.86,0,0,1,1.05-2.89,4.06,4.06,0,0,1,3-1.14,3.51,3.51,0,0,1,3.84,3.5c0,2.12-1.39,2.85-3.1,3.83-1.19.72-2.74,1.59-3.19,2.77l0,.13h6.12v1.42h-8A4.93,4.93,0,0,1,243.94,275.41Z"/><path class="cls-3" d="M252.5,272.84c0-3.68,1.78-6,4.5-6s4.48,2.24,4.48,6-1.63,6-4.5,6S252.5,276.47,252.5,272.84Zm7.38,0c0-2.84-.95-4.66-2.88-4.66s-2.92,1.79-2.92,4.66,1,4.66,2.92,4.66S259.88,275.72,259.88,272.84Z"/><path class="cls-3" d="M268.52,275.78H263v-1.37l5.77-7.38H270v7.55h1.86v1.2H270v2.77h-1.5Zm-2.58-1.2h2.58v-3.87c0-.61.08-1.68.08-1.68h0a17.28,17.28,0,0,1-1,1.49l-2.11,2.69c-.45.56-1.22,1.4-1.22,1.4v0S265.28,274.58,265.94,274.58Z"/><path class="cls-3" d="M273.14,272.84c0-3.68,1.78-6,4.5-6s4.48,2.24,4.48,6-1.63,6-4.5,6S273.14,276.47,273.14,272.84Zm7.38,0c0-2.84-.95-4.66-2.88-4.66s-2.92,1.79-2.92,4.66,1,4.66,2.92,4.66S280.52,275.72,280.52,272.84Z"/><path class="cls-3" d="M317,243h5.12a3.84,3.84,0,0,1,2.85,1,2.86,2.86,0,0,1,.8,2.07,2.46,2.46,0,0,1-2,2.49v0a2.89,2.89,0,0,1,2.49,2.87,3.21,3.21,0,0,1-.91,2.32,4,4,0,0,1-3,1.1H317Zm4.9,5.08c1.39,0,2.23-.69,2.23-1.89s-.76-1.78-2-1.78h-3.46v3.67Zm.37,5.39a2.45,2.45,0,0,0,1.79-.59,1.78,1.78,0,0,0,.53-1.34c0-1.43-1-2.13-2.42-2.13h-3.54v4.06Z"/><path class="cls-3" d="M327.52,250.66a4.21,4.21,0,0,1,4.12-4.51,3.63,3.63,0,0,1,2.94,1.33,5.45,5.45,0,0,1,1.06,3.54h-6.59c.11,1.68,1,3,2.68,3A2.17,2.17,0,0,0,334,252.5h1.45a3.58,3.58,0,0,1-3.74,2.69C329.08,255.19,327.52,253.18,327.52,250.66Zm1.56-.72h5c-.08-1.65-.93-2.64-2.42-2.64S329.27,248.42,329.08,249.94Z"/><path class="cls-3" d="M336.53,246.36h1.35v-2.71h1.47v2.71h1.78v1.15h-1.78v5.43c0,.62.34.8.88.8a2.94,2.94,0,0,0,.75-.12h0v1.25a5,5,0,0,1-1.2.15c-1.15,0-1.95-.48-1.95-1.75v-5.76h-1.35Z"/><path class="cls-3" d="M342,246.36h1.59l1.34,4.77c.27,1,.56,2.51.56,2.51h0s.29-1.44.58-2.48l1.3-4.8h1.41l1.28,4.8c.24.91.54,2.5.54,2.5h0a23.57,23.57,0,0,1,.56-2.53l1.43-4.77h1.53l-2.8,8.59h-1.49l-1.26-4.74c-.21-.83-.54-2.4-.54-2.4h0s-.32,1.59-.53,2.4L346.2,255h-1.51Z"/><path class="cls-3" d="M354.71,250.66a4.2,4.2,0,0,1,4.11-4.51,3.65,3.65,0,0,1,2.95,1.33,5.51,5.51,0,0,1,1.05,3.54h-6.59c.11,1.68,1,3,2.69,3a2.16,2.16,0,0,0,2.27-1.48h1.46a3.59,3.59,0,0,1-3.75,2.69C356.26,255.19,354.71,253.18,354.71,250.66Zm1.55-.72h5c-.08-1.65-.93-2.64-2.42-2.64S356.45,248.42,356.26,249.94Z"/><path class="cls-3" d="M363.94,250.66a4.21,4.21,0,0,1,4.12-4.51,3.63,3.63,0,0,1,2.94,1.33,5.51,5.51,0,0,1,1.06,3.54h-6.6c.11,1.68,1,3,2.69,3a2.15,2.15,0,0,0,2.27-1.48h1.46a3.58,3.58,0,0,1-3.74,2.69C365.49,255.19,363.94,253.18,363.94,250.66Zm1.55-.72h5c-.08-1.65-.93-2.64-2.41-2.64S365.69,248.42,365.49,249.94Z"/><path class="cls-3" d="M375.11,247.57h.05a3.17,3.17,0,0,1,2.72-1.42,2.61,2.61,0,0,1,2.9,2.8v6H379.3v-5.82a1.66,1.66,0,0,0-1.89-1.73,2.21,2.21,0,0,0-2.28,2.32V255h-1.49v-8.59h1.47Z"/><path class="cls-3" d="M306.07,275.41a13.52,13.52,0,0,1,3.14-2.27c1.42-.81,2.25-1.39,2.25-2.7a2.17,2.17,0,0,0-2.36-2.26,2.22,2.22,0,0,0-1.75.7,2.75,2.75,0,0,0-.64,2.05h-1.58a3.86,3.86,0,0,1,1.05-2.89,4.07,4.07,0,0,1,3-1.14,3.52,3.52,0,0,1,3.85,3.5c0,2.12-1.4,2.85-3.11,3.83-1.18.72-2.74,1.59-3.19,2.77l0,.13h6.12v1.42h-8A4.93,4.93,0,0,1,306.07,275.41Z"/><path class="cls-3" d="M314.63,272.84c0-3.68,1.78-6,4.5-6s4.48,2.24,4.48,6-1.63,6-4.5,6S314.63,276.47,314.63,272.84Zm7.38,0c0-2.84-.95-4.66-2.88-4.66s-2.92,1.79-2.92,4.66,1,4.66,2.92,4.66S322,275.72,322,272.84Z"/><path class="cls-3" d="M330.65,275.78h-5.52v-1.37l5.76-7.38h1.26v7.55H334v1.2h-1.86v2.77h-1.5Zm-2.58-1.2h2.58v-3.87c0-.61.08-1.68.08-1.68h0a17.28,17.28,0,0,1-1,1.49l-2.11,2.69c-.45.56-1.22,1.4-1.22,1.4v0S327.41,274.58,328.07,274.58Z"/><path class="cls-3" d="M335.27,272.84c0-3.68,1.78-6,4.5-6s4.48,2.24,4.48,6-1.63,6-4.5,6S335.27,276.47,335.27,272.84Zm7.38,0c0-2.84-.95-4.66-2.88-4.66s-2.92,1.79-2.92,4.66,1,4.66,2.92,4.66S342.65,275.72,342.65,272.84Z"/><path class="cls-3" d="M345.09,273.67h8V275h-8Z"/><path class="cls-3" d="M354.79,275.41a13.31,13.31,0,0,1,3.14-2.27c1.42-.81,2.25-1.39,2.25-2.7a2.17,2.17,0,0,0-2.36-2.26,2.22,2.22,0,0,0-1.75.7,2.75,2.75,0,0,0-.64,2.05h-1.58a3.86,3.86,0,0,1,1-2.89,4.06,4.06,0,0,1,3-1.14,3.51,3.51,0,0,1,3.84,3.5c0,2.12-1.39,2.85-3.1,3.83-1.19.72-2.74,1.59-3.19,2.77l0,.13h6.12v1.42h-8A4.93,4.93,0,0,1,354.79,275.41Z"/><path class="cls-3" d="M363.35,272.84c0-3.68,1.78-6,4.5-6s4.48,2.24,4.48,6-1.63,6-4.5,6S363.35,276.47,363.35,272.84Zm7.38,0c0-2.84-1-4.66-2.88-4.66s-2.92,1.79-2.92,4.66,1,4.66,2.92,4.66S370.73,275.72,370.73,272.84Z"/><path class="cls-3" d="M373.69,275.49h1.52a2.37,2.37,0,0,0,2.59,2,2.46,2.46,0,0,0,2.59-2.67,2.42,2.42,0,0,0-2.46-2.62,3.07,3.07,0,0,0-2.5,1.05H374l1.23-6.06h6.08v1.34h-5l-.74,3.39h0a3.51,3.51,0,0,1,2.65-1,3.74,3.74,0,0,1,3.74,3.95,3.85,3.85,0,0,1-4.13,4C375.43,278.79,373.83,277.34,373.69,275.49Z"/><path class="cls-3" d="M383.46,272.84c0-3.68,1.78-6,4.5-6s4.48,2.24,4.48,6-1.63,6-4.5,6S383.46,276.47,383.46,272.84Zm7.38,0c0-2.84-.94-4.66-2.88-4.66s-2.91,1.79-2.91,4.66,1,4.66,2.91,4.66S390.84,275.72,390.84,272.84Z"/><path class="cls-3" d="M509.43,243h1.83L515.64,255h-1.79l-1.18-3.47H508L506.76,255h-1.68Zm-1,7.16h3.81l-1.13-3.33c-.4-1.15-.72-2.53-.72-2.53h-.05s-.35,1.43-.74,2.53Z"/><path class="cls-3" d="M516.2,246.36h1.33v-1.19a2.12,2.12,0,0,1,.61-1.71A2.87,2.87,0,0,1,520,243c.23,0,.5,0,.77,0v1.23c-1.41-.1-1.77.13-1.77,1v1.12h1.76v1.17H519V255h-1.49v-7.42H516.2Z"/><path class="cls-3" d="M521.64,246.36H523v-2.71h1.48v2.71h1.77v1.15h-1.77v5.43c0,.62.33.8.88.8a3,3,0,0,0,.75-.12h0v1.25a5.06,5.06,0,0,1-1.2.15c-1.16,0-2-.48-2-1.75v-5.76h-1.34Z"/><path class="cls-3" d="M527.24,250.66a4.2,4.2,0,0,1,4.11-4.51,3.66,3.66,0,0,1,2.95,1.33,5.51,5.51,0,0,1,1.05,3.54h-6.59c.11,1.68,1,3,2.69,3a2.16,2.16,0,0,0,2.27-1.48h1.46a3.59,3.59,0,0,1-3.75,2.69C528.79,255.19,527.24,253.18,527.24,250.66Zm1.55-.72h5c-.08-1.65-.93-2.64-2.42-2.64S529,248.42,528.79,249.94Z"/><path class="cls-3" d="M538.41,247.91h.05a2.85,2.85,0,0,1,2.54-1.66,1.38,1.38,0,0,1,.54.09v1.41h0a2,2,0,0,0-.61-.08,2.46,2.46,0,0,0-2.47,2.61V255h-1.48v-8.59h1.47Z"/><path class="cls-3" d="M505.06,275.41a13.26,13.26,0,0,1,3.13-2.27c1.43-.81,2.26-1.39,2.26-2.7a2.41,2.41,0,0,0-4.11-1.56,2.75,2.75,0,0,0-.64,2.05h-1.59a3.87,3.87,0,0,1,1.06-2.89,4,4,0,0,1,3-1.14,3.51,3.51,0,0,1,3.84,3.5c0,2.12-1.39,2.85-3.11,3.83-1.18.72-2.73,1.59-3.18,2.77l0,.13h6.11v1.42h-8A4.87,4.87,0,0,1,505.06,275.41Z"/><path class="cls-3" d="M513.61,272.84c0-3.68,1.78-6,4.5-6s4.48,2.24,4.48,6-1.63,6-4.49,6S513.61,276.47,513.61,272.84Zm7.38,0c0-2.84-.94-4.66-2.88-4.66s-2.91,1.79-2.91,4.66,1,4.66,2.91,4.66S521,275.72,521,272.84Z"/><path class="cls-3" d="M524,275.49h1.52a2.37,2.37,0,0,0,2.59,2,2.47,2.47,0,0,0,2.6-2.67,2.43,2.43,0,0,0-2.47-2.62,3.1,3.1,0,0,0-2.5,1.05h-1.47l1.23-6.06h6.09v1.34h-5l-.73,3.39h0a3.48,3.48,0,0,1,2.64-1,3.74,3.74,0,0,1,3.75,3.95,3.85,3.85,0,0,1-4.13,4C525.69,278.79,524.09,277.34,524,275.49Z"/><path class="cls-3" d="M533.73,272.84c0-3.68,1.77-6,4.49-6s4.49,2.24,4.49,6-1.64,6-4.5,6S533.73,276.47,533.73,272.84Zm7.38,0c0-2.84-1-4.66-2.89-4.66s-2.91,1.79-2.91,4.66,1,4.66,2.91,4.66S541.11,275.72,541.11,272.84Z"/><path class="cls-3" d="M612.66,243h1.71l4.89,7.46c.57.88,1.32,2.37,1.32,2.37h0s-.11-1.55-.11-2.54V243h1.54V255h-1.7l-4.87-7.46c-.57-.89-1.36-2.35-1.36-2.35h0s.1,1.55.1,2.51V255h-1.54Z"/><path class="cls-3" d="M623.84,250.66a4.21,4.21,0,0,1,4.12-4.51,3.63,3.63,0,0,1,2.94,1.33A5.45,5.45,0,0,1,632,251h-6.59c.11,1.68,1,3,2.68,3a2.17,2.17,0,0,0,2.28-1.48h1.45a3.58,3.58,0,0,1-3.74,2.69C625.4,255.19,623.84,253.18,623.84,250.66Zm1.56-.72h5c-.08-1.65-.93-2.64-2.42-2.64S625.59,248.42,625.4,249.94Z"/><path class="cls-3" d="M632.44,246.36H634l1.51,4.64c.36,1.15.78,2.74.78,2.74h0s.37-1.59.75-2.74l1.54-4.64h1.54L637.08,255h-1.65Z"/><path class="cls-3" d="M640.64,250.66a4.21,4.21,0,0,1,4.12-4.51,3.63,3.63,0,0,1,2.94,1.33,5.45,5.45,0,0,1,1.06,3.54h-6.59c.11,1.68,1,3,2.68,3a2.17,2.17,0,0,0,2.28-1.48h1.45a3.58,3.58,0,0,1-3.74,2.69C642.2,255.19,640.64,253.18,640.64,250.66Zm1.56-.72h5c-.08-1.65-.93-2.64-2.42-2.64S642.39,248.42,642.2,249.94Z"/><path class="cls-3" d="M651.81,247.91h.05a2.87,2.87,0,0,1,2.55-1.66,1.38,1.38,0,0,1,.54.09v1.41h-.05a1.92,1.92,0,0,0-.61-.08,2.45,2.45,0,0,0-2.46,2.61V255h-1.49v-8.59h1.47Z"/><path class="cls-3" d="M524.91,31.05h6.34a4.7,4.7,0,0,1,3.13.92,3.24,3.24,0,0,1,1.13,2.56,2.67,2.67,0,0,1-2.16,2.68v.07A3.21,3.21,0,0,1,536,40.54a3.52,3.52,0,0,1-1.32,2.92,5.12,5.12,0,0,1-3.31,1h-6.5Zm5.9,5.38c1.05,0,1.75-.5,1.75-1.49s-.67-1.51-1.71-1.51H528v3Zm.27,5.6a2.07,2.07,0,0,0,1.43-.48,1.68,1.68,0,0,0,.48-1.23c0-1.17-.84-1.74-2-1.74H528V42Z"/><path class="cls-3" d="M537.22,39.68a4.83,4.83,0,0,1,4.92-5.08,4.72,4.72,0,0,1,3.29,1.22A6.11,6.11,0,0,1,547,40.38h-7c.18,1.44,1,2.3,2.33,2.3a1.77,1.77,0,0,0,1.74-.93h2.74c-.49,1.69-2,3-4.52,3A4.82,4.82,0,0,1,537.22,39.68Zm2.79-.94h4.09c-.09-1.33-.85-2.14-2-2.14C540.84,36.6,540.19,37.42,540,38.74Z"/><path class="cls-3" d="M551.21,36.24h0a3.13,3.13,0,0,1,2.88-1.64c2.11,0,3.33,1.4,3.33,3.54v6.31h-2.81V38.69a1.54,1.54,0,0,0-1.6-1.75,1.9,1.9,0,0,0-1.84,2.1v5.41H548.4V31.05h2.82v3.69C551.22,34.83,551.22,35.61,551.21,36.24Z"/><path class="cls-3" d="M559.25,31.05h2.86v2.47h-2.86Zm0,3.82h2.83v9.58h-2.83Z"/><path class="cls-3" d="M566.7,36.33h.06a3.09,3.09,0,0,1,3-1.73c2.11,0,3.33,1.4,3.33,3.54v6.31h-2.81V38.69a1.55,1.55,0,0,0-1.6-1.75,1.9,1.9,0,0,0-1.84,2.1v5.41H564V34.87h2.73Z"/><path class="cls-3" d="M574.39,39.66c0-2.94,1.66-5.06,4.14-5.06a3.22,3.22,0,0,1,2.85,1.6h0c0-.59-.07-1.4-.07-2.21V31.05h2.83v13.4h-2.72V43h0a3,3,0,0,1-2.92,1.71C576,44.75,574.39,42.83,574.39,39.66Zm7,0c0-1.7-.7-2.92-2.16-2.92s-2,1.19-2,2.9.67,2.84,2,2.84S581.43,41.33,581.43,39.66Z"/><path class="cls-3" d="M589.92,31.05H601v2.61h-4V44.45H593.9V33.66h-4Z"/><path class="cls-3" d="M606.14,43.28h0a3.18,3.18,0,0,1-2.9,1.42c-1.89,0-3.28-1-3.28-2.9,0-2.12,1.68-2.66,3.76-2.92,1.71-.23,2.42-.5,2.42-1.22s-.45-1.15-1.42-1.15-1.61.5-1.68,1.26H600.4c.07-1.64,1.4-3.17,4.25-3.17a5.32,5.32,0,0,1,2.75.57A3.08,3.08,0,0,1,608.86,38V43c0,.76.11,1.17.36,1.33v.17h-2.75A2.79,2.79,0,0,1,606.14,43.28Zm0-2.27V39.77a6.22,6.22,0,0,1-1.66.54c-1.24.27-1.83.57-1.83,1.4s.63,1.13,1.4,1.13A1.89,1.89,0,0,0,606.18,41Z"/><path class="cls-3" d="M613.49,36.58h0a2.75,2.75,0,0,1,2.66-1.87,1.58,1.58,0,0,1,.6.07v2.46h-.07a4,4,0,0,0-.6-.05c-1.53,0-2.54.94-2.54,2.81v4.45h-2.82V34.87h2.72Z"/><path class="cls-3" d="M617.81,44.79h2.75c.18.58.72,1,1.82,1,1.33,0,2-.68,2-1.85v-.2c0-.49,0-.94,0-1.26h-.07a2.8,2.8,0,0,1-2.59,1.4,4.19,4.19,0,0,1-4.18-4.53c0-2.8,1.67-4.72,4-4.72a2.77,2.77,0,0,1,2.76,1.49h0V34.87h2.7V43.6a4,4,0,0,1-1.24,3.13,5.22,5.22,0,0,1-3.46,1.05C619.79,47.78,618.09,46.68,617.81,44.79Zm6.66-5.56c0-1.43-.7-2.49-2.09-2.49s-2,1-2,2.5.78,2.49,2,2.49C623.84,41.73,624.47,40.65,624.47,39.23Z"/><path class="cls-3" d="M628.55,39.68a4.83,4.83,0,0,1,4.92-5.08,4.72,4.72,0,0,1,3.29,1.22,6.11,6.11,0,0,1,1.55,4.56h-7c.18,1.44,1,2.3,2.33,2.3a1.77,1.77,0,0,0,1.74-.93h2.74c-.49,1.69-2,3-4.52,3A4.82,4.82,0,0,1,628.55,39.68Zm2.79-.94h4.09c-.09-1.33-.85-2.14-2-2.14C632.17,36.6,631.52,37.42,631.34,38.74Z"/><path class="cls-3" d="M639,34.87h1.44V31.81h2.77v3.06h1.88v1.8H643.2v4.75c0,.72.4.92,1.07.92.18,0,.46,0,.64,0h.15v2.11a9.85,9.85,0,0,1-1.64.14c-1.78,0-3-.57-3-2.52V36.67H639Z"/><path class="cls-3" d="M255.42,37.8c0-4,2.55-7,6.62-7s6.61,3,6.61,7-2.56,7-6.61,7S255.42,41.8,255.42,37.8Zm10.1,0c0-2.54-1.15-4.5-3.46-4.5s-3.51,2-3.51,4.5,1.19,4.45,3.51,4.45S265.52,40.32,265.52,37.8Z"/><path class="cls-3" d="M272.9,36.33H273a3.09,3.09,0,0,1,2.95-1.73c2.11,0,3.33,1.4,3.33,3.55v6.3h-2.8V38.69a1.55,1.55,0,0,0-1.61-1.75A1.89,1.89,0,0,0,273,39.05v5.4h-2.83V34.87h2.74Z"/><path class="cls-3" d="M280.82,38.45h5.09V40.9h-5.09Z"/><path class="cls-3" d="M285.68,31.05h11.05v2.61h-4V44.45h-3.08V33.66h-4Z"/><path class="cls-3" d="M299.7,36.58h.05a2.75,2.75,0,0,1,2.67-1.87,1.49,1.49,0,0,1,.59.07v2.46h-.07a4,4,0,0,0-.59-.05c-1.53,0-2.54.94-2.54,2.81v4.45H297V34.87h2.72Z"/><path class="cls-3" d="M310,43.28h0a3.18,3.18,0,0,1-2.9,1.42c-1.89,0-3.28-1-3.28-2.9,0-2.12,1.68-2.66,3.77-2.92,1.71-.23,2.41-.5,2.41-1.22s-.45-1.15-1.42-1.15-1.6.5-1.68,1.26h-2.61c.07-1.64,1.41-3.17,4.25-3.17a5.36,5.36,0,0,1,2.76.57A3.07,3.07,0,0,1,312.71,38V43c0,.76.11,1.17.36,1.33v.17h-2.75A2.81,2.81,0,0,1,310,43.28ZM310,41V39.77a6.14,6.14,0,0,1-1.65.54c-1.25.27-1.84.57-1.84,1.4s.63,1.13,1.4,1.13A1.89,1.89,0,0,0,310,41Z"/><path class="cls-3" d="M314.17,39.68a4.82,4.82,0,0,1,5-5.08,4.17,4.17,0,0,1,4.48,3.55h-2.73a1.67,1.67,0,0,0-1.72-1.45c-1.42,0-2.14,1.18-2.14,3s.72,2.93,2.14,2.93A1.73,1.73,0,0,0,321,40.88h2.71c-.09,2.18-1.81,3.87-4.48,3.87A4.85,4.85,0,0,1,314.17,39.68Z"/><path class="cls-3" d="M328.75,40.27l-.95,1v3.19H325V31.05h2.79v4.18c0,1.4-.06,2.47-.09,3.08l3.15-3.44h3.27l-3.42,3.55,3.82,6h-3.28Z"/><path class="cls-3" d="M35.89,31.05h6.33a4.76,4.76,0,0,1,3.14.92,3.27,3.27,0,0,1,1.13,2.56,2.67,2.67,0,0,1-2.16,2.68v.07A3.21,3.21,0,0,1,47,40.54a3.54,3.54,0,0,1-1.31,2.92,5.13,5.13,0,0,1-3.32,1H35.89Zm5.9,5.38c1,0,1.75-.5,1.75-1.49s-.67-1.51-1.71-1.51h-2.9v3Zm.27,5.6a2,2,0,0,0,1.42-.48A1.65,1.65,0,0,0,44,40.32a1.72,1.72,0,0,0-2-1.74H38.93V42Z"/><path class="cls-3" d="M48.11,37.8c0-4,2.55-7,6.62-7s6.61,3,6.61,7-2.56,7-6.61,7S48.11,41.8,48.11,37.8Zm10.1,0c0-2.54-1.15-4.5-3.46-4.5s-3.51,2-3.51,4.5,1.19,4.45,3.51,4.45S58.21,40.32,58.21,37.8Z"/><path class="cls-3" d="M63.05,31.05h3.06V41.82h6.17v2.63H63.05Z"/><path class="cls-3" d="M74,31.05h5.59c3.76,0,6.17,2.68,6.17,6.79s-2.25,6.61-6.35,6.61H74Zm5.17,10.8c2.32,0,3.46-1.45,3.46-4s-1.15-4.2-3.4-4.2H77v8.21Z"/><line class="cls-5" x1="439.56" y1="58.19" x2="439.56" y2="10"/><line class="cls-5" x1="439.56" y1="304.78" x2="439.56" y2="112.19"/><line class="cls-5" x1="144.31" y1="304.78" x2="144.31" y2="10"/><g class="cls-6"><path class="cls-3" d="M420.31,78.81A23.19,23.19,0,0,1,424,75.89a2.19,2.19,0,0,0,1.17-1.84,1.47,1.47,0,0,0-1.57-1.6,1.61,1.61,0,0,0-1.33.53,2.39,2.39,0,0,0-.53,1.66h-2.48a4.42,4.42,0,0,1,.77-2.72,4.2,4.2,0,0,1,3.65-1.58c2.66,0,4.13,1.6,4.13,3.63a3.56,3.56,0,0,1-1.42,2.88c-1.19,1.08-2.92,1.8-3.81,2.9v0h5.22V82h-8.71A4.45,4.45,0,0,1,420.31,78.81Z"/><path class="cls-3" d="M429,76.29c0-3.63,2-6,5-6s5,2.3,5,6-2,6-5,6S429,79.93,429,76.29Zm7.23,0c0-2.33-.65-3.92-2.27-3.92s-2.27,1.59-2.27,3.92.67,3.89,2.27,3.89S436.26,78.63,436.26,76.29Z"/><path class="cls-3" d="M439.72,78.74h2.57a1.85,1.85,0,0,0,2,1.41,1.92,1.92,0,0,0,2-2,1.87,1.87,0,0,0-2-2,2.26,2.26,0,0,0-1.77.75H440.1l1.18-6.35h6.93v2.1h-5l-.52,2.51h0a2.92,2.92,0,0,1,2.35-.93,3.79,3.79,0,0,1,3.89,3.91c0,2.48-1.89,4.08-4.55,4.08S439.89,80.92,439.72,78.74Z"/><path class="cls-3" d="M450,76.29c0-3.63,2-6,5-6s5,2.3,5,6-2,6-5,6S450,79.93,450,76.29Zm7.23,0c0-2.33-.65-3.92-2.27-3.92s-2.27,1.59-2.27,3.92.67,3.89,2.27,3.89S457.25,78.63,457.25,76.29Z"/><path class="cls-3" d="M388.7,91.15h3.94a3,3,0,0,1,2.18.76,2.61,2.61,0,0,1,.76,1.91c0,2.1-1.32,3.46-3.78,3.46h-2.87l-.84,4.3h-1.42Zm.44,5h2.67a2.12,2.12,0,0,0,2.38-2.32c0-.93-.63-1.49-1.75-1.49h-2.55Z"/><path class="cls-3" d="M395.57,99.78c0-1.71,1.21-2.22,3.1-2.45,1.64-.18,2.48-.29,2.45-1.38,0-.69-.53-1.13-1.53-1.13a1.8,1.8,0,0,0-2,1.49h-1.22a3,3,0,0,1,3.23-2.44c1.78,0,2.92.93,2.55,2.79l-.63,3.29c-.11.56,0,.81.66.7h0l-.17.88a1.71,1.71,0,0,1-.65.12,1,1,0,0,1-1.13-1h0a2.75,2.75,0,0,1-2.29,1.11C396.5,101.73,395.57,101,395.57,99.78Zm5-.74.28-1.43a5.32,5.32,0,0,1-2,.56c-1.16.18-1.94.52-1.94,1.52,0,.84.64,1.16,1.33,1.16A2.26,2.26,0,0,0,400.55,99Z"/><path class="cls-3" d="M404.68,94.05h1.24l-.26,1.33h0A2.59,2.59,0,0,1,407.94,94a1.33,1.33,0,0,1,.47.06l-.15,1.24h-.06a1.45,1.45,0,0,0-.51-.08,2.43,2.43,0,0,0-2.38,2.21l-.83,4.18H403.2Z"/><path class="cls-3" d="M409.79,94.05h1.27l-1.47,7.53h-1.28Zm.53-2.9h1.33l-.3,1.52H410Z"/><path class="cls-3" d="M411.38,99.28h1.3c.1,1.11.87,1.48,2,1.48s1.66-.58,1.66-1.27-.5-.94-1.69-1.3c-1.4-.44-2.36-.86-2.38-2.15s1-2.17,2.77-2.17c1.93,0,2.89.91,2.93,2.2h-1.29c0-.81-.56-1.22-1.64-1.22s-1.47.42-1.47,1.05.59.89,1.76,1.25,2.3.91,2.33,2.27-1.19,2.35-3,2.35C412.46,101.77,411.48,100.76,411.38,99.28Z"/><path class="cls-3" d="M427.55,91.15h1.56l1.76,10.43h-1.5l-.43-3.06h-4l-1.63,3.06H421.8Zm-2.06,6.28h3.3l-.41-2.84c-.14-1-.25-2.33-.25-2.33h0s-.49,1.23-1,2.23Z"/><path class="cls-3" d="M431.57,102.11h1.22c.1.67.65,1.15,1.8,1.15a2,2,0,0,0,2.16-1.77l.09-.52s.12-.54.21-.88h0a2.86,2.86,0,0,1-2.25,1.15,2.76,2.76,0,0,1-2.72-3c0-2.52,1.65-4.33,3.64-4.33a2.31,2.31,0,0,1,2.28,1.4l.24-1.23h1.25L438,101.53a3.09,3.09,0,0,1-3.43,2.69C432.69,104.22,431.64,103.33,431.57,102.11Zm6.11-5.25a1.76,1.76,0,0,0-1.94-1.94c-1.55,0-2.41,1.67-2.41,3.35,0,1.18.56,2,1.77,2C436.89,100.23,437.68,98.33,437.68,96.86Z"/><path class="cls-3" d="M441.31,94.05h1.25l-.27,1.33h0A2.58,2.58,0,0,1,444.58,94a1.37,1.37,0,0,1,.47.06l-.15,1.24h-.06a1.48,1.48,0,0,0-.52-.08,2.43,2.43,0,0,0-2.38,2.21l-.82,4.18h-1.28Z"/><path class="cls-3" d="M445,98.52c0-2.48,1.62-4.65,4.11-4.65,2,0,2.93,1.3,2.93,3.1a7.89,7.89,0,0,1-.1,1.15h-5.66c0,.14,0,.28,0,.42,0,1.41.69,2.21,2,2.21a2.09,2.09,0,0,0,2.07-1.33h1.28a3.44,3.44,0,0,1-3.42,2.37A3,3,0,0,1,445,98.52Zm1.44-1.31h4.29c.22-1.36-.31-2.36-1.71-2.36A2.8,2.8,0,0,0,446.48,97.21Z"/><path class="cls-3" d="M453,98.52c0-2.48,1.62-4.65,4.12-4.65,2,0,2.92,1.3,2.92,3.1a9.49,9.49,0,0,1-.09,1.15h-5.66a3,3,0,0,0,0,.42c0,1.41.69,2.21,2,2.21a2.1,2.1,0,0,0,2.08-1.33h1.27a3.43,3.43,0,0,1-3.42,2.37A3,3,0,0,1,453,98.52Zm1.44-1.31h4.29c.22-1.36-.31-2.36-1.71-2.36A2.8,2.8,0,0,0,454.43,97.21Z"/><path class="cls-3" d="M462.19,94.05h1.24l-.22,1.14h0a2.88,2.88,0,0,1,2.31-1.32,1.72,1.72,0,0,1,1.75,1.42h0a3.1,3.1,0,0,1,2.45-1.42,1.94,1.94,0,0,1,1.89,2.57l-1,5.14h-1.27l1-5.13c.17-.94-.19-1.5-1.12-1.5a2.23,2.23,0,0,0-2,1.88l-.94,4.75H465l1-5.12c.18-.94-.19-1.51-1.06-1.51a2.33,2.33,0,0,0-2.08,1.91l-.92,4.72h-1.27Z"/><path class="cls-3" d="M472.69,98.52c0-2.48,1.62-4.65,4.11-4.65,2,0,2.93,1.3,2.93,3.1a7.89,7.89,0,0,1-.1,1.15H474a3,3,0,0,0,0,.42c0,1.41.69,2.21,2,2.21a2.11,2.11,0,0,0,2.08-1.33h1.27a3.44,3.44,0,0,1-3.42,2.37A3,3,0,0,1,472.69,98.52Zm1.44-1.31h4.29c.22-1.36-.31-2.36-1.71-2.36A2.8,2.8,0,0,0,474.13,97.21Z"/><path class="cls-3" d="M481.88,94.05h1.27l-.24,1.12h0a3,3,0,0,1,2.46-1.3,2,2,0,0,1,2.14,2.66l-1,5h-1.27l1-5c.21-1-.22-1.62-1.32-1.62a2.29,2.29,0,0,0-2.31,1.9l-.92,4.74h-1.28Z"/><path class="cls-3" d="M489.12,94.05h1.16l.47-2.38H492l-.47,2.38H493l-.21,1h-1.39l-.93,4.71c-.11.6.14.81.63.81a3,3,0,0,0,.61-.07h0l-.2,1a5.44,5.44,0,0,1-.89.07c-1,0-1.7-.6-1.47-1.71l.95-4.86h-1.16Z"/></g><line class="cls-7" x1="10" y1="229.68" x2="701.1" y2="229.68"/></svg>