<?xml version="1.0" encoding="utf-8"?>
<!-- Generator: Adobe Illustrator 26.0.1, SVG Export Plug-In . SVG Version: 6.00 Build 0)  -->
<svg version="1.1" id="Layer_1" xmlns="http://www.w3.org/2000/svg" xmlns:xlink="http://www.w3.org/1999/xlink" x="0px" y="0px"
	 viewBox="0 0 711.1 370.8" style="enable-background:new 0 0 711.1 370.8;" xml:space="preserve">
<style type="text/css">
	.st0{fill:#00DB7D;}
	.st1{fill:#FC005C;}
	.st2{fill:#FFFFFF;}
	.st3{fill:#D1D1D1;}
	.st4{opacity:0.5;}
	.st5{fill:#505050;}
</style>
<g>
	<rect x="22.9" y="170.1" class="st0" width="75.2" height="59.6"/>
</g>
<g>
	<rect x="485.7" y="209" class="st1" width="75.2" height="20.7"/>
</g>
<g>
	<rect x="595.8" y="190.5" class="st1" width="75.2" height="39.2"/>
</g>
<g>
	<rect x="311.1" y="168.2" class="st2" width="75.2" height="61.5"/>
</g>
<g>
	<rect x="200.1" y="103" class="st2" width="76.1" height="126.7"/>
</g>
<g>
	<g>
		<path class="st2" d="M45,149.4H42v-2.3c1.8-0.1,3.3-0.9,3.6-2.8h2.7v13.8H45V149.4z"/>
		<path class="st2" d="M50.5,154.8h3.2c0.2,0.7,0.8,1.3,1.9,1.3c0.8,0,1.4-0.2,1.8-0.8c0.5-0.6,0.7-1.5,0.8-2.7h0
			c-0.7,0.8-1.6,1.3-3.1,1.3c-2.8,0-5-1.9-5-4.8c0-2.9,2.3-4.9,5.5-4.9c1.7,0,3.2,0.6,4.1,1.5c1.2,1.2,1.8,3,1.8,5.5
			c0,2.1-0.4,4-1.4,5.3c-1,1.3-2.4,1.9-4.4,1.9C52.7,158.5,50.9,157,50.5,154.8z M58.1,149.1c0-1.4-1-2.4-2.4-2.4s-2.4,1-2.4,2.4
			c0,1.4,0.9,2.4,2.4,2.4C57.1,151.5,58.1,150.5,58.1,149.1z"/>
		<path class="st2" d="M62.4,148.2c0-2.4,1.5-4,3.7-4c2.2,0,3.7,1.6,3.7,4c0,2.4-1.5,4-3.7,4C63.9,152.2,62.4,150.6,62.4,148.2z
			 M67.2,148.2c0-1.3-0.4-2.3-1.2-2.3c-0.8,0-1.2,1-1.2,2.3c0,1.3,0.4,2.3,1.2,2.3C66.9,150.5,67.2,149.6,67.2,148.2z M73.4,144.5
			h1.9l-7.4,13.7H66L73.4,144.5z M71.6,154.5c0-2.4,1.6-4,3.7-4c2.2,0,3.7,1.6,3.7,4s-1.5,4-3.7,4C73.2,158.5,71.6,157,71.6,154.5z
			 M76.5,154.5c0-1.3-0.4-2.3-1.2-2.3c-0.9,0-1.2,1-1.2,2.3c0,1.3,0.3,2.3,1.2,2.3C76.1,156.8,76.5,155.9,76.5,154.5z"/>
	</g>
</g>
<g>
	<g>
		<path class="st2" d="M226.4,89.9H220v-3.1l6.3-7.7h3.3v8.2h2v2.6h-2v3h-3.3V89.9z M226.4,87.4v-4.7h0l-3.8,4.7v0H226.4z"/>
		<path class="st2" d="M234.9,84.2H232v-2.3c1.8-0.1,3.3-0.9,3.6-2.8h2.7V93h-3.4V84.2z"/>
		<path class="st2" d="M240,83c0-2.4,1.5-4,3.7-4c2.2,0,3.7,1.6,3.7,4c0,2.4-1.5,4-3.7,4C241.5,87,240,85.4,240,83z M244.8,83
			c0-1.3-0.4-2.3-1.2-2.3c-0.8,0-1.2,1-1.2,2.3c0,1.3,0.4,2.3,1.2,2.3C244.5,85.3,244.8,84.3,244.8,83z M251,79.3h1.9L245.5,93h-1.9
			L251,79.3z M249.2,89.3c0-2.4,1.6-4,3.7-4c2.2,0,3.7,1.6,3.7,4s-1.5,4-3.7,4C250.8,93.3,249.2,91.7,249.2,89.3z M254.1,89.3
			c0-1.3-0.4-2.3-1.2-2.3c-0.9,0-1.2,1-1.2,2.3s0.3,2.3,1.2,2.3C253.7,91.6,254.1,90.6,254.1,89.3z"/>
	</g>
</g>
<g>
	<g>
		<path class="st2" d="M332.3,152.7c1.2-1.1,2.8-2.1,3.9-3c0.6-0.5,0.9-1,0.9-1.7c0-1.1-0.6-1.8-1.8-1.8c-0.6,0-1.1,0.2-1.5,0.6
			c-0.4,0.5-0.6,1.1-0.6,2h-3.2c0-1.6,0.3-2.6,0.9-3.5c0.8-1.1,2.3-1.9,4.4-1.9c3.3,0,5.1,2,5.1,4.4c0,1.9-1.1,3-2.3,3.9
			c-1.2,1-2.7,1.8-3.7,2.9v0h6v2.8h-10.6C329.9,155.2,330.9,153.9,332.3,152.7z"/>
		<path class="st2" d="M341.6,150.7c0-4.4,2.5-7.2,6.1-7.2c3.7,0,6.1,2.8,6.1,7.2c0,4.4-2.4,7.2-6.1,7.2
			C344.1,157.8,341.6,155,341.6,150.7z M350.3,150.7c0-2.7-0.7-4.5-2.6-4.5c-1.8,0-2.6,1.9-2.6,4.5s0.8,4.5,2.6,4.5
			C349.5,155.2,350.3,153.4,350.3,150.7z"/>
		<path class="st2" d="M354.6,147.5c0-2.4,1.5-4,3.7-4c2.2,0,3.7,1.6,3.7,4c0,2.4-1.5,4-3.7,4C356.2,151.5,354.6,149.9,354.6,147.5z
			 M359.5,147.5c0-1.3-0.4-2.3-1.2-2.3s-1.2,1-1.2,2.3c0,1.3,0.4,2.3,1.2,2.3S359.5,148.9,359.5,147.5z M365.6,143.8h1.9l-7.4,13.7
			h-1.9L365.6,143.8z M363.8,153.8c0-2.4,1.6-4,3.7-4c2.2,0,3.7,1.6,3.7,4s-1.5,4-3.7,4C365.4,157.8,363.8,156.3,363.8,153.8z
			 M368.7,153.8c0-1.3-0.4-2.3-1.2-2.3c-0.9,0-1.2,1-1.2,2.3c0,1.3,0.3,2.3,1.2,2.3C368.4,156.1,368.7,155.2,368.7,153.8z"/>
	</g>
</g>
<g>
	<g>
		<path class="st2" d="M515.8,190.6L515.8,190.6l-6.6,0v-2.9h10.1v2.6c-2.4,2.4-4.6,6.4-4.7,11.1h-3.5
			C511.3,196.4,513.9,192.6,515.8,190.6z"/>
		<path class="st2" d="M520.6,191.4c0-2.4,1.5-4,3.7-4c2.2,0,3.7,1.6,3.7,4c0,2.4-1.5,4-3.7,4C522.1,195.4,520.6,193.8,520.6,191.4z
			 M525.4,191.4c0-1.3-0.4-2.3-1.2-2.3c-0.8,0-1.2,1-1.2,2.3c0,1.3,0.4,2.3,1.2,2.3C525.1,193.7,525.4,192.8,525.4,191.4z
			 M531.6,187.7h1.9l-7.4,13.7h-1.9L531.6,187.7z M529.8,197.7c0-2.4,1.6-4,3.7-4c2.2,0,3.7,1.6,3.7,4s-1.5,4-3.7,4
			C531.4,201.7,529.8,200.2,529.8,197.7z M534.7,197.7c0-1.3-0.4-2.3-1.2-2.3c-0.9,0-1.2,1-1.2,2.3c0,1.3,0.3,2.3,1.2,2.3
			C534.3,200,534.7,199.1,534.7,197.7z"/>
	</g>
</g>
<g>
	<g>
		<path class="st2" d="M618,171.8h-2.9v-2.3c1.8-0.1,3.3-0.9,3.6-2.8h2.7v13.8H618V171.8z"/>
		<path class="st2" d="M624.5,179.5c-1-0.9-1.5-2.2-1.5-3.7h3.2c0.1,1.5,0.8,2.5,2.5,2.5c1.4,0,2.1-0.8,2.1-1.9
			c0-1.2-0.8-1.8-2.3-1.8h-0.8v-2.3h0.7c1.3,0,2.1-0.6,2.1-1.6c0-0.9-0.7-1.6-1.8-1.6c-1.5,0-2.1,0.9-2.2,2.1h-3.1
			c0.1-2.7,2-4.6,5.4-4.6c3,0,5.1,1.4,5.1,3.9c0,1.4-0.9,2.3-2.1,2.7v0c1.5,0.5,2.5,1.5,2.5,3.4c0,2.9-2.5,4.3-5.4,4.3
			C626.9,180.9,625.5,180.4,624.5,179.5z"/>
		<path class="st2" d="M635.3,170.6c0-2.4,1.5-4,3.7-4c2.2,0,3.7,1.6,3.7,4c0,2.4-1.5,4-3.7,4C636.8,174.6,635.3,173,635.3,170.6z
			 M640.1,170.6c0-1.3-0.4-2.3-1.2-2.3c-0.8,0-1.2,1-1.2,2.3c0,1.3,0.4,2.3,1.2,2.3C639.8,172.8,640.1,171.9,640.1,170.6z
			 M646.3,166.8h1.9l-7.4,13.7h-1.9L646.3,166.8z M644.5,176.9c0-2.4,1.6-4,3.7-4c2.2,0,3.7,1.6,3.7,4s-1.5,4-3.7,4
			C646.1,180.9,644.5,179.3,644.5,176.9z M649.4,176.9c0-1.3-0.4-2.3-1.2-2.3c-0.9,0-1.2,1-1.2,2.3c0,1.3,0.3,2.3,1.2,2.3
			C649,179.1,649.4,178.2,649.4,176.9z"/>
	</g>
</g>
<g>
	<path class="st2" d="M35.2,243h5.1c1.2,0,2.2,0.3,2.8,1c0.5,0.5,0.8,1.2,0.8,2.1c0,1.3-0.7,2.1-2,2.5v0c1.5,0.3,2.5,1.3,2.5,2.9
		c0,0.9-0.3,1.7-0.9,2.3c-0.7,0.7-1.7,1.1-3,1.1h-5.4V243z M40.1,248.1c1.4,0,2.2-0.7,2.2-1.9c0-1.1-0.8-1.8-2-1.8h-3.5v3.7H40.1z
		 M40.5,253.5c0.8,0,1.4-0.2,1.8-0.6c0.3-0.3,0.5-0.8,0.5-1.3c0-1.4-1-2.1-2.4-2.1h-3.5v4.1H40.5z"/>
	<path class="st2" d="M45.7,250.7c0-2.5,1.6-4.5,4.1-4.5c1.3,0,2.3,0.5,2.9,1.3c0.7,0.8,1.1,2.1,1.1,3.5h-6.6c0.1,1.7,1,3,2.7,3
		c1.2,0,2-0.6,2.3-1.5h1.5c-0.4,1.6-1.8,2.7-3.7,2.7C47.3,255.2,45.7,253.2,45.7,250.7z M47.3,249.9h5c-0.1-1.6-0.9-2.6-2.4-2.6
		C48.3,247.3,47.5,248.4,47.3,249.9z"/>
	<path class="st2" d="M54.7,246.4h1.3v-1.2c0-0.8,0.2-1.4,0.6-1.7c0.4-0.4,1.1-0.5,1.9-0.5c0.2,0,0.5,0,0.8,0v1.2
		c-1.4-0.1-1.8,0.1-1.8,1v1.1h1.8v1.2h-1.8v7.4h-1.5v-7.4h-1.3V246.4z"/>
	<path class="st2" d="M60.2,250.7c0-2.5,1.6-4.5,4.2-4.5c2.6,0,4.2,2,4.2,4.5c0,2.5-1.6,4.5-4.2,4.5
		C61.8,255.2,60.2,253.2,60.2,250.7z M67,250.7c0-1.9-0.9-3.3-2.7-3.3s-2.7,1.5-2.7,3.3c0,1.9,0.9,3.3,2.7,3.3S67,252.5,67,250.7z"
		/>
	<path class="st2" d="M71.6,247.9L71.6,247.9c0.6-1,1.5-1.7,2.6-1.7c0.2,0,0.4,0,0.5,0.1v1.4h0c-0.2-0.1-0.4-0.1-0.6-0.1
		c-1.3,0-2.5,1-2.5,2.6v4.7h-1.5v-8.6h1.5V247.9z"/>
	<path class="st2" d="M75.4,250.7c0-2.5,1.6-4.5,4.1-4.5c1.3,0,2.3,0.5,2.9,1.3c0.7,0.8,1.1,2.1,1.1,3.5h-6.6c0.1,1.7,1,3,2.7,3
		c1.2,0,2-0.6,2.3-1.5h1.5c-0.4,1.6-1.8,2.7-3.7,2.7C77,255.2,75.4,253.2,75.4,250.7z M77,249.9h5c-0.1-1.6-0.9-2.6-2.4-2.6
		C78,247.3,77.2,248.4,77,249.9z"/>
	<path class="st2" d="M40.5,275.4c0.9-1,2-1.6,3.1-2.3c1.4-0.8,2.3-1.4,2.3-2.7c0-1.3-0.9-2.3-2.4-2.3c-0.8,0-1.3,0.2-1.7,0.7
		c-0.4,0.5-0.6,1.1-0.6,2h-1.6c0-1.3,0.4-2.2,1.1-2.9c0.7-0.8,1.8-1.1,3-1.1c2.3,0,3.8,1.5,3.8,3.5c0,2.1-1.4,2.8-3.1,3.8
		c-1.2,0.7-2.7,1.6-3.2,2.8l0,0.1h6.1v1.4h-8C39.4,277.2,39.8,276.2,40.5,275.4z"/>
	<path class="st2" d="M49.1,272.8c0-3.7,1.8-6,4.5-6c2.7,0,4.5,2.2,4.5,6c0,3.6-1.6,6-4.5,6C50.7,278.8,49.1,276.5,49.1,272.8z
		 M56.5,272.8c0-2.8-0.9-4.7-2.9-4.7c-2,0-2.9,1.8-2.9,4.7c0,2.8,1,4.7,2.9,4.7C55.6,277.5,56.5,275.7,56.5,272.8z"/>
	<path class="st2" d="M60.7,277.8c-0.8-0.7-1.3-1.7-1.3-2.9h1.5c0,1.7,1.2,2.7,3,2.7c1.5,0,2.6-0.8,2.6-2.3c0-1.4-1-2.1-2.9-2.1
		h-0.7v-1.2h0.7c1.7,0,2.6-0.7,2.6-1.9c0-1.2-1.1-1.9-2.4-1.9c-1.6,0-2.5,1-2.5,2.5h-1.5c0-2.1,1.5-3.7,4.1-3.7
		c2.1,0,3.8,1.2,3.8,3.1c0,1.3-0.8,2-1.9,2.4v0c1.6,0.4,2.3,1.4,2.3,2.9c0,2.2-1.8,3.5-4.1,3.5C62.6,278.8,61.5,278.5,60.7,277.8z"
		/>
	<path class="st2" d="M69.6,272.8c0-3.7,1.8-6,4.5-6c2.7,0,4.5,2.2,4.5,6c0,3.6-1.6,6-4.5,6C71.2,278.8,69.6,276.5,69.6,272.8z
		 M76.9,272.8c0-2.8-0.9-4.7-2.9-4.7c-2,0-2.9,1.8-2.9,4.7c0,2.8,1,4.7,2.9,4.7C76,277.5,76.9,275.7,76.9,272.8z"/>
</g>
<g>
	<path class="st3" d="M10.4,340.5h1.2c0.1,1.3,1,2.1,2.7,2.1c1.2,0,2.1-0.5,2.1-1.6c0-1.2-1-1.4-2.6-1.8c-1.6-0.3-3-0.8-3-2.5
		c0-1.5,1.3-2.4,3.1-2.4c2.2,0,3.2,1.1,3.4,2.6H16c-0.2-1.1-0.9-1.7-2.2-1.7c-1.2,0-1.9,0.5-1.9,1.4c0,1,1,1.2,2.3,1.5
		c1.7,0.3,3.3,0.8,3.3,2.8c0,1.7-1.4,2.6-3.3,2.6C11.7,343.6,10.5,342.2,10.4,340.5z"/>
	<path class="st3" d="M18.5,340.2c0-1.9,1.2-3.4,3.2-3.4s3.1,1.5,3.1,3.4c0,1.9-1.2,3.4-3.1,3.4S18.5,342.1,18.5,340.2z M23.6,340.2
		c0-1.4-0.7-2.5-2-2.5s-2,1.1-2,2.5c0,1.4,0.7,2.5,2,2.5S23.6,341.6,23.6,340.2z"/>
	<path class="st3" d="M30.1,343.4v-0.9h0c-0.5,0.6-1,1-1.9,1c-1.3,0-2.2-0.8-2.2-2.1V337H27v4.4c0,0.8,0.5,1.3,1.4,1.3
		c1,0,1.6-0.8,1.6-1.8V337h1.1v6.4H30.1z"/>
	<path class="st3" d="M33.8,338.1L33.8,338.1c0.4-0.7,1.1-1.2,1.9-1.2c0.2,0,0.3,0,0.4,0.1v1.1h0c-0.2,0-0.3-0.1-0.5-0.1
		c-1,0-1.8,0.7-1.8,2v3.5h-1.1V337h1.1V338.1z"/>
	<path class="st3" d="M36.7,340.2c0-1.9,1.2-3.4,3.1-3.4c1.5,0,2.6,0.9,2.8,2.3h-1.1c-0.2-0.8-0.7-1.4-1.7-1.4c-1.3,0-2,1.1-2,2.5
		c0,1.4,0.7,2.5,2,2.5c1,0,1.6-0.6,1.7-1.5h1.1c-0.1,1.5-1.2,2.5-2.8,2.5C37.9,343.6,36.7,342.1,36.7,340.2z"/>
	<path class="st3" d="M43.4,340.2c0-1.9,1.2-3.4,3.1-3.4c1,0,1.7,0.4,2.2,1c0.5,0.6,0.8,1.6,0.8,2.7h-4.9c0.1,1.3,0.8,2.2,2,2.2
		c0.9,0,1.5-0.4,1.7-1.1h1.1c-0.3,1.2-1.3,2-2.8,2C44.6,343.6,43.4,342.1,43.4,340.2z M44.6,339.7h3.7c-0.1-1.2-0.7-2-1.8-2
		C45.3,337.7,44.7,338.5,44.6,339.7z"/>
	<path class="st3" d="M50.6,338.3h1.3v1.3h-1.3V338.3z M50.6,342.1h1.3v1.3h-1.3V342.1z"/>
	<path class="st3" d="M56.2,342.3l4.4-5.6c0.4-0.5,1.1-1.2,1.1-1.2v0c0,0-1,0-1.6,0h-3.5v-1H63v1l-4.3,5.6c-0.4,0.5-1.2,1.3-1.2,1.3
		v0c0,0,1,0,1.7,0h4v1.1h-7V342.3z"/>
	<path class="st3" d="M63.8,340.2c0-1.9,1.2-3.4,3.1-3.4c1,0,1.7,0.4,2.2,1c0.5,0.6,0.8,1.6,0.8,2.7H65c0.1,1.3,0.8,2.2,2,2.2
		c0.9,0,1.5-0.4,1.7-1.1h1.1c-0.3,1.2-1.3,2-2.8,2C65,343.6,63.8,342.1,63.8,340.2z M65,339.7h3.7c-0.1-1.2-0.7-2-1.8-2
		C65.8,337.7,65.2,338.5,65,339.7z"/>
	<path class="st3" d="M72.2,338.1L72.2,338.1c0.4-0.7,1.1-1.2,1.9-1.2c0.2,0,0.3,0,0.4,0.1v1.1h0c-0.2,0-0.3-0.1-0.5-0.1
		c-1,0-1.8,0.7-1.8,2v3.5h-1.1V337h1.1V338.1z"/>
	<path class="st3" d="M75.1,340.2c0-1.9,1.2-3.4,3.2-3.4s3.1,1.5,3.1,3.4c0,1.9-1.2,3.4-3.1,3.4S75.1,342.1,75.1,340.2z M80.2,340.2
		c0-1.4-0.7-2.5-2-2.5s-2,1.1-2,2.5c0,1.4,0.7,2.5,2,2.5S80.2,341.6,80.2,340.2z"/>
	<path class="st3" d="M84.3,337.3h-2v-0.8c1.1,0,2.1-0.4,2.2-1.7h0.9v8.6h-1.2V337.3z"/>
	<path class="st3" d="M87.1,339.1c0-2.8,1.3-4.5,3.4-4.5c2.1,0,3.4,1.7,3.4,4.5c0,2.7-1.2,4.5-3.4,4.5
		C88.4,343.6,87.1,341.9,87.1,339.1z M92.7,339.1c0-2.1-0.7-3.5-2.2-3.5c-1.5,0-2.2,1.3-2.2,3.5c0,2.1,0.7,3.5,2.2,3.5
		C92,342.6,92.7,341.3,92.7,339.1z"/>
	<path class="st3" d="M95.2,339.1c0-2.8,1.3-4.5,3.4-4.5c2.1,0,3.4,1.7,3.4,4.5c0,2.7-1.2,4.5-3.4,4.5
		C96.4,343.6,95.2,341.9,95.2,339.1z M100.7,339.1c0-2.1-0.7-3.5-2.2-3.5c-1.5,0-2.2,1.3-2.2,3.5c0,2.1,0.7,3.5,2.2,3.5
		C100,342.6,100.7,341.3,100.7,339.1z"/>
	<path class="st3" d="M112.9,343c-0.6,0.4-1.4,0.6-2.3,0.6c-2.7,0-4.4-2-4.4-4.7c0-2.7,1.7-4.7,4.4-4.7c2.7,0,4.4,2,4.4,4.7
		c0,1.4-0.5,2.6-1.3,3.5l1.3,1l-0.6,0.7L112.9,343z M112,342.3l-1.2-0.9l0.6-0.7l1.4,1.1c0.6-0.6,1-1.6,1-2.7c0-2.1-1.1-3.6-3.1-3.6
		s-3.1,1.5-3.1,3.6c0,2,1.1,3.6,3.1,3.6C111.2,342.6,111.6,342.5,112,342.3z"/>
	<path class="st3" d="M117,341.1c0.6-0.7,1.5-1.2,2.4-1.7c1.1-0.6,1.7-1,1.7-2c0-1-0.7-1.7-1.8-1.7c-0.6,0-1,0.2-1.3,0.5
		c-0.3,0.3-0.5,0.8-0.5,1.5h-1.2c0-1,0.3-1.6,0.8-2.2c0.5-0.6,1.3-0.9,2.3-0.9c1.8,0,2.9,1.1,2.9,2.6c0,1.6-1,2.1-2.3,2.9
		c-0.9,0.5-2.1,1.2-2.4,2.1l0,0.1h4.6v1.1h-6C116.1,342.4,116.5,341.7,117,341.1z"/>
	<path class="st3" d="M127.4,341.1c0.6-0.7,1.5-1.2,2.4-1.7c1.1-0.6,1.7-1,1.7-2c0-1-0.7-1.7-1.8-1.7c-0.6,0-1,0.2-1.3,0.5
		c-0.3,0.3-0.5,0.8-0.5,1.5h-1.2c0-1,0.3-1.6,0.8-2.2c0.5-0.6,1.3-0.9,2.3-0.9c1.8,0,2.9,1.1,2.9,2.6c0,1.6-1,2.1-2.3,2.9
		c-0.9,0.5-2.1,1.2-2.4,2.1l0,0.1h4.6v1.1h-6C126.5,342.4,126.9,341.7,127.4,341.1z"/>
	<path class="st3" d="M133.8,339.1c0-2.8,1.3-4.5,3.4-4.5c2.1,0,3.4,1.7,3.4,4.5c0,2.7-1.2,4.5-3.4,4.5
		C135,343.6,133.8,341.9,133.8,339.1z M139.3,339.1c0-2.1-0.7-3.5-2.2-3.5c-1.5,0-2.2,1.3-2.2,3.5c0,2.1,0.7,3.5,2.2,3.5
		C138.6,342.6,139.3,341.3,139.3,339.1z"/>
	<path class="st3" d="M142.5,341.1c0.6-0.7,1.5-1.2,2.4-1.7c1.1-0.6,1.7-1,1.7-2c0-1-0.7-1.7-1.8-1.7c-0.6,0-1,0.2-1.3,0.5
		c-0.3,0.3-0.5,0.8-0.5,1.5h-1.2c0-1,0.3-1.6,0.8-2.2c0.5-0.6,1.3-0.9,2.3-0.9c1.8,0,2.9,1.1,2.9,2.6c0,1.6-1,2.1-2.3,2.9
		c-0.9,0.5-2.1,1.2-2.4,2.1l0,0.1h4.6v1.1h-6C141.6,342.4,142,341.7,142.5,341.1z"/>
	<path class="st3" d="M149.7,341.1c0.6-0.7,1.5-1.2,2.4-1.7c1.1-0.6,1.7-1,1.7-2c0-1-0.7-1.7-1.8-1.7c-0.6,0-1,0.2-1.3,0.5
		c-0.3,0.3-0.5,0.8-0.5,1.5H149c0-1,0.3-1.6,0.8-2.2c0.5-0.6,1.3-0.9,2.3-0.9c1.8,0,2.9,1.1,2.9,2.6c0,1.6-1,2.1-2.3,2.9
		c-0.9,0.5-2.1,1.2-2.4,2.1l0,0.1h4.6v1.1h-6C148.8,342.4,149.2,341.7,149.7,341.1z"/>
	<path class="st3" d="M159,340.5h1.2c0.1,1.3,1,2.1,2.7,2.1c1.2,0,2.1-0.5,2.1-1.6c0-1.2-1-1.4-2.6-1.8c-1.6-0.3-3-0.8-3-2.5
		c0-1.5,1.3-2.4,3.1-2.4c2.2,0,3.2,1.1,3.4,2.6h-1.2c-0.2-1.1-0.9-1.7-2.2-1.7c-1.2,0-1.9,0.5-1.9,1.4c0,1,1,1.2,2.3,1.5
		c1.7,0.3,3.3,0.8,3.3,2.8c0,1.7-1.4,2.6-3.3,2.6C160.3,343.6,159.1,342.2,159,340.5z"/>
	<path class="st3" d="M171.6,343.4v-0.9h0c-0.5,0.6-1,1-1.9,1c-1.3,0-2.2-0.8-2.2-2.1V337h1.1v4.4c0,0.8,0.5,1.3,1.4,1.3
		c1,0,1.6-0.8,1.6-1.8V337h1.1v6.4H171.6z"/>
	<path class="st3" d="M175.3,338.1L175.3,338.1c0.4-0.7,1.1-1.2,1.9-1.2c0.2,0,0.3,0,0.4,0.1v1.1h0c-0.2,0-0.3-0.1-0.5-0.1
		c-1,0-1.8,0.7-1.8,2v3.5h-1.1V337h1.1V338.1z"/>
	<path class="st3" d="M178.1,337h1.2l1.1,3.5c0.3,0.9,0.6,2.1,0.6,2.1h0c0,0,0.3-1.2,0.6-2.1l1.2-3.5h1.2l-2.3,6.4h-1.2L178.1,337z"
		/>
	<path class="st3" d="M184.2,340.2c0-1.9,1.2-3.4,3.1-3.4c1,0,1.7,0.4,2.2,1c0.5,0.6,0.8,1.6,0.8,2.7h-4.9c0.1,1.3,0.8,2.2,2,2.2
		c0.9,0,1.5-0.4,1.7-1.1h1.1c-0.3,1.2-1.3,2-2.8,2C185.4,343.6,184.2,342.1,184.2,340.2z M185.4,339.7h3.7c-0.1-1.2-0.7-2-1.8-2
		C186.2,337.7,185.5,338.5,185.4,339.7z"/>
	<path class="st3" d="M191.2,345.5v-1h0c0.1,0.1,0.4,0.1,0.7,0.1c0.4,0,0.7-0.2,1-0.8c0,0,0.3-0.7,0.2-0.8l-2.5-6.1h1.2l1.3,3.6
		c0.3,0.7,0.5,1.7,0.5,1.7h0c0,0,0.3-1,0.6-1.7l1.3-3.6h1.2l-2.7,7c-0.5,1.4-1,1.7-1.9,1.7C191.8,345.7,191.4,345.6,191.2,345.5z"/>
	<path class="st3" d="M200.5,340.2c0-1.9,1.2-3.4,3.2-3.4s3.1,1.5,3.1,3.4c0,1.9-1.2,3.4-3.1,3.4S200.5,342.1,200.5,340.2z
		 M205.6,340.2c0-1.4-0.7-2.5-2-2.5s-2,1.1-2,2.5c0,1.4,0.7,2.5,2,2.5S205.6,341.6,205.6,340.2z"/>
	<path class="st3" d="M207.4,337h1v-0.9c0-0.6,0.2-1,0.5-1.3c0.3-0.3,0.8-0.4,1.4-0.4c0.2,0,0.4,0,0.6,0v0.9
		c-1.1-0.1-1.3,0.1-1.3,0.8v0.8h1.3v0.9h-1.3v5.6h-1.1v-5.6h-1V337z"/>
	<path class="st3" d="M214.8,340.5h1.2c0.1,1.3,1,2.1,2.7,2.1c1.2,0,2.1-0.5,2.1-1.6c0-1.2-1-1.4-2.6-1.8c-1.6-0.3-3-0.8-3-2.5
		c0-1.5,1.3-2.4,3.1-2.4c2.2,0,3.2,1.1,3.4,2.6h-1.2c-0.2-1.1-0.9-1.7-2.2-1.7c-1.2,0-1.9,0.5-1.9,1.4c0,1,1,1.2,2.3,1.5
		c1.7,0.3,3.3,0.8,3.3,2.8c0,1.7-1.4,2.6-3.3,2.6C216.1,343.6,214.9,342.2,214.8,340.5z"/>
	<path class="st3" d="M227.4,343.4v-0.9h0c-0.5,0.6-1,1-1.9,1c-1.3,0-2.2-0.8-2.2-2.1V337h1.1v4.4c0,0.8,0.5,1.3,1.4,1.3
		c1,0,1.6-0.8,1.6-1.8V337h1.1v6.4H227.4z"/>
	<path class="st3" d="M230,337h1.1v1h0c0.5-0.7,1.1-1.2,2.1-1.2c1.6,0,2.8,1.3,2.8,3.4c0,2.1-1.1,3.4-2.8,3.4c-0.9,0-1.6-0.4-2-1h0
		c0,0.2,0,0.6,0,1.1v2H230V337z M234.9,340.2c0-1.4-0.6-2.5-1.8-2.5c-1.4,0-2,1.1-2,2.5c0,1.4,0.6,2.4,2,2.4
		C234.3,342.7,234.9,341.6,234.9,340.2z"/>
	<path class="st3" d="M237.2,337h1.1v1h0c0.5-0.7,1.1-1.2,2.1-1.2c1.6,0,2.8,1.3,2.8,3.4c0,2.1-1.1,3.4-2.8,3.4c-0.9,0-1.6-0.4-2-1
		h0c0,0.2,0,0.6,0,1.1v2h-1.1V337z M242,340.2c0-1.4-0.6-2.5-1.8-2.5c-1.4,0-2,1.1-2,2.5c0,1.4,0.6,2.4,2,2.4
		C241.4,342.7,242,341.6,242,340.2z"/>
	<path class="st3" d="M244.4,334.5h1.1v8.9h-1.1V334.5z"/>
	<path class="st3" d="M246.9,345.5v-1h0c0.1,0.1,0.4,0.1,0.7,0.1c0.4,0,0.7-0.2,1-0.8c0,0,0.3-0.7,0.2-0.8l-2.5-6.1h1.2l1.3,3.6
		c0.3,0.7,0.5,1.7,0.5,1.7h0c0,0,0.3-1,0.6-1.7l1.3-3.6h1.2l-2.7,7c-0.5,1.4-1,1.7-1.9,1.7C247.5,345.7,247.1,345.6,246.9,345.5z"/>
	<path class="st3" d="M256.3,339c0-2.6,1.6-4.7,4.2-4.7c1,0,1.9,0.3,2.5,0.8c0.6,0.5,1,1.2,1.1,2.1h-1.2c-0.2-1.1-1.1-1.8-2.4-1.8
		c-1.9,0-3,1.5-3,3.6c0,2.1,1.2,3.6,3,3.6c1.6,0,2.4-1.1,2.5-2.4h1.2c0,0.9-0.4,1.9-1.1,2.5c-0.6,0.6-1.5,0.9-2.7,0.9
		C258,343.6,256.3,341.7,256.3,339z"/>
	<path class="st3" d="M266.6,337.9L266.6,337.9c0.5-0.7,1.2-1.1,2.1-1.1c1.3,0,2.2,0.8,2.2,2.1v4.5h-1.1v-4.4c0-0.8-0.5-1.3-1.4-1.3
		c-1,0-1.7,0.7-1.7,1.7v3.9h-1.1v-8.9h1.1v2.3C266.7,337.2,266.7,337.6,266.6,337.9z"/>
	<path class="st3" d="M272.1,341.7c0-1.5,1.1-1.8,2.8-2c0.9-0.1,1.6-0.3,1.6-0.9c0-0.7-0.5-1.1-1.4-1.1c-1,0-1.5,0.5-1.5,1.2h-1.1
		c0-1.1,0.9-2.1,2.6-2.1c0.6,0,1.2,0.1,1.6,0.3c0.5,0.3,0.9,0.9,0.9,1.8v3c0,0.5,0.1,0.8,0.7,0.7h0v0.8c-0.2,0-0.3,0.1-0.6,0.1
		c-0.7,0-1-0.3-1.1-1h0c-0.4,0.6-1.1,1.1-2.2,1.1C273.1,343.5,272.1,342.9,272.1,341.7z M276.5,341V340c-0.3,0.2-0.9,0.4-1.4,0.5
		c-1.1,0.2-1.8,0.4-1.8,1.3c0,0.8,0.6,1,1.3,1C275.9,342.7,276.5,341.8,276.5,341z"/>
	<path class="st3" d="M279.1,334.5h1.2v1.3h-1.2V334.5z M279.2,337h1.1v6.4h-1.1V337z"/>
	<path class="st3" d="M282.9,337.9L282.9,337.9c0.5-0.6,1.1-1.1,2.1-1.1c1.3,0,2.2,0.8,2.2,2.1v4.5h-1.1v-4.4c0-0.8-0.5-1.3-1.4-1.3
		c-1,0-1.7,0.7-1.7,1.7v3.9h-1.1V337h1.1V337.9z"/>
	<path class="st3" d="M292,334.5h3.8c0.9,0,1.7,0.3,2.1,0.9c0.4,0.5,0.6,1,0.6,1.8c0,1.6-1,2.6-2.9,2.6h-2.4v3.7H292V334.5z
		 M293.2,338.8h2.3c1.2,0,1.8-0.6,1.8-1.6c0-1-0.6-1.6-1.7-1.6h-2.3V338.8z"/>
	<path class="st3" d="M300.7,338.1L300.7,338.1c0.4-0.7,1.1-1.2,1.9-1.2c0.2,0,0.3,0,0.4,0.1v1.1h0c-0.2,0-0.3-0.1-0.5-0.1
		c-1,0-1.8,0.7-1.8,2v3.5h-1.1V337h1.1V338.1z"/>
	<path class="st3" d="M303.6,340.2c0-1.9,1.2-3.4,3.2-3.4c1.9,0,3.1,1.5,3.1,3.4c0,1.9-1.2,3.4-3.1,3.4
		C304.8,343.6,303.6,342.1,303.6,340.2z M308.7,340.2c0-1.4-0.7-2.5-2-2.5s-2,1.1-2,2.5c0,1.4,0.7,2.5,2,2.5
		S308.7,341.6,308.7,340.2z"/>
	<path class="st3" d="M310.5,337h1v-0.9c0-0.6,0.2-1,0.5-1.3c0.3-0.3,0.8-0.4,1.4-0.4c0.2,0,0.4,0,0.6,0v0.9
		c-1.1-0.1-1.3,0.1-1.3,0.8v0.8h1.3v0.9h-1.3v5.6h-1.1v-5.6h-1V337z"/>
	<path class="st3" d="M314.6,340.2c0-1.9,1.2-3.4,3.1-3.4c1,0,1.7,0.4,2.2,1c0.5,0.6,0.8,1.6,0.8,2.7h-4.9c0.1,1.3,0.8,2.2,2,2.2
		c0.9,0,1.5-0.4,1.7-1.1h1.1c-0.3,1.2-1.3,2-2.8,2C315.8,343.6,314.6,342.1,314.6,340.2z M315.8,339.7h3.7c-0.1-1.2-0.7-2-1.8-2
		C316.5,337.7,315.9,338.5,315.8,339.7z"/>
	<path class="st3" d="M321.5,341.5h1.1c0.1,0.9,0.9,1.2,1.8,1.2c1,0,1.5-0.4,1.5-1c0-0.7-0.5-0.9-1.7-1.1c-1.3-0.3-2.4-0.5-2.4-1.9
		c0-1.1,0.9-1.8,2.4-1.8c1.6,0,2.4,0.8,2.6,1.9h-1.1c-0.1-0.7-0.6-1-1.5-1c-0.9,0-1.2,0.4-1.2,0.9c0,0.7,0.6,0.8,1.7,1
		c1.3,0.3,2.4,0.5,2.4,2c0,1.3-1.1,2-2.6,2C322.6,343.6,321.6,342.8,321.5,341.5z"/>
	<path class="st3" d="M327.7,341.5h1.1c0.1,0.9,0.9,1.2,1.8,1.2c1,0,1.5-0.4,1.5-1c0-0.7-0.5-0.9-1.7-1.1c-1.3-0.3-2.4-0.5-2.4-1.9
		c0-1.1,0.9-1.8,2.4-1.8c1.6,0,2.4,0.8,2.6,1.9h-1.1c-0.1-0.7-0.6-1-1.5-1c-0.9,0-1.2,0.4-1.2,0.9c0,0.7,0.6,0.8,1.7,1
		c1.3,0.3,2.4,0.5,2.4,2c0,1.3-1.1,2-2.6,2C328.8,343.6,327.8,342.8,327.7,341.5z"/>
	<path class="st3" d="M334.4,334.5h1.2v1.3h-1.2V334.5z M334.4,337h1.1v6.4h-1.1V337z"/>
	<path class="st3" d="M336.7,340.2c0-1.9,1.2-3.4,3.2-3.4c1.9,0,3.1,1.5,3.1,3.4c0,1.9-1.2,3.4-3.1,3.4
		C337.9,343.6,336.7,342.1,336.7,340.2z M341.9,340.2c0-1.4-0.7-2.5-2-2.5s-2,1.1-2,2.5c0,1.4,0.7,2.5,2,2.5
		S341.9,341.6,341.9,340.2z"/>
	<path class="st3" d="M345.3,337.9L345.3,337.9c0.5-0.6,1.1-1.1,2.1-1.1c1.3,0,2.2,0.8,2.2,2.1v4.5h-1.1v-4.4c0-0.8-0.5-1.3-1.4-1.3
		c-1,0-1.7,0.7-1.7,1.7v3.9h-1.1V337h1.1V337.9z"/>
	<path class="st3" d="M350.8,341.7c0-1.5,1.1-1.8,2.8-2c0.9-0.1,1.6-0.3,1.6-0.9c0-0.7-0.5-1.1-1.4-1.1c-1,0-1.5,0.5-1.5,1.2h-1.1
		c0-1.1,0.9-2.1,2.6-2.1c0.6,0,1.2,0.1,1.6,0.3c0.5,0.3,0.9,0.9,0.9,1.8v3c0,0.5,0.1,0.8,0.7,0.7h0v0.8c-0.2,0-0.3,0.1-0.6,0.1
		c-0.7,0-1-0.3-1.1-1h0c-0.4,0.6-1.1,1.1-2.2,1.1C351.7,343.5,350.8,342.9,350.8,341.7z M355.1,341V340c-0.3,0.2-0.9,0.4-1.4,0.5
		c-1.1,0.2-1.8,0.4-1.8,1.3c0,0.8,0.6,1,1.3,1C354.5,342.7,355.1,341.8,355.1,341z"/>
	<path class="st3" d="M357.8,334.5h1.1v8.9h-1.1V334.5z"/>
	<path class="st3" d="M360.1,341.5h1.1c0.1,0.9,0.9,1.2,1.8,1.2c1,0,1.5-0.4,1.5-1c0-0.7-0.5-0.9-1.7-1.1c-1.3-0.3-2.4-0.5-2.4-1.9
		c0-1.1,0.9-1.8,2.4-1.8c1.6,0,2.4,0.8,2.6,1.9h-1.1c-0.1-0.7-0.6-1-1.5-1c-0.9,0-1.2,0.4-1.2,0.9c0,0.7,0.6,0.8,1.7,1
		c1.3,0.3,2.4,0.5,2.4,2c0,1.3-1.1,2-2.6,2C361.2,343.6,360.2,342.8,360.1,341.5z"/>
	<path class="st3" d="M11.9,353.5L11.9,353.5c0.5-0.6,1.1-1.1,2.1-1.1c1.3,0,2.2,0.8,2.2,2.1v4.5H15v-4.4c0-0.8-0.5-1.3-1.4-1.3
		c-1,0-1.7,0.7-1.7,1.7v3.9h-1.1v-6.4h1.1V353.5z"/>
	<path class="st3" d="M17.6,353.6h5.7v0.9h-5.7V353.6z M17.6,355.8h5.7v0.9h-5.7V355.8z"/>
	<path class="st3" d="M25.5,356.7c0.6-0.7,1.5-1.2,2.4-1.7c1.1-0.6,1.7-1,1.7-2c0-1-0.7-1.7-1.8-1.7c-0.6,0-1,0.2-1.3,0.5
		c-0.3,0.3-0.5,0.8-0.5,1.5h-1.2c0-1,0.3-1.6,0.8-2.2c0.5-0.6,1.3-0.9,2.3-0.9c1.8,0,2.9,1.1,2.9,2.6c0,1.6-1,2.1-2.3,2.9
		c-0.9,0.5-2.1,1.2-2.4,2.1l0,0.1h4.6v1.1h-6C24.6,358,24.9,357.3,25.5,356.7z"/>
	<path class="st3" d="M33.1,358.4c-0.9-0.8-1.2-2-1.2-3.7c0-1.3,0.3-2.4,0.9-3.2c0.6-0.8,1.4-1.2,2.5-1.2c1.7,0,2.6,1.1,2.7,2.2
		h-1.1c-0.1-0.6-0.6-1.2-1.6-1.2c-1.6,0-2.2,1.3-2.3,3.5h0c0.6-0.9,1.3-1.3,2.4-1.3c1.6,0,2.8,1.3,2.8,2.9c0,1.6-1.3,2.9-2.9,2.9
		C34.3,359.2,33.6,358.9,33.1,358.4z M37.1,356.3c0-1.2-0.8-2-1.9-2c-1.2,0-2,0.8-2,2c0,1.2,0.9,2,2,2
		C36.3,358.3,37.1,357.5,37.1,356.3z"/>
	<path class="st3" d="M39.3,356.9h1.2c0.1,0.7,0.7,1.4,1.8,1.4c0.6,0,1.1-0.2,1.4-0.6c0.5-0.5,0.7-1.5,0.8-2.8h0
		c-0.6,0.8-1.3,1.2-2.4,1.2c-1.6,0-2.9-1.3-2.9-2.9c0-1.6,1.3-2.9,3-2.9c0.9,0,1.5,0.3,2,0.7c1,0.7,1.3,2,1.3,3.8
		c0,1.7-0.3,3-1.2,3.7c-0.5,0.5-1.2,0.7-2.1,0.7C40.6,359.2,39.4,358.2,39.3,356.9z M44.3,353.2c0-1.2-0.9-2-2-2c-1.2,0-2,0.8-2,2
		c0,1.2,0.9,2,1.9,2C43.5,355.2,44.3,354.4,44.3,353.2z"/>
</g>
<g>
	<path class="st2" d="M206.5,243h5.1c1.2,0,2.2,0.3,2.8,1c0.5,0.5,0.8,1.2,0.8,2.1c0,1.3-0.7,2.1-2,2.5v0c1.5,0.3,2.5,1.3,2.5,2.9
		c0,0.9-0.3,1.7-0.9,2.3c-0.7,0.7-1.7,1.1-3,1.1h-5.4V243z M211.4,248.1c1.4,0,2.2-0.7,2.2-1.9c0-1.1-0.8-1.8-2-1.8h-3.5v3.7H211.4z
		 M211.7,253.5c0.8,0,1.4-0.2,1.8-0.6c0.3-0.3,0.5-0.8,0.5-1.3c0-1.4-1-2.1-2.4-2.1h-3.5v4.1H211.7z"/>
	<path class="st2" d="M217,250.7c0-2.5,1.6-4.5,4.1-4.5c1.3,0,2.3,0.5,2.9,1.3c0.7,0.8,1.1,2.1,1.1,3.5h-6.6c0.1,1.7,1,3,2.7,3
		c1.2,0,2-0.6,2.3-1.5h1.5c-0.4,1.6-1.8,2.7-3.7,2.7C218.6,255.2,217,253.2,217,250.7z M218.6,249.9h5c-0.1-1.6-0.9-2.6-2.4-2.6
		C219.6,247.3,218.8,248.4,218.6,249.9z"/>
	<path class="st2" d="M226,246.4h1.3v-2.7h1.5v2.7h1.8v1.2h-1.8v5.4c0,0.6,0.3,0.8,0.9,0.8c0.3,0,0.6-0.1,0.8-0.1h0v1.2
		c-0.4,0.1-0.8,0.1-1.2,0.1c-1.2,0-2-0.5-2-1.7v-5.8H226V246.4z"/>
	<path class="st2" d="M231.5,246.4h1.6l1.3,4.8c0.3,1,0.6,2.5,0.6,2.5h0c0,0,0.3-1.4,0.6-2.5l1.3-4.8h1.4l1.3,4.8
		c0.2,0.9,0.5,2.5,0.5,2.5h0c0,0,0.2-1.5,0.6-2.5l1.4-4.8h1.5l-2.8,8.6h-1.5l-1.3-4.7c-0.2-0.8-0.5-2.4-0.5-2.4h0
		c0,0-0.3,1.6-0.5,2.4l-1.3,4.7h-1.5L231.5,246.4z"/>
	<path class="st2" d="M244.2,250.7c0-2.5,1.6-4.5,4.1-4.5c1.3,0,2.3,0.5,2.9,1.3c0.7,0.8,1.1,2.1,1.1,3.5h-6.6c0.1,1.7,1,3,2.7,3
		c1.2,0,2-0.6,2.3-1.5h1.5c-0.4,1.6-1.8,2.7-3.7,2.7C245.8,255.2,244.2,253.2,244.2,250.7z M245.8,249.9h5c-0.1-1.6-0.9-2.6-2.4-2.6
		C246.8,247.3,245.9,248.4,245.8,249.9z"/>
	<path class="st2" d="M253.4,250.7c0-2.5,1.6-4.5,4.1-4.5c1.3,0,2.3,0.5,2.9,1.3c0.7,0.8,1.1,2.1,1.1,3.5H255c0.1,1.7,1,3,2.7,3
		c1.2,0,2-0.6,2.3-1.5h1.5c-0.4,1.6-1.8,2.7-3.7,2.7C255,255.2,253.4,253.2,253.4,250.7z M255,249.9h5c-0.1-1.6-0.9-2.6-2.4-2.6
		C256,247.3,255.2,248.4,255,249.9z"/>
	<path class="st2" d="M264.6,247.6L264.6,247.6c0.7-0.9,1.5-1.4,2.8-1.4c1.8,0,2.9,1,2.9,2.8v6h-1.5v-5.8c0-1.1-0.7-1.7-1.9-1.7
		c-1.3,0-2.3,0.9-2.3,2.3v5.2h-1.5v-8.6h1.5V247.6z"/>
	<path class="st2" d="M195.4,275.4c0.9-1,2-1.6,3.1-2.3c1.4-0.8,2.3-1.4,2.3-2.7c0-1.3-0.9-2.3-2.4-2.3c-0.8,0-1.3,0.2-1.7,0.7
		c-0.4,0.5-0.6,1.1-0.6,2h-1.6c0-1.3,0.4-2.2,1.1-2.9c0.7-0.8,1.8-1.1,3-1.1c2.3,0,3.8,1.5,3.8,3.5c0,2.1-1.4,2.8-3.1,3.8
		c-1.2,0.7-2.7,1.6-3.2,2.8l0,0.1h6.1v1.4h-8C194.2,277.2,194.7,276.2,195.4,275.4z"/>
	<path class="st2" d="M203.9,272.8c0-3.7,1.8-6,4.5-6c2.7,0,4.5,2.2,4.5,6c0,3.6-1.6,6-4.5,6C205.6,278.8,203.9,276.5,203.9,272.8z
		 M211.3,272.8c0-2.8-0.9-4.7-2.9-4.7c-2,0-2.9,1.8-2.9,4.7c0,2.8,1,4.7,2.9,4.7C210.4,277.5,211.3,275.7,211.3,272.8z"/>
	<path class="st2" d="M215.6,277.8c-0.8-0.7-1.3-1.7-1.3-2.9h1.5c0,1.7,1.2,2.7,3,2.7c1.5,0,2.6-0.8,2.6-2.3c0-1.4-1-2.1-2.9-2.1
		h-0.7v-1.2h0.7c1.7,0,2.6-0.7,2.6-1.9c0-1.2-1.1-1.9-2.4-1.9c-1.6,0-2.5,1-2.5,2.5h-1.5c0-2.1,1.5-3.7,4.1-3.7
		c2.1,0,3.8,1.2,3.8,3.1c0,1.3-0.8,2-1.9,2.4v0c1.6,0.4,2.3,1.4,2.3,2.9c0,2.2-1.8,3.5-4.1,3.5C217.5,278.8,216.4,278.5,215.6,277.8
		z"/>
	<path class="st2" d="M224.4,272.8c0-3.7,1.8-6,4.5-6c2.7,0,4.5,2.2,4.5,6c0,3.6-1.6,6-4.5,6C226.1,278.8,224.4,276.5,224.4,272.8z
		 M231.8,272.8c0-2.8-0.9-4.7-2.9-4.7c-2,0-2.9,1.8-2.9,4.7c0,2.8,1,4.7,2.9,4.7C230.9,277.5,231.8,275.7,231.8,272.8z"/>
	<path class="st2" d="M234.2,273.7h8v1.3h-8V273.7z"/>
	<path class="st2" d="M243.9,275.4c0.9-1,2-1.6,3.1-2.3c1.4-0.8,2.3-1.4,2.3-2.7c0-1.3-0.9-2.3-2.4-2.3c-0.8,0-1.3,0.2-1.7,0.7
		c-0.4,0.5-0.6,1.1-0.6,2H243c0-1.3,0.4-2.2,1.1-2.9c0.7-0.8,1.8-1.1,3-1.1c2.3,0,3.8,1.5,3.8,3.5c0,2.1-1.4,2.8-3.1,3.8
		c-1.2,0.7-2.7,1.6-3.2,2.8l0,0.1h6.1v1.4h-8C242.8,277.2,243.3,276.2,243.9,275.4z"/>
	<path class="st2" d="M252.5,272.8c0-3.7,1.8-6,4.5-6c2.7,0,4.5,2.2,4.5,6c0,3.6-1.6,6-4.5,6C254.2,278.8,252.5,276.5,252.5,272.8z
		 M259.9,272.8c0-2.8-0.9-4.7-2.9-4.7c-2,0-2.9,1.8-2.9,4.7c0,2.8,1,4.7,2.9,4.7C259,277.5,259.9,275.7,259.9,272.8z"/>
	<path class="st2" d="M268.5,275.8H263v-1.4l5.8-7.4h1.3v7.6h1.9v1.2H270v2.8h-1.5V275.8z M265.9,274.6h2.6v-3.9
		c0-0.6,0.1-1.7,0.1-1.7h0c0,0-0.5,0.9-1,1.5l-2.1,2.7c-0.4,0.6-1.2,1.4-1.2,1.4v0C264.2,274.6,265.3,274.6,265.9,274.6z"/>
	<path class="st2" d="M273.1,272.8c0-3.7,1.8-6,4.5-6c2.7,0,4.5,2.2,4.5,6c0,3.6-1.6,6-4.5,6C274.8,278.8,273.1,276.5,273.1,272.8z
		 M280.5,272.8c0-2.8-0.9-4.7-2.9-4.7c-2,0-2.9,1.8-2.9,4.7c0,2.8,1,4.7,2.9,4.7C279.6,277.5,280.5,275.7,280.5,272.8z"/>
</g>
<g>
	<path class="st2" d="M317,243h5.1c1.2,0,2.2,0.3,2.8,1c0.5,0.5,0.8,1.2,0.8,2.1c0,1.3-0.7,2.1-2,2.5v0c1.5,0.3,2.5,1.3,2.5,2.9
		c0,0.9-0.3,1.7-0.9,2.3c-0.7,0.7-1.7,1.1-3,1.1H317V243z M321.9,248.1c1.4,0,2.2-0.7,2.2-1.9c0-1.1-0.8-1.8-2-1.8h-3.5v3.7H321.9z
		 M322.2,253.5c0.8,0,1.4-0.2,1.8-0.6c0.3-0.3,0.5-0.8,0.5-1.3c0-1.4-1-2.1-2.4-2.1h-3.5v4.1H322.2z"/>
	<path class="st2" d="M327.5,250.7c0-2.5,1.6-4.5,4.1-4.5c1.3,0,2.3,0.5,2.9,1.3c0.7,0.8,1.1,2.1,1.1,3.5H329c0.1,1.7,1,3,2.7,3
		c1.2,0,2-0.6,2.3-1.5h1.5c-0.4,1.6-1.8,2.7-3.7,2.7C329.1,255.2,327.5,253.2,327.5,250.7z M329.1,249.9h5c-0.1-1.6-0.9-2.6-2.4-2.6
		C330.1,247.3,329.3,248.4,329.1,249.9z"/>
	<path class="st2" d="M336.5,246.4h1.3v-2.7h1.5v2.7h1.8v1.2h-1.8v5.4c0,0.6,0.3,0.8,0.9,0.8c0.3,0,0.6-0.1,0.8-0.1h0v1.2
		c-0.4,0.1-0.8,0.1-1.2,0.1c-1.2,0-2-0.5-2-1.7v-5.8h-1.3V246.4z"/>
	<path class="st2" d="M342,246.4h1.6l1.3,4.8c0.3,1,0.6,2.5,0.6,2.5h0c0,0,0.3-1.4,0.6-2.5l1.3-4.8h1.4l1.3,4.8
		c0.2,0.9,0.5,2.5,0.5,2.5h0c0,0,0.2-1.5,0.6-2.5l1.4-4.8h1.5l-2.8,8.6h-1.5l-1.3-4.7c-0.2-0.8-0.5-2.4-0.5-2.4h0
		c0,0-0.3,1.6-0.5,2.4l-1.3,4.7h-1.5L342,246.4z"/>
	<path class="st2" d="M354.7,250.7c0-2.5,1.6-4.5,4.1-4.5c1.3,0,2.3,0.5,2.9,1.3c0.7,0.8,1.1,2.1,1.1,3.5h-6.6c0.1,1.7,1,3,2.7,3
		c1.2,0,2-0.6,2.3-1.5h1.5c-0.4,1.6-1.8,2.7-3.7,2.7C356.3,255.2,354.7,253.2,354.7,250.7z M356.3,249.9h5c-0.1-1.6-0.9-2.6-2.4-2.6
		C357.3,247.3,356.5,248.4,356.3,249.9z"/>
	<path class="st2" d="M363.9,250.7c0-2.5,1.6-4.5,4.1-4.5c1.3,0,2.3,0.5,2.9,1.3c0.7,0.8,1.1,2.1,1.1,3.5h-6.6c0.1,1.7,1,3,2.7,3
		c1.2,0,2-0.6,2.3-1.5h1.5c-0.4,1.6-1.8,2.7-3.7,2.7C365.5,255.2,363.9,253.2,363.9,250.7z M365.5,249.9h5c-0.1-1.6-0.9-2.6-2.4-2.6
		C366.5,247.3,365.7,248.4,365.5,249.9z"/>
	<path class="st2" d="M375.1,247.6L375.1,247.6c0.7-0.9,1.5-1.4,2.8-1.4c1.8,0,2.9,1,2.9,2.8v6h-1.5v-5.8c0-1.1-0.7-1.7-1.9-1.7
		c-1.3,0-2.3,0.9-2.3,2.3v5.2h-1.5v-8.6h1.5V247.6z"/>
	<path class="st2" d="M306.1,275.4c0.9-1,2-1.6,3.1-2.3c1.4-0.8,2.3-1.4,2.3-2.7c0-1.3-0.9-2.3-2.4-2.3c-0.8,0-1.3,0.2-1.7,0.7
		c-0.4,0.5-0.6,1.1-0.6,2h-1.6c0-1.3,0.4-2.2,1.1-2.9c0.7-0.8,1.8-1.1,3-1.1c2.3,0,3.8,1.5,3.8,3.5c0,2.1-1.4,2.8-3.1,3.8
		c-1.2,0.7-2.7,1.6-3.2,2.8l0,0.1h6.1v1.4h-8C304.9,277.2,305.4,276.2,306.1,275.4z"/>
	<path class="st2" d="M314.6,272.8c0-3.7,1.8-6,4.5-6c2.7,0,4.5,2.2,4.5,6c0,3.6-1.6,6-4.5,6C316.3,278.8,314.6,276.5,314.6,272.8z
		 M322,272.8c0-2.8-0.9-4.7-2.9-4.7c-2,0-2.9,1.8-2.9,4.7c0,2.8,1,4.7,2.9,4.7C321.1,277.5,322,275.7,322,272.8z"/>
	<path class="st2" d="M330.6,275.8h-5.5v-1.4l5.8-7.4h1.3v7.6h1.9v1.2h-1.9v2.8h-1.5V275.8z M328.1,274.6h2.6v-3.9
		c0-0.6,0.1-1.7,0.1-1.7h0c0,0-0.5,0.9-1,1.5l-2.1,2.7c-0.4,0.6-1.2,1.4-1.2,1.4v0C326.4,274.6,327.4,274.6,328.1,274.6z"/>
	<path class="st2" d="M335.3,272.8c0-3.7,1.8-6,4.5-6c2.7,0,4.5,2.2,4.5,6c0,3.6-1.6,6-4.5,6C336.9,278.8,335.3,276.5,335.3,272.8z
		 M342.6,272.8c0-2.8-0.9-4.7-2.9-4.7c-2,0-2.9,1.8-2.9,4.7c0,2.8,1,4.7,2.9,4.7C341.8,277.5,342.6,275.7,342.6,272.8z"/>
	<path class="st2" d="M345.1,273.7h8v1.3h-8V273.7z"/>
	<path class="st2" d="M354.8,275.4c0.9-1,2-1.6,3.1-2.3c1.4-0.8,2.3-1.4,2.3-2.7c0-1.3-0.9-2.3-2.4-2.3c-0.8,0-1.3,0.2-1.7,0.7
		c-0.4,0.5-0.6,1.1-0.6,2h-1.6c0-1.3,0.4-2.2,1.1-2.9c0.7-0.8,1.8-1.1,3-1.1c2.3,0,3.8,1.5,3.8,3.5c0,2.1-1.4,2.8-3.1,3.8
		c-1.2,0.7-2.7,1.6-3.2,2.8l0,0.1h6.1v1.4h-8C353.6,277.2,354.1,276.2,354.8,275.4z"/>
	<path class="st2" d="M363.3,272.8c0-3.7,1.8-6,4.5-6c2.7,0,4.5,2.2,4.5,6c0,3.6-1.6,6-4.5,6C365,278.8,363.3,276.5,363.3,272.8z
		 M370.7,272.8c0-2.8-0.9-4.7-2.9-4.7c-2,0-2.9,1.8-2.9,4.7c0,2.8,1,4.7,2.9,4.7C369.8,277.5,370.7,275.7,370.7,272.8z"/>
	<path class="st2" d="M373.7,275.5h1.5c0.2,1.2,1,2,2.6,2c1.6,0,2.6-1.1,2.6-2.7c0-1.6-1.1-2.6-2.5-2.6c-1.3,0-2.1,0.5-2.5,1.1H374
		l1.2-6.1h6.1v1.3h-5l-0.7,3.4h0c0.6-0.7,1.5-1,2.6-1c1.9,0,3.7,1.4,3.7,4c0,2.4-1.8,4-4.1,4C375.4,278.8,373.8,277.3,373.7,275.5z"
		/>
	<path class="st2" d="M383.5,272.8c0-3.7,1.8-6,4.5-6c2.7,0,4.5,2.2,4.5,6c0,3.6-1.6,6-4.5,6C385.1,278.8,383.5,276.5,383.5,272.8z
		 M390.8,272.8c0-2.8-0.9-4.7-2.9-4.7c-2,0-2.9,1.8-2.9,4.7c0,2.8,1,4.7,2.9,4.7C389.9,277.5,390.8,275.7,390.8,272.8z"/>
</g>
<g>
	<path class="st2" d="M509.4,243h1.8l4.4,11.9h-1.8l-1.2-3.5H508l-1.2,3.5h-1.7L509.4,243z M508.4,250.2h3.8l-1.1-3.3
		c-0.4-1.2-0.7-2.5-0.7-2.5h0c0,0-0.4,1.4-0.7,2.5L508.4,250.2z"/>
	<path class="st2" d="M516.2,246.4h1.3v-1.2c0-0.8,0.2-1.4,0.6-1.7c0.4-0.4,1.1-0.5,1.9-0.5c0.2,0,0.5,0,0.8,0v1.2
		c-1.4-0.1-1.8,0.1-1.8,1v1.1h1.8v1.2H519v7.4h-1.5v-7.4h-1.3V246.4z"/>
	<path class="st2" d="M521.6,246.4h1.3v-2.7h1.5v2.7h1.8v1.2h-1.8v5.4c0,0.6,0.3,0.8,0.9,0.8c0.3,0,0.6-0.1,0.8-0.1h0v1.2
		c-0.4,0.1-0.8,0.1-1.2,0.1c-1.2,0-2-0.5-2-1.7v-5.8h-1.3V246.4z"/>
	<path class="st2" d="M527.2,250.7c0-2.5,1.6-4.5,4.1-4.5c1.3,0,2.3,0.5,2.9,1.3c0.7,0.8,1.1,2.1,1.1,3.5h-6.6c0.1,1.7,1,3,2.7,3
		c1.2,0,2-0.6,2.3-1.5h1.5c-0.4,1.6-1.8,2.7-3.7,2.7C528.8,255.2,527.2,253.2,527.2,250.7z M528.8,249.9h5c-0.1-1.6-0.9-2.6-2.4-2.6
		C529.8,247.3,529,248.4,528.8,249.9z"/>
	<path class="st2" d="M538.4,247.9L538.4,247.9c0.6-1,1.5-1.7,2.6-1.7c0.2,0,0.4,0,0.5,0.1v1.4h0c-0.2-0.1-0.4-0.1-0.6-0.1
		c-1.3,0-2.5,1-2.5,2.6v4.7h-1.5v-8.6h1.5V247.9z"/>
	<path class="st2" d="M505.1,275.4c0.9-1,2-1.6,3.1-2.3c1.4-0.8,2.3-1.4,2.3-2.7c0-1.3-0.9-2.3-2.4-2.3c-0.8,0-1.3,0.2-1.7,0.7
		c-0.4,0.5-0.6,1.1-0.6,2h-1.6c0-1.3,0.4-2.2,1.1-2.9c0.7-0.8,1.8-1.1,3-1.1c2.3,0,3.8,1.5,3.8,3.5c0,2.1-1.4,2.8-3.1,3.8
		c-1.2,0.7-2.7,1.6-3.2,2.8l0,0.1h6.1v1.4h-8C503.9,277.2,504.4,276.2,505.1,275.4z"/>
	<path class="st2" d="M513.6,272.8c0-3.7,1.8-6,4.5-6c2.7,0,4.5,2.2,4.5,6c0,3.6-1.6,6-4.5,6C515.3,278.8,513.6,276.5,513.6,272.8z
		 M521,272.8c0-2.8-0.9-4.7-2.9-4.7c-2,0-2.9,1.8-2.9,4.7c0,2.8,1,4.7,2.9,4.7C520.1,277.5,521,275.7,521,272.8z"/>
	<path class="st2" d="M524,275.5h1.5c0.2,1.2,1,2,2.6,2c1.6,0,2.6-1.1,2.6-2.7c0-1.6-1.1-2.6-2.5-2.6c-1.3,0-2.1,0.5-2.5,1.1h-1.5
		l1.2-6.1h6.1v1.3h-5l-0.7,3.4h0c0.6-0.7,1.5-1,2.6-1c1.9,0,3.7,1.4,3.7,4c0,2.4-1.8,4-4.1,4C525.7,278.8,524.1,277.3,524,275.5z"/>
	<path class="st2" d="M533.7,272.8c0-3.7,1.8-6,4.5-6c2.7,0,4.5,2.2,4.5,6c0,3.6-1.6,6-4.5,6C535.4,278.8,533.7,276.5,533.7,272.8z
		 M541.1,272.8c0-2.8-0.9-4.7-2.9-4.7c-2,0-2.9,1.8-2.9,4.7c0,2.8,1,4.7,2.9,4.7C540.2,277.5,541.1,275.7,541.1,272.8z"/>
</g>
<g>
	<path class="st2" d="M612.7,243h1.7l4.9,7.5c0.6,0.9,1.3,2.4,1.3,2.4h0c0,0-0.1-1.6-0.1-2.5V243h1.5V255h-1.7l-4.9-7.5
		c-0.6-0.9-1.4-2.4-1.4-2.4h0c0,0,0.1,1.6,0.1,2.5v7.3h-1.5V243z"/>
	<path class="st2" d="M623.8,250.7c0-2.5,1.6-4.5,4.1-4.5c1.3,0,2.3,0.5,2.9,1.3c0.7,0.8,1.1,2.1,1.1,3.5h-6.6c0.1,1.7,1,3,2.7,3
		c1.2,0,2-0.6,2.3-1.5h1.5c-0.4,1.6-1.8,2.7-3.7,2.7C625.4,255.2,623.8,253.2,623.8,250.7z M625.4,249.9h5c-0.1-1.6-0.9-2.6-2.4-2.6
		C626.4,247.3,625.6,248.4,625.4,249.9z"/>
	<path class="st2" d="M632.4,246.4h1.6l1.5,4.6c0.4,1.2,0.8,2.7,0.8,2.7h0c0,0,0.4-1.6,0.8-2.7l1.5-4.6h1.5l-3.1,8.6h-1.6
		L632.4,246.4z"/>
	<path class="st2" d="M640.6,250.7c0-2.5,1.6-4.5,4.1-4.5c1.3,0,2.3,0.5,2.9,1.3c0.7,0.8,1.1,2.1,1.1,3.5h-6.6c0.1,1.7,1,3,2.7,3
		c1.2,0,2-0.6,2.3-1.5h1.5c-0.4,1.6-1.8,2.7-3.7,2.7C642.2,255.2,640.6,253.2,640.6,250.7z M642.2,249.9h5c-0.1-1.6-0.9-2.6-2.4-2.6
		C643.2,247.3,642.4,248.4,642.2,249.9z"/>
	<path class="st2" d="M651.8,247.9L651.8,247.9c0.6-1,1.5-1.7,2.6-1.7c0.2,0,0.4,0,0.5,0.1v1.4h0c-0.2-0.1-0.4-0.1-0.6-0.1
		c-1.3,0-2.5,1-2.5,2.6v4.7h-1.5v-8.6h1.5V247.9z"/>
</g>
<g>
	<path class="st2" d="M524.9,31.1h6.3c1.4,0,2.4,0.3,3.1,0.9c0.7,0.6,1.1,1.5,1.1,2.6c0,1.3-0.7,2.2-2.2,2.7v0.1
		c1.7,0.4,2.7,1.6,2.7,3.3c0,1.3-0.5,2.3-1.3,2.9c-0.8,0.6-1.9,1-3.3,1h-6.5V31.1z M530.8,36.4c1,0,1.7-0.5,1.7-1.5
		c0-1-0.7-1.5-1.7-1.5H528v3H530.8z M531.1,42c0.6,0,1.1-0.2,1.4-0.5c0.3-0.3,0.5-0.7,0.5-1.2c0-1.2-0.8-1.7-2-1.7H528V42H531.1z"/>
	<path class="st2" d="M537.2,39.7c0-2.9,2-5.1,4.9-5.1c1.4,0,2.4,0.5,3.3,1.2c1.1,1,1.6,2.7,1.5,4.6h-7c0.2,1.4,1,2.3,2.3,2.3
		c0.9,0,1.4-0.3,1.7-0.9h2.7c-0.5,1.7-2.1,3-4.5,3C539.1,44.7,537.2,42.5,537.2,39.7z M540,38.7h4.1c-0.1-1.3-0.8-2.1-2-2.1
		C540.8,36.6,540.2,37.4,540,38.7z"/>
	<path class="st2" d="M551.2,36.2L551.2,36.2c0.6-1,1.6-1.6,2.9-1.6c2.1,0,3.3,1.4,3.3,3.5v6.3h-2.8v-5.8c0-1-0.6-1.7-1.6-1.7
		c-1.1,0-1.8,0.9-1.8,2.1v5.4h-2.8V31.1h2.8v3.7C551.2,34.8,551.2,35.6,551.2,36.2z"/>
	<path class="st2" d="M559.3,31.1h2.9v2.5h-2.9V31.1z M559.3,34.9h2.8v9.6h-2.8V34.9z"/>
	<path class="st2" d="M566.7,36.3L566.7,36.3c0.6-1.2,1.7-1.7,3-1.7c2.1,0,3.3,1.4,3.3,3.5v6.3h-2.8v-5.8c0-1-0.6-1.7-1.6-1.7
		c-1.1,0-1.8,0.9-1.8,2.1v5.4H564v-9.6h2.7V36.3z"/>
	<path class="st2" d="M574.4,39.7c0-2.9,1.7-5.1,4.1-5.1c1.3,0,2.2,0.6,2.8,1.6h0c0-0.6-0.1-1.4-0.1-2.2v-2.9h2.8v13.4h-2.7V43h0
		c-0.6,1.2-1.6,1.7-2.9,1.7C576,44.8,574.4,42.8,574.4,39.7z M581.4,39.7c0-1.7-0.7-2.9-2.2-2.9c-1.3,0-2,1.2-2,2.9
		c0,1.7,0.7,2.8,2,2.8C580.6,42.5,581.4,41.3,581.4,39.7z"/>
	<path class="st2" d="M589.9,31.1H601v2.6h-4v10.8h-3.1V33.7h-4V31.1z"/>
	<path class="st2" d="M606.1,43.3L606.1,43.3c-0.7,0.9-1.5,1.4-2.9,1.4c-1.9,0-3.3-1-3.3-2.9c0-2.1,1.7-2.7,3.8-2.9
		c1.7-0.2,2.4-0.5,2.4-1.2c0-0.7-0.5-1.2-1.4-1.2c-1.1,0-1.6,0.5-1.7,1.3h-2.6c0.1-1.6,1.4-3.2,4.2-3.2c1.2,0,2.1,0.2,2.8,0.6
		c1,0.6,1.5,1.6,1.5,2.9V43c0,0.8,0.1,1.2,0.4,1.3v0.2h-2.8C606.3,44.2,606.2,43.8,606.1,43.3z M606.2,41v-1.2
		c-0.4,0.3-1,0.4-1.7,0.5c-1.2,0.3-1.8,0.6-1.8,1.4s0.6,1.1,1.4,1.1C605.4,42.8,606.2,42.1,606.2,41z"/>
	<path class="st2" d="M613.5,36.6L613.5,36.6c0.7-1.3,1.5-1.9,2.7-1.9c0.3,0,0.5,0,0.6,0.1v2.5h-0.1c-0.2,0-0.4-0.1-0.6-0.1
		c-1.5,0-2.5,0.9-2.5,2.8v4.4h-2.8v-9.6h2.7V36.6z"/>
	<path class="st2" d="M617.8,44.8h2.8c0.2,0.6,0.7,1,1.8,1c1.3,0,2-0.7,2-1.9v-0.2c0-0.5,0-0.9,0.1-1.3h-0.1
		c-0.6,0.9-1.4,1.4-2.6,1.4c-2.2,0-4.2-1.6-4.2-4.5c0-2.8,1.7-4.7,4-4.7c1.3,0,2.2,0.4,2.8,1.5h0v-1.2h2.7v8.7
		c0,1.4-0.5,2.4-1.2,3.1c-0.8,0.7-2.1,1-3.5,1C619.8,47.8,618.1,46.7,617.8,44.8z M624.5,39.2c0-1.4-0.7-2.5-2.1-2.5
		c-1.2,0-2,1-2,2.5c0,1.5,0.8,2.5,2,2.5C623.8,41.7,624.5,40.6,624.5,39.2z"/>
	<path class="st2" d="M628.5,39.7c0-2.9,2-5.1,4.9-5.1c1.4,0,2.4,0.5,3.3,1.2c1.1,1,1.6,2.7,1.5,4.6h-7c0.2,1.4,1,2.3,2.3,2.3
		c0.9,0,1.4-0.3,1.7-0.9h2.7c-0.5,1.7-2.1,3-4.5,3C630.5,44.7,628.5,42.5,628.5,39.7z M631.3,38.7h4.1c-0.1-1.3-0.8-2.1-2-2.1
		C632.2,36.6,631.5,37.4,631.3,38.7z"/>
	<path class="st2" d="M639,34.9h1.4v-3.1h2.8v3.1h1.9v1.8h-1.9v4.8c0,0.7,0.4,0.9,1.1,0.9c0.2,0,0.5,0,0.6,0h0.1v2.1
		c-0.3,0.1-0.9,0.1-1.6,0.1c-1.8,0-3-0.6-3-2.5v-5.4H639V34.9z"/>
</g>
<g>
	<path class="st2" d="M255.4,37.8c0-4,2.6-7,6.6-7c4.1,0,6.6,3,6.6,7c0,4-2.6,7-6.6,7C258,44.8,255.4,41.8,255.4,37.8z M265.5,37.8
		c0-2.5-1.2-4.5-3.5-4.5c-2.3,0-3.5,2-3.5,4.5c0,2.5,1.2,4.4,3.5,4.4C264.4,42.3,265.5,40.3,265.5,37.8z"/>
	<path class="st2" d="M272.9,36.3L272.9,36.3c0.6-1.2,1.7-1.7,3-1.7c2.1,0,3.3,1.4,3.3,3.5v6.3h-2.8v-5.8c0-1-0.6-1.7-1.6-1.7
		c-1.1,0-1.8,0.9-1.8,2.1v5.4h-2.8v-9.6h2.7V36.3z"/>
	<path class="st2" d="M280.8,38.5h5.1v2.4h-5.1V38.5z"/>
	<path class="st2" d="M285.7,31.1h11.1v2.6h-4v10.8h-3.1V33.7h-4V31.1z"/>
	<path class="st2" d="M299.7,36.6L299.7,36.6c0.7-1.3,1.5-1.9,2.7-1.9c0.3,0,0.5,0,0.6,0.1v2.5h-0.1c-0.2,0-0.4-0.1-0.6-0.1
		c-1.5,0-2.5,0.9-2.5,2.8v4.4H297v-9.6h2.7V36.6z"/>
	<path class="st2" d="M310,43.3L310,43.3c-0.7,0.9-1.5,1.4-2.9,1.4c-1.9,0-3.3-1-3.3-2.9c0-2.1,1.7-2.7,3.8-2.9
		c1.7-0.2,2.4-0.5,2.4-1.2c0-0.7-0.5-1.2-1.4-1.2c-1.1,0-1.6,0.5-1.7,1.3h-2.6c0.1-1.6,1.4-3.2,4.2-3.2c1.2,0,2.1,0.2,2.8,0.6
		c1,0.6,1.5,1.6,1.5,2.9V43c0,0.8,0.1,1.2,0.4,1.3v0.2h-2.8C310.2,44.2,310,43.8,310,43.3z M310,41v-1.2c-0.4,0.3-1,0.4-1.7,0.5
		c-1.2,0.3-1.8,0.6-1.8,1.4s0.6,1.1,1.4,1.1C309.2,42.8,310,42.1,310,41z"/>
	<path class="st2" d="M314.2,39.7c0-2.9,2-5.1,5-5.1c2.6,0,4.1,1.5,4.5,3.5h-2.7c-0.2-0.9-0.8-1.4-1.7-1.4c-1.4,0-2.1,1.2-2.1,3
		c0,1.7,0.7,2.9,2.1,2.9c1,0,1.7-0.6,1.8-1.7h2.7c-0.1,2.2-1.8,3.9-4.5,3.9C316.1,44.8,314.2,42.5,314.2,39.7z"/>
	<path class="st2" d="M328.8,40.3l-1,1v3.2H325V31.1h2.8v4.2c0,1.4-0.1,2.5-0.1,3.1l3.2-3.4h3.3l-3.4,3.5l3.8,6h-3.3L328.8,40.3z"/>
</g>
<g>
	<path class="st2" d="M11.4,31.1h6.3c1.4,0,2.4,0.3,3.1,0.9c0.7,0.6,1.1,1.5,1.1,2.6c0,1.3-0.7,2.2-2.2,2.7v0.1
		c1.7,0.4,2.7,1.6,2.7,3.3c0,1.3-0.5,2.2-1.3,2.9c-0.8,0.6-1.9,1-3.3,1h-6.5V31.1z M17.3,36.4c1,0,1.7-0.5,1.7-1.5
		c0-1-0.7-1.5-1.7-1.5h-2.9v3H17.3z M17.5,42c0.6,0,1.1-0.2,1.4-0.5c0.3-0.3,0.5-0.7,0.5-1.2c0-1.2-0.8-1.7-2-1.7h-3.1V42H17.5z"/>
	<path class="st2" d="M23.7,39.7c0-2.9,2-5.1,5.1-5.1c3,0,5,2.2,5,5.1c0,2.9-2,5.1-5,5.1C25.7,44.8,23.7,42.5,23.7,39.7z M30.9,39.7
		c0-1.8-0.8-3.1-2.2-3.1c-1.4,0-2.2,1.2-2.2,3.1c0,1.8,0.8,3,2.2,3C30.1,42.7,30.9,41.5,30.9,39.7z"/>
	<path class="st2" d="M35.3,31.1h2.8v13.4h-2.8V31.1z"/>
	<path class="st2" d="M39.5,39.7c0-2.9,1.7-5.1,4.1-5.1c1.3,0,2.2,0.6,2.8,1.6h0c0-0.6-0.1-1.4-0.1-2.2v-2.9h2.8v13.4h-2.7V43h0
		c-0.6,1.2-1.6,1.7-2.9,1.7C41.2,44.8,39.5,42.8,39.5,39.7z M46.6,39.7c0-1.7-0.7-2.9-2.2-2.9c-1.3,0-2,1.2-2,2.9
		c0,1.7,0.7,2.8,2,2.8C45.8,42.5,46.6,41.3,46.6,39.7z"/>
	<path class="st2" d="M55.1,31.1h11.1v2.6h-4v10.8h-3.1V33.7h-4V31.1z"/>
	<path class="st2" d="M71.3,43.3L71.3,43.3c-0.7,0.9-1.5,1.4-2.9,1.4c-1.9,0-3.3-1-3.3-2.9c0-2.1,1.7-2.7,3.8-2.9
		c1.7-0.2,2.4-0.5,2.4-1.2c0-0.7-0.5-1.2-1.4-1.2c-1.1,0-1.6,0.5-1.7,1.3h-2.6c0.1-1.6,1.4-3.2,4.2-3.2c1.2,0,2.1,0.2,2.8,0.6
		c1,0.6,1.5,1.6,1.5,2.9V43c0,0.8,0.1,1.2,0.4,1.3v0.2h-2.8C71.5,44.2,71.3,43.8,71.3,43.3z M71.3,41v-1.2c-0.4,0.3-1,0.4-1.7,0.5
		c-1.2,0.3-1.8,0.6-1.8,1.4s0.6,1.1,1.4,1.1C70.5,42.8,71.3,42.1,71.3,41z"/>
	<path class="st2" d="M78.6,36.6L78.6,36.6c0.7-1.3,1.5-1.9,2.7-1.9c0.3,0,0.5,0,0.6,0.1v2.5h-0.1c-0.2,0-0.4-0.1-0.6-0.1
		c-1.5,0-2.5,0.9-2.5,2.8v4.4h-2.8v-9.6h2.7V36.6z"/>
	<path class="st2" d="M83,44.8h2.8c0.2,0.6,0.7,1,1.8,1c1.3,0,2-0.7,2-1.9v-0.2c0-0.5,0-0.9,0.1-1.3h-0.1c-0.6,0.9-1.4,1.4-2.6,1.4
		c-2.2,0-4.2-1.6-4.2-4.5c0-2.8,1.7-4.7,4-4.7c1.3,0,2.2,0.4,2.8,1.5h0v-1.2h2.7v8.7c0,1.4-0.5,2.4-1.2,3.1c-0.8,0.7-2.1,1-3.5,1
		C84.9,47.8,83.2,46.7,83,44.8z M89.6,39.2c0-1.4-0.7-2.5-2.1-2.5c-1.2,0-2,1-2,2.5c0,1.5,0.8,2.5,2,2.5
		C89,41.7,89.6,40.6,89.6,39.2z"/>
	<path class="st2" d="M93.7,39.7c0-2.9,2-5.1,4.9-5.1c1.4,0,2.4,0.5,3.3,1.2c1.1,1,1.6,2.7,1.5,4.6h-7c0.2,1.4,1,2.3,2.3,2.3
		c0.9,0,1.4-0.3,1.7-0.9h2.7c-0.5,1.7-2.1,3-4.5,3C95.6,44.7,93.7,42.5,93.7,39.7z M96.5,38.7h4.1c-0.1-1.3-0.8-2.1-2-2.1
		C97.3,36.6,96.7,37.4,96.5,38.7z"/>
	<path class="st2" d="M104.1,34.9h1.4v-3.1h2.8v3.1h1.9v1.8h-1.9v4.8c0,0.7,0.4,0.9,1.1,0.9c0.2,0,0.5,0,0.6,0h0.1v2.1
		c-0.3,0.1-0.9,0.1-1.6,0.1c-1.8,0-3-0.6-3-2.5v-5.4h-1.4V34.9z"/>
	<path class="st2" d="M28.6,65.8h3.1c0.2,1.5,1.1,2.1,2.8,2.1c1.2,0,2.3-0.5,2.3-1.6c0-1.2-1.1-1.4-3.1-1.9c-2.6-0.6-4.7-1.2-4.7-4
		c0-2.8,2.3-4,5.2-4c3,0,5,1.4,5.2,4h-3c-0.2-1-1-1.7-2.3-1.7c-1.3,0-2.1,0.5-2.1,1.4c0,1,1.2,1.3,3.3,1.7c2.4,0.5,4.6,1.3,4.6,4.2
		c0,2.8-2.3,4.3-5.4,4.3C30.9,70.4,28.6,68.7,28.6,65.8z"/>
	<path class="st2" d="M41.1,65.3c0-2.9,2-5.1,4.9-5.1c1.4,0,2.4,0.5,3.3,1.2c1.1,1,1.6,2.7,1.5,4.6h-7c0.2,1.4,1,2.3,2.3,2.3
		c0.9,0,1.4-0.3,1.7-0.9h2.7c-0.5,1.7-2.1,3-4.5,3C43,70.3,41.1,68.1,41.1,65.3z M43.9,64.3H48c-0.1-1.3-0.8-2.1-2-2.1
		C44.7,62.2,44.1,63,43.9,64.3z"/>
	<path class="st2" d="M51.5,60.5H53v-3.1h2.8v3.1h1.9v1.8h-1.9V67c0,0.7,0.4,0.9,1.1,0.9c0.2,0,0.5,0,0.6,0h0.1V70
		c-0.3,0.1-0.9,0.1-1.6,0.1c-1.8,0-3-0.6-3-2.5v-5.4h-1.4V60.5z"/>
	<path class="st2" d="M58.5,60.5h1.4v-3.1h2.8v3.1h1.9v1.8h-1.9V67c0,0.7,0.4,0.9,1.1,0.9c0.2,0,0.5,0,0.6,0h0.1V70
		c-0.3,0.1-0.9,0.1-1.6,0.1c-1.8,0-3-0.6-3-2.5v-5.4h-1.4V60.5z"/>
	<path class="st2" d="M65.6,65.3c0-2.9,2-5.1,4.9-5.1c1.4,0,2.4,0.5,3.3,1.2c1.1,1,1.6,2.7,1.5,4.6h-7c0.2,1.4,1,2.3,2.3,2.3
		c0.9,0,1.4-0.3,1.7-0.9h2.7c-0.5,1.7-2.1,3-4.5,3C67.5,70.3,65.6,68.1,65.6,65.3z M68.4,64.3h4.1c-0.1-1.3-0.8-2.1-2-2.1
		C69.2,62.2,68.5,63,68.4,64.3z"/>
	<path class="st2" d="M79.5,62.2L79.5,62.2c0.7-1.3,1.5-1.9,2.7-1.9c0.3,0,0.5,0,0.6,0.1v2.5h-0.1c-0.2,0-0.4-0.1-0.6-0.1
		c-1.5,0-2.5,0.9-2.5,2.8V70h-2.8v-9.6h2.7V62.2z"/>
	<path class="st2" d="M83.5,67.1h2.7c0.2,0.9,0.8,1.4,1.9,1.4c1,0,1.6-0.4,1.6-1.1c0-0.9-1.1-1-2.5-1.2c-1.7-0.3-3.4-0.8-3.4-3
		c0-2,1.8-3,4-3c2.7,0,4,1.2,4.2,2.8h-2.6c-0.2-0.7-0.7-1-1.6-1c-0.9,0-1.4,0.4-1.4,1c0,0.7,1,0.8,2.4,1.1c1.7,0.3,3.7,0.8,3.7,3.2
		c0,2.1-1.8,3.2-4.3,3.2C85.3,70.4,83.7,69,83.5,67.1z"/>
</g>
<g class="st4">
	<path class="st2" d="M439.6,59.2c-0.6,0-1-0.4-1-1v-0.2c0-0.6,0.4-1,1-1s1,0.4,1,1v0.2C440.6,58.7,440.1,59.2,439.6,59.2z
		 M439.6,53.9c-0.6,0-1-0.4-1-1v-0.2c0-0.6,0.4-1,1-1s1,0.4,1,1v0.2C440.6,53.5,440.1,53.9,439.6,53.9z M439.6,48.7
		c-0.6,0-1-0.4-1-1v-0.2c0-0.6,0.4-1,1-1s1,0.4,1,1v0.2C440.6,48.2,440.1,48.7,439.6,48.7z M439.6,43.4c-0.6,0-1-0.4-1-1v-0.2
		c0-0.6,0.4-1,1-1s1,0.4,1,1v0.2C440.6,43,440.1,43.4,439.6,43.4z M439.6,38.2c-0.6,0-1-0.4-1-1v-0.2c0-0.6,0.4-1,1-1s1,0.4,1,1v0.2
		C440.6,37.7,440.1,38.2,439.6,38.2z M439.6,32.9c-0.6,0-1-0.4-1-1v-0.2c0-0.6,0.4-1,1-1s1,0.4,1,1v0.2
		C440.6,32.5,440.1,32.9,439.6,32.9z M439.6,27.7c-0.6,0-1-0.4-1-1v-0.2c0-0.6,0.4-1,1-1s1,0.4,1,1v0.2
		C440.6,27.2,440.1,27.7,439.6,27.7z M439.6,22.4c-0.6,0-1-0.4-1-1v-0.2c0-0.6,0.4-1,1-1s1,0.4,1,1v0.2
		C440.6,22,440.1,22.4,439.6,22.4z M439.6,17.2c-0.6,0-1-0.4-1-1v-0.2c0-0.6,0.4-1,1-1s1,0.4,1,1v0.2
		C440.6,16.7,440.1,17.2,439.6,17.2z M439.6,11.9c-0.6,0-1-0.4-1-1v-0.2c0-0.6,0.4-1,1-1s1,0.4,1,1v0.2
		C440.6,11.5,440.1,11.9,439.6,11.9z"/>
</g>
<g class="st4">
	<path class="st2" d="M439.6,305.8c-0.6,0-1-0.4-1-1v-0.2c0-0.6,0.4-1,1-1s1,0.4,1,1v0.2C440.6,305.3,440.1,305.8,439.6,305.8z
		 M439.6,300.5c-0.6,0-1-0.4-1-1v-0.2c0-0.6,0.4-1,1-1s1,0.4,1,1v0.2C440.6,300.1,440.1,300.5,439.6,300.5z M439.6,295.3
		c-0.6,0-1-0.4-1-1V294c0-0.6,0.4-1,1-1s1,0.4,1,1v0.2C440.6,294.8,440.1,295.3,439.6,295.3z M439.6,290c-0.6,0-1-0.4-1-1v-0.2
		c0-0.6,0.4-1,1-1s1,0.4,1,1v0.2C440.6,289.6,440.1,290,439.6,290z M439.6,284.8c-0.6,0-1-0.4-1-1v-0.2c0-0.6,0.4-1,1-1s1,0.4,1,1
		v0.2C440.6,284.3,440.1,284.8,439.6,284.8z M439.6,279.5c-0.6,0-1-0.4-1-1v-0.2c0-0.6,0.4-1,1-1s1,0.4,1,1v0.2
		C440.6,279.1,440.1,279.5,439.6,279.5z M439.6,274.3c-0.6,0-1-0.4-1-1V273c0-0.6,0.4-1,1-1s1,0.4,1,1v0.2
		C440.6,273.8,440.1,274.3,439.6,274.3z M439.6,269c-0.6,0-1-0.4-1-1v-0.2c0-0.6,0.4-1,1-1s1,0.4,1,1v0.2
		C440.6,268.6,440.1,269,439.6,269z M439.6,263.8c-0.6,0-1-0.4-1-1v-0.2c0-0.6,0.4-1,1-1s1,0.4,1,1v0.2
		C440.6,263.3,440.1,263.8,439.6,263.8z M439.6,258.5c-0.6,0-1-0.4-1-1v-0.2c0-0.6,0.4-1,1-1s1,0.4,1,1v0.2
		C440.6,258.1,440.1,258.5,439.6,258.5z M439.6,253.3c-0.6,0-1-0.4-1-1V252c0-0.6,0.4-1,1-1s1,0.4,1,1v0.2
		C440.6,252.8,440.1,253.3,439.6,253.3z M439.6,248c-0.6,0-1-0.4-1-1v-0.2c0-0.6,0.4-1,1-1s1,0.4,1,1v0.2
		C440.6,247.6,440.1,248,439.6,248z M439.6,242.8c-0.6,0-1-0.4-1-1v-0.2c0-0.6,0.4-1,1-1s1,0.4,1,1v0.2
		C440.6,242.3,440.1,242.8,439.6,242.8z M439.6,237.5c-0.6,0-1-0.4-1-1v-0.2c0-0.6,0.4-1,1-1s1,0.4,1,1v0.2
		C440.6,237.1,440.1,237.5,439.6,237.5z M439.6,232.3c-0.6,0-1-0.4-1-1V231c0-0.6,0.4-1,1-1s1,0.4,1,1v0.2
		C440.6,231.8,440.1,232.3,439.6,232.3z M439.6,227c-0.6,0-1-0.4-1-1v-0.2c0-0.6,0.4-1,1-1s1,0.4,1,1v0.2
		C440.6,226.6,440.1,227,439.6,227z M439.6,221.8c-0.6,0-1-0.4-1-1v-0.2c0-0.6,0.4-1,1-1s1,0.4,1,1v0.2
		C440.6,221.3,440.1,221.8,439.6,221.8z M439.6,216.5c-0.6,0-1-0.4-1-1v-0.2c0-0.6,0.4-1,1-1s1,0.4,1,1v0.2
		C440.6,216.1,440.1,216.5,439.6,216.5z M439.6,211.3c-0.6,0-1-0.4-1-1V210c0-0.6,0.4-1,1-1s1,0.4,1,1v0.2
		C440.6,210.8,440.1,211.3,439.6,211.3z M439.6,206c-0.6,0-1-0.4-1-1v-0.2c0-0.6,0.4-1,1-1s1,0.4,1,1v0.2
		C440.6,205.6,440.1,206,439.6,206z M439.6,200.8c-0.6,0-1-0.4-1-1v-0.2c0-0.6,0.4-1,1-1s1,0.4,1,1v0.2
		C440.6,200.3,440.1,200.8,439.6,200.8z M439.6,195.5c-0.6,0-1-0.4-1-1v-0.2c0-0.6,0.4-1,1-1s1,0.4,1,1v0.2
		C440.6,195.1,440.1,195.5,439.6,195.5z M439.6,190.3c-0.6,0-1-0.4-1-1V189c0-0.6,0.4-1,1-1s1,0.4,1,1v0.2
		C440.6,189.8,440.1,190.3,439.6,190.3z M439.6,185c-0.6,0-1-0.4-1-1v-0.2c0-0.6,0.4-1,1-1s1,0.4,1,1v0.2
		C440.6,184.6,440.1,185,439.6,185z M439.6,179.8c-0.6,0-1-0.4-1-1v-0.2c0-0.6,0.4-1,1-1s1,0.4,1,1v0.2
		C440.6,179.3,440.1,179.8,439.6,179.8z M439.6,174.5c-0.6,0-1-0.4-1-1v-0.2c0-0.6,0.4-1,1-1s1,0.4,1,1v0.2
		C440.6,174.1,440.1,174.5,439.6,174.5z M439.6,169.3c-0.6,0-1-0.4-1-1V168c0-0.6,0.4-1,1-1s1,0.4,1,1v0.2
		C440.6,168.8,440.1,169.3,439.6,169.3z M439.6,164c-0.6,0-1-0.4-1-1v-0.2c0-0.6,0.4-1,1-1s1,0.4,1,1v0.2
		C440.6,163.6,440.1,164,439.6,164z M439.6,158.8c-0.6,0-1-0.4-1-1v-0.2c0-0.6,0.4-1,1-1s1,0.4,1,1v0.2
		C440.6,158.3,440.1,158.8,439.6,158.8z M439.6,153.5c-0.6,0-1-0.4-1-1v-0.2c0-0.6,0.4-1,1-1s1,0.4,1,1v0.2
		C440.6,153.1,440.1,153.5,439.6,153.5z M439.6,148.3c-0.6,0-1-0.4-1-1V147c0-0.6,0.4-1,1-1s1,0.4,1,1v0.2
		C440.6,147.8,440.1,148.3,439.6,148.3z M439.6,143c-0.6,0-1-0.4-1-1v-0.2c0-0.6,0.4-1,1-1s1,0.4,1,1v0.2
		C440.6,142.6,440.1,143,439.6,143z M439.6,137.8c-0.6,0-1-0.4-1-1v-0.2c0-0.6,0.4-1,1-1s1,0.4,1,1v0.2
		C440.6,137.3,440.1,137.8,439.6,137.8z M439.6,132.5c-0.6,0-1-0.4-1-1v-0.2c0-0.6,0.4-1,1-1s1,0.4,1,1v0.2
		C440.6,132.1,440.1,132.5,439.6,132.5z M439.6,127.3c-0.6,0-1-0.4-1-1V126c0-0.6,0.4-1,1-1s1,0.4,1,1v0.2
		C440.6,126.8,440.1,127.3,439.6,127.3z M439.6,122c-0.6,0-1-0.4-1-1v-0.2c0-0.6,0.4-1,1-1s1,0.4,1,1v0.2
		C440.6,121.6,440.1,122,439.6,122z M439.6,116.8c-0.6,0-1-0.4-1-1v-0.2c0-0.6,0.4-1,1-1s1,0.4,1,1v0.2
		C440.6,116.3,440.1,116.8,439.6,116.8z"/>
</g>
<g class="st4">
	<path class="st2" d="M144.3,305.8c-0.6,0-1-0.4-1-1v-0.2c0-0.6,0.4-1,1-1s1,0.4,1,1v0.2C145.3,305.3,144.9,305.8,144.3,305.8z
		 M144.3,300.5c-0.6,0-1-0.4-1-1v-0.2c0-0.6,0.4-1,1-1s1,0.4,1,1v0.2C145.3,300.1,144.9,300.5,144.3,300.5z M144.3,295.3
		c-0.6,0-1-0.4-1-1V294c0-0.6,0.4-1,1-1s1,0.4,1,1v0.2C145.3,294.8,144.9,295.3,144.3,295.3z M144.3,290c-0.6,0-1-0.4-1-1v-0.2
		c0-0.6,0.4-1,1-1s1,0.4,1,1v0.2C145.3,289.6,144.9,290,144.3,290z M144.3,284.8c-0.6,0-1-0.4-1-1v-0.2c0-0.6,0.4-1,1-1s1,0.4,1,1
		v0.2C145.3,284.3,144.9,284.8,144.3,284.8z M144.3,279.5c-0.6,0-1-0.4-1-1v-0.2c0-0.6,0.4-1,1-1s1,0.4,1,1v0.2
		C145.3,279.1,144.9,279.5,144.3,279.5z M144.3,274.3c-0.6,0-1-0.4-1-1V273c0-0.6,0.4-1,1-1s1,0.4,1,1v0.2
		C145.3,273.8,144.9,274.3,144.3,274.3z M144.3,269c-0.6,0-1-0.4-1-1v-0.2c0-0.6,0.4-1,1-1s1,0.4,1,1v0.2
		C145.3,268.6,144.9,269,144.3,269z M144.3,263.8c-0.6,0-1-0.4-1-1v-0.2c0-0.6,0.4-1,1-1s1,0.4,1,1v0.2
		C145.3,263.3,144.9,263.8,144.3,263.8z M144.3,258.5c-0.6,0-1-0.4-1-1v-0.2c0-0.6,0.4-1,1-1s1,0.4,1,1v0.2
		C145.3,258.1,144.9,258.5,144.3,258.5z M144.3,253.3c-0.6,0-1-0.4-1-1V252c0-0.6,0.4-1,1-1s1,0.4,1,1v0.2
		C145.3,252.8,144.9,253.3,144.3,253.3z M144.3,248c-0.6,0-1-0.4-1-1v-0.2c0-0.6,0.4-1,1-1s1,0.4,1,1v0.2
		C145.3,247.6,144.9,248,144.3,248z M144.3,242.8c-0.6,0-1-0.4-1-1v-0.2c0-0.6,0.4-1,1-1s1,0.4,1,1v0.2
		C145.3,242.3,144.9,242.8,144.3,242.8z M144.3,237.5c-0.6,0-1-0.4-1-1v-0.2c0-0.6,0.4-1,1-1s1,0.4,1,1v0.2
		C145.3,237.1,144.9,237.5,144.3,237.5z M144.3,232.3c-0.6,0-1-0.4-1-1V231c0-0.6,0.4-1,1-1s1,0.4,1,1v0.2
		C145.3,231.8,144.9,232.3,144.3,232.3z M144.3,227c-0.6,0-1-0.4-1-1v-0.2c0-0.6,0.4-1,1-1s1,0.4,1,1v0.2
		C145.3,226.6,144.9,227,144.3,227z M144.3,221.8c-0.6,0-1-0.4-1-1v-0.2c0-0.6,0.4-1,1-1s1,0.4,1,1v0.2
		C145.3,221.3,144.9,221.8,144.3,221.8z M144.3,216.5c-0.6,0-1-0.4-1-1v-0.2c0-0.6,0.4-1,1-1s1,0.4,1,1v0.2
		C145.3,216.1,144.9,216.5,144.3,216.5z M144.3,211.3c-0.6,0-1-0.4-1-1V210c0-0.6,0.4-1,1-1s1,0.4,1,1v0.2
		C145.3,210.8,144.9,211.3,144.3,211.3z M144.3,206c-0.6,0-1-0.4-1-1v-0.2c0-0.6,0.4-1,1-1s1,0.4,1,1v0.2
		C145.3,205.6,144.9,206,144.3,206z M144.3,200.8c-0.6,0-1-0.4-1-1v-0.2c0-0.6,0.4-1,1-1s1,0.4,1,1v0.2
		C145.3,200.3,144.9,200.8,144.3,200.8z M144.3,195.5c-0.6,0-1-0.4-1-1v-0.2c0-0.6,0.4-1,1-1s1,0.4,1,1v0.2
		C145.3,195.1,144.9,195.5,144.3,195.5z M144.3,190.3c-0.6,0-1-0.4-1-1V189c0-0.6,0.4-1,1-1s1,0.4,1,1v0.2
		C145.3,189.8,144.9,190.3,144.3,190.3z M144.3,185c-0.6,0-1-0.4-1-1v-0.2c0-0.6,0.4-1,1-1s1,0.4,1,1v0.2
		C145.3,184.6,144.9,185,144.3,185z M144.3,179.8c-0.6,0-1-0.4-1-1v-0.2c0-0.6,0.4-1,1-1s1,0.4,1,1v0.2
		C145.3,179.3,144.9,179.8,144.3,179.8z M144.3,174.5c-0.6,0-1-0.4-1-1v-0.2c0-0.6,0.4-1,1-1s1,0.4,1,1v0.2
		C145.3,174.1,144.9,174.5,144.3,174.5z M144.3,169.3c-0.6,0-1-0.4-1-1V168c0-0.6,0.4-1,1-1s1,0.4,1,1v0.2
		C145.3,168.8,144.9,169.3,144.3,169.3z M144.3,164c-0.6,0-1-0.4-1-1v-0.2c0-0.6,0.4-1,1-1s1,0.4,1,1v0.2
		C145.3,163.6,144.9,164,144.3,164z M144.3,158.8c-0.6,0-1-0.4-1-1v-0.2c0-0.6,0.4-1,1-1s1,0.4,1,1v0.2
		C145.3,158.3,144.9,158.8,144.3,158.8z M144.3,153.5c-0.6,0-1-0.4-1-1v-0.2c0-0.6,0.4-1,1-1s1,0.4,1,1v0.2
		C145.3,153.1,144.9,153.5,144.3,153.5z M144.3,148.3c-0.6,0-1-0.4-1-1V147c0-0.6,0.4-1,1-1s1,0.4,1,1v0.2
		C145.3,147.8,144.9,148.3,144.3,148.3z M144.3,143c-0.6,0-1-0.4-1-1v-0.2c0-0.6,0.4-1,1-1s1,0.4,1,1v0.2
		C145.3,142.6,144.9,143,144.3,143z M144.3,137.8c-0.6,0-1-0.4-1-1v-0.2c0-0.6,0.4-1,1-1s1,0.4,1,1v0.2
		C145.3,137.3,144.9,137.8,144.3,137.8z M144.3,132.5c-0.6,0-1-0.4-1-1v-0.2c0-0.6,0.4-1,1-1s1,0.4,1,1v0.2
		C145.3,132.1,144.9,132.5,144.3,132.5z M144.3,127.3c-0.6,0-1-0.4-1-1V126c0-0.6,0.4-1,1-1s1,0.4,1,1v0.2
		C145.3,126.8,144.9,127.3,144.3,127.3z M144.3,122c-0.6,0-1-0.4-1-1v-0.2c0-0.6,0.4-1,1-1s1,0.4,1,1v0.2
		C145.3,121.6,144.9,122,144.3,122z M144.3,116.8c-0.6,0-1-0.4-1-1v-0.2c0-0.6,0.4-1,1-1s1,0.4,1,1v0.2
		C145.3,116.3,144.9,116.8,144.3,116.8z M144.3,111.5c-0.6,0-1-0.4-1-1v-0.2c0-0.6,0.4-1,1-1s1,0.4,1,1v0.2
		C145.3,111.1,144.9,111.5,144.3,111.5z M144.3,106.3c-0.6,0-1-0.4-1-1V105c0-0.6,0.4-1,1-1s1,0.4,1,1v0.2
		C145.3,105.8,144.9,106.3,144.3,106.3z M144.3,101c-0.6,0-1-0.4-1-1v-0.2c0-0.6,0.4-1,1-1s1,0.4,1,1v0.2
		C145.3,100.6,144.9,101,144.3,101z M144.3,95.8c-0.6,0-1-0.4-1-1v-0.2c0-0.6,0.4-1,1-1s1,0.4,1,1v0.2
		C145.3,95.3,144.9,95.8,144.3,95.8z M144.3,90.5c-0.6,0-1-0.4-1-1v-0.2c0-0.6,0.4-1,1-1s1,0.4,1,1v0.2
		C145.3,90.1,144.9,90.5,144.3,90.5z M144.3,85.3c-0.6,0-1-0.4-1-1V84c0-0.6,0.4-1,1-1s1,0.4,1,1v0.2
		C145.3,84.8,144.9,85.3,144.3,85.3z M144.3,80c-0.6,0-1-0.4-1-1v-0.2c0-0.6,0.4-1,1-1s1,0.4,1,1V79C145.3,79.6,144.9,80,144.3,80z
		 M144.3,74.8c-0.6,0-1-0.4-1-1v-0.2c0-0.6,0.4-1,1-1s1,0.4,1,1v0.2C145.3,74.3,144.9,74.8,144.3,74.8z M144.3,69.5
		c-0.6,0-1-0.4-1-1v-0.2c0-0.6,0.4-1,1-1s1,0.4,1,1v0.2C145.3,69.1,144.9,69.5,144.3,69.5z M144.3,64.3c-0.6,0-1-0.4-1-1V63
		c0-0.6,0.4-1,1-1s1,0.4,1,1v0.2C145.3,63.8,144.9,64.3,144.3,64.3z M144.3,59c-0.6,0-1-0.4-1-1v-0.2c0-0.6,0.4-1,1-1s1,0.4,1,1V58
		C145.3,58.6,144.9,59,144.3,59z M144.3,53.8c-0.6,0-1-0.4-1-1v-0.2c0-0.6,0.4-1,1-1s1,0.4,1,1v0.2
		C145.3,53.3,144.9,53.8,144.3,53.8z M144.3,48.5c-0.6,0-1-0.4-1-1v-0.2c0-0.6,0.4-1,1-1s1,0.4,1,1v0.2
		C145.3,48.1,144.9,48.5,144.3,48.5z M144.3,43.3c-0.6,0-1-0.4-1-1V42c0-0.6,0.4-1,1-1s1,0.4,1,1v0.2
		C145.3,42.8,144.9,43.3,144.3,43.3z M144.3,38c-0.6,0-1-0.4-1-1v-0.2c0-0.6,0.4-1,1-1s1,0.4,1,1V37C145.3,37.6,144.9,38,144.3,38z
		 M144.3,32.8c-0.6,0-1-0.4-1-1v-0.2c0-0.6,0.4-1,1-1s1,0.4,1,1v0.2C145.3,32.3,144.9,32.8,144.3,32.8z M144.3,27.5
		c-0.6,0-1-0.4-1-1v-0.2c0-0.6,0.4-1,1-1s1,0.4,1,1v0.2C145.3,27.1,144.9,27.5,144.3,27.5z M144.3,22.3c-0.6,0-1-0.4-1-1V21
		c0-0.6,0.4-1,1-1s1,0.4,1,1v0.2C145.3,21.8,144.9,22.3,144.3,22.3z M144.3,17c-0.6,0-1-0.4-1-1v-0.2c0-0.6,0.4-1,1-1s1,0.4,1,1V16
		C145.3,16.6,144.9,17,144.3,17z M144.3,11.8c-0.6,0-1-0.4-1-1v-0.2c0-0.6,0.4-1,1-1s1,0.4,1,1v0.2
		C145.3,11.3,144.9,11.8,144.3,11.8z"/>
</g>
<g class="st4">
	<g>
		<path class="st2" d="M420.3,78.8c1.1-1.2,2.6-2.1,3.7-2.9c0.7-0.5,1.2-1,1.2-1.8c0-1-0.6-1.6-1.6-1.6c-0.6,0-1,0.2-1.3,0.5
			c-0.4,0.4-0.5,1-0.5,1.7h-2.5c0-1.1,0.2-2,0.8-2.7c0.7-1,1.9-1.6,3.6-1.6c2.7,0,4.1,1.6,4.1,3.6c0,1.3-0.6,2.2-1.4,2.9
			c-1.2,1.1-2.9,1.8-3.8,2.9v0h5.2V82h-8.7C419.1,80.6,419.6,79.7,420.3,78.8z"/>
		<path class="st2" d="M429,76.3c0-3.6,2-6,5-6c3,0,5,2.3,5,6c0,3.6-2,6-5,6C431,82.2,429,79.9,429,76.3z M436.3,76.3
			c0-2.3-0.7-3.9-2.3-3.9c-1.6,0-2.3,1.6-2.3,3.9c0,2.3,0.7,3.9,2.3,3.9C435.6,80.2,436.3,78.6,436.3,76.3z"/>
		<path class="st2" d="M439.7,78.7h2.6c0.2,0.8,0.9,1.4,2,1.4c1.2,0,2-0.8,2-2c0-1.2-0.9-2-2-2c-0.8,0-1.4,0.3-1.8,0.8h-2.4l1.2-6.4
			h6.9v2.1h-5.1l-0.5,2.5h0c0.5-0.6,1.2-0.9,2.4-0.9c2.1,0,3.9,1.5,3.9,3.9c0,2.5-1.9,4.1-4.5,4.1C441.8,82.2,439.9,80.9,439.7,78.7
			z"/>
		<path class="st2" d="M450,76.3c0-3.6,2-6,5-6c3,0,5,2.3,5,6c0,3.6-2,6-5,6C452,82.2,450,79.9,450,76.3z M457.3,76.3
			c0-2.3-0.7-3.9-2.3-3.9c-1.6,0-2.3,1.6-2.3,3.9c0,2.3,0.7,3.9,2.3,3.9C456.6,80.2,457.3,78.6,457.3,76.3z"/>
		<path class="st2" d="M388.7,91.2h3.9c1,0,1.7,0.3,2.2,0.8c0.5,0.5,0.8,1.1,0.8,1.9c0,2.1-1.3,3.5-3.8,3.5h-2.9l-0.8,4.3h-1.4
			L388.7,91.2z M389.1,96.2h2.7c1.6,0,2.4-0.9,2.4-2.3c0-0.9-0.6-1.5-1.8-1.5h-2.5L389.1,96.2z"/>
		<path class="st2" d="M395.6,99.8c0-1.7,1.2-2.2,3.1-2.5c1.6-0.2,2.5-0.3,2.5-1.4c0-0.7-0.5-1.1-1.5-1.1c-1.1,0-1.8,0.5-2,1.5h-1.2
			c0.2-1.4,1.3-2.4,3.2-2.4c1.8,0,2.9,0.9,2.5,2.8l-0.6,3.3c-0.1,0.6,0,0.8,0.7,0.7h0l-0.2,0.9c-0.2,0.1-0.4,0.1-0.7,0.1
			c-0.7,0-1.1-0.3-1.1-1h0c-0.5,0.7-1.3,1.1-2.3,1.1C396.5,101.7,395.6,101,395.6,99.8z M400.5,99l0.3-1.4c-0.4,0.3-1,0.4-2,0.6
			c-1.2,0.2-1.9,0.5-1.9,1.5c0,0.8,0.6,1.2,1.3,1.2C399.6,100.8,400.4,99.9,400.5,99z"/>
		<path class="st2" d="M404.7,94.1h1.2l-0.3,1.3h0c0.5-0.9,1.3-1.4,2.2-1.4c0.2,0,0.4,0,0.5,0.1l-0.2,1.2h-0.1
			c-0.1,0-0.3-0.1-0.5-0.1c-1.1,0-2.1,0.7-2.4,2.2l-0.8,4.2h-1.3L404.7,94.1z"/>
		<path class="st2" d="M409.8,94.1h1.3l-1.5,7.5h-1.3L409.8,94.1z M410.3,91.2h1.3l-0.3,1.5H410L410.3,91.2z"/>
		<path class="st2" d="M411.4,99.3h1.3c0.1,1.1,0.9,1.5,2,1.5c1.2,0,1.7-0.6,1.7-1.3c0-0.6-0.5-0.9-1.7-1.3
			c-1.4-0.4-2.4-0.9-2.4-2.1c0-1.2,1-2.2,2.8-2.2c1.9,0,2.9,0.9,2.9,2.2h-1.3c0-0.8-0.6-1.2-1.6-1.2c-1,0-1.5,0.4-1.5,1.1
			s0.6,0.9,1.8,1.2c1.2,0.4,2.3,0.9,2.3,2.3c0,1.4-1.2,2.4-3,2.4C412.5,101.8,411.5,100.8,411.4,99.3z"/>
		<path class="st2" d="M427.6,91.2h1.6l1.8,10.4h-1.5l-0.4-3.1h-4l-1.6,3.1h-1.5L427.6,91.2z M425.5,97.4h3.3l-0.4-2.8
			c-0.1-1-0.3-2.3-0.3-2.3h0c0,0-0.5,1.2-1,2.2L425.5,97.4z"/>
		<path class="st2" d="M431.6,102.1h1.2c0.1,0.7,0.7,1.1,1.8,1.1c1.2,0,1.9-0.7,2.2-1.8l0.1-0.5c0,0,0.1-0.5,0.2-0.9h0
			c-0.6,0.7-1.3,1.1-2.3,1.1c-1.7,0-2.7-1.3-2.7-3c0-2.5,1.7-4.3,3.6-4.3c1.1,0,1.9,0.5,2.3,1.4l0.2-1.2h1.2l-1.5,7.5
			c-0.4,2-1.7,2.7-3.4,2.7C432.7,104.2,431.6,103.3,431.6,102.1z M437.7,96.9c0-1.2-0.6-1.9-1.9-1.9c-1.6,0-2.4,1.7-2.4,3.3
			c0,1.2,0.6,2,1.8,2C436.9,100.2,437.7,98.3,437.7,96.9z"/>
		<path class="st2" d="M441.3,94.1h1.2l-0.3,1.3h0c0.5-0.9,1.3-1.4,2.2-1.4c0.2,0,0.4,0,0.5,0.1l-0.2,1.2h-0.1
			c-0.1,0-0.3-0.1-0.5-0.1c-1.1,0-2.1,0.7-2.4,2.2l-0.8,4.2h-1.3L441.3,94.1z"/>
		<path class="st2" d="M445,98.5c0-2.5,1.6-4.7,4.1-4.7c2,0,2.9,1.3,2.9,3.1c0,0.4,0,0.8-0.1,1.1h-5.7c0,0.1,0,0.3,0,0.4
			c0,1.4,0.7,2.2,2,2.2c0.9,0,1.7-0.4,2.1-1.3h1.3c-0.5,1.6-1.9,2.4-3.4,2.4C446.1,101.8,445,100.4,445,98.5z M446.5,97.2h4.3
			c0.2-1.4-0.3-2.4-1.7-2.4C447.7,94.9,446.8,95.9,446.5,97.2z"/>
		<path class="st2" d="M453,98.5c0-2.5,1.6-4.7,4.1-4.7c2,0,2.9,1.3,2.9,3.1c0,0.4,0,0.8-0.1,1.1h-5.7c0,0.1,0,0.3,0,0.4
			c0,1.4,0.7,2.2,2,2.2c0.9,0,1.7-0.4,2.1-1.3h1.3c-0.5,1.6-1.9,2.4-3.4,2.4C454.1,101.8,453,100.4,453,98.5z M454.4,97.2h4.3
			c0.2-1.4-0.3-2.4-1.7-2.4C455.6,94.9,454.8,95.9,454.4,97.2z"/>
		<path class="st2" d="M462.2,94.1h1.2l-0.2,1.1h0c0.6-0.8,1.4-1.3,2.3-1.3c0.9,0,1.5,0.5,1.8,1.4h0c0.7-0.9,1.6-1.4,2.5-1.4
			c1.3,0,2.2,1,1.9,2.6l-1,5.1h-1.3l1-5.1c0.2-0.9-0.2-1.5-1.1-1.5c-0.9,0-1.8,0.7-2,1.9l-0.9,4.7H465l1-5.1
			c0.2-0.9-0.2-1.5-1.1-1.5c-0.8,0-1.9,0.7-2.1,1.9l-0.9,4.7h-1.3L462.2,94.1z"/>
		<path class="st2" d="M472.7,98.5c0-2.5,1.6-4.7,4.1-4.7c2,0,2.9,1.3,2.9,3.1c0,0.4,0,0.8-0.1,1.1H474c0,0.1,0,0.3,0,0.4
			c0,1.4,0.7,2.2,2,2.2c0.9,0,1.7-0.4,2.1-1.3h1.3c-0.5,1.6-1.9,2.4-3.4,2.4C473.8,101.8,472.7,100.4,472.7,98.5z M474.1,97.2h4.3
			c0.2-1.4-0.3-2.4-1.7-2.4C475.3,94.9,474.5,95.9,474.1,97.2z"/>
		<path class="st2" d="M481.9,94.1h1.3l-0.2,1.1h0c0.6-0.8,1.4-1.3,2.5-1.3c1.5,0,2.5,1,2.1,2.7l-1,5h-1.3l1-5
			c0.2-1-0.2-1.6-1.3-1.6c-1.1,0-2.1,0.7-2.3,1.9l-0.9,4.7h-1.3L481.9,94.1z"/>
		<path class="st2" d="M489.1,94.1h1.2l0.5-2.4h1.3l-0.5,2.4h1.4l-0.2,1h-1.4l-0.9,4.7c-0.1,0.6,0.1,0.8,0.6,0.8
			c0.2,0,0.5,0,0.6-0.1h0l-0.2,1.1c-0.3,0-0.5,0.1-0.9,0.1c-1,0-1.7-0.6-1.5-1.7l1-4.9h-1.2L489.1,94.1z"/>
	</g>
</g>
<g>
	<g>
		<rect x="10" y="228.7" class="st5" width="691.1" height="2"/>
	</g>
</g>
</svg>
