<svg xmlns="http://www.w3.org/2000/svg" xmlns:xlink="http://www.w3.org/1999/xlink" viewBox="0 0 75.34 66.96"><defs><style>.cls-1{fill:#62d38b;}.cls-2{fill:#f19f39;}.cls-3{fill:#331aab;}.cls-4{fill:#fff;}.cls-5{clip-path:url(#clip-path);}</style><clipPath id="clip-path"><circle class="cls-1" cx="415.79" cy="-1333.5" r="20.6"/></clipPath></defs><g id="Layer_4" data-name="Layer 4"><path class="cls-2" d="M4,.5a3.26,3.26,0,0,0-3.47,3V39A3.26,3.26,0,0,0,4,42h46.2a3.27,3.27,0,0,0,3.47-3V7.41a3.27,3.27,0,0,0-3.47-3H19c.1,0,0,0-.32-.28a10.88,10.88,0,0,1-1-1.23,11.07,11.07,0,0,0-1.22-1.49A3,3,0,0,0,14.36.5Z"/><path d="M50.17,42.49H4A3.75,3.75,0,0,1,0,39V3.46A3.74,3.74,0,0,1,4,0H14.36A3.46,3.46,0,0,1,16.8,1.09,11,11,0,0,1,18,2.57a12.87,12.87,0,0,0,1,1.25l.15.13h31a3.74,3.74,0,0,1,4,3.46V39A3.75,3.75,0,0,1,50.17,42.49ZM4,1A2.79,2.79,0,0,0,1,3.46V39a2.79,2.79,0,0,0,3,2.47h46.2a2.79,2.79,0,0,0,3-2.47V7.41a2.79,2.79,0,0,0-3-2.46H19V4.5l-.24.36a2,2,0,0,1-.43-.33,11.6,11.6,0,0,1-1-1.3A10.54,10.54,0,0,0,16.1,1.81,2.45,2.45,0,0,0,14.36,1Z"/><path class="cls-2" d="M.5,39A3.26,3.26,0,0,0,4,42h46.2a3.27,3.27,0,0,0,3.47-3V11.82a3.27,3.27,0,0,0-3.47-3H4a3.27,3.27,0,0,0-3.47,3V39Z"/><path d="M50.17,42.49H4A3.75,3.75,0,0,1,0,39V11.82A3.74,3.74,0,0,1,4,8.36h46.2a3.74,3.74,0,0,1,4,3.46V39A3.75,3.75,0,0,1,50.17,42.49ZM4,9.36a2.79,2.79,0,0,0-3,2.46V39a2.79,2.79,0,0,0,3,2.47h46.2a2.79,2.79,0,0,0,3-2.47V11.82a2.79,2.79,0,0,0-3-2.46Z"/><circle class="cls-3" cx="54.74" cy="46.36" r="20.6"/><path class="cls-4" d="M54.4,56.35H45.25a.49.49,0,0,1-.46-.3.49.49,0,0,1,.11-.55l1.26-1.26a1.89,1.89,0,0,0,.23-2.39,10,10,0,1,1,18.33-5A10.15,10.15,0,0,1,54.4,56.35Zm-7.94-1H54.4a9.27,9.27,0,0,0,9.33-8.55,9,9,0,0,0-10.09-9.37h0A9,9,0,0,0,47.22,51.3a2.9,2.9,0,0,1-.35,3.64Z"/><path class="cls-4" d="M58.9,43.3H50.59a.5.5,0,0,1,0-1H58.9a.5.5,0,0,1,0,1Z"/><path class="cls-4" d="M60.08,46.86H49.4a.5.5,0,1,1,0-1H60.08a.5.5,0,0,1,0,1Z"/><path class="cls-4" d="M57.71,50.42H51.77a.5.5,0,1,1,0-1h5.94a.5.5,0,0,1,0,1Z"/></g><g id="text"><circle class="cls-1" cx="415.79" cy="-1333.5" r="20.6"/><g class="cls-5"><rect class="cls-1" x="-491.01" y="-2146.04" width="1198.67" height="6366.06"/></g></g></svg>