<svg xmlns="http://www.w3.org/2000/svg" xmlns:xlink="http://www.w3.org/1999/xlink" viewBox="0 0 60 60"><defs><style>.cls-1{fill:#62d38b;}.cls-2{fill:#e7045e;}.cls-3{clip-path:url(#clip-path);}</style><clipPath id="clip-path"><circle class="cls-1" cx="260.92" cy="-1491.24" r="20.6"/></clipPath></defs><g id="Layer_4" data-name="Layer 4"><path class="cls-2" d="M30.13,0a30,30,0,1,0,30,30A30,30,0,0,0,30.13,0ZM44.4,33.58A27.85,27.85,0,0,1,39,39.66a53.84,53.84,0,0,1-6.6,5,4,4,0,0,1-4.59,0,49.54,49.54,0,0,1-9.15-7.42,20.41,20.41,0,0,1-3.83-5.51A9.3,9.3,0,0,1,17,20.88,8,8,0,0,1,22,18.82a9,9,0,0,1,7.8,3.58l.34.4c.6-.61,1.13-1.22,1.73-1.75a8.69,8.69,0,0,1,5.27-2.24A8.58,8.58,0,0,1,46,25.69,10.33,10.33,0,0,1,44.4,33.58Z"/></g><g id="text"><circle class="cls-1" cx="260.92" cy="-1491.24" r="20.6"/><g class="cls-3"><rect class="cls-1" x="-645.88" y="-2303.78" width="1198.67" height="6366.06"/></g></g></svg>