<svg xmlns="http://www.w3.org/2000/svg" xmlns:xlink="http://www.w3.org/1999/xlink" viewBox="0 0 42 42"><defs><style>.cls-1{fill:#62d38b;}.cls-2{clip-path:url(#clip-path);}</style><clipPath id="clip-path"><circle class="cls-1" cx="415.79" cy="-1273.67" r="20.6"/></clipPath></defs><g id="Layer_4" data-name="Layer 4"><circle class="cls-1" cx="21" cy="21" r="20.6"/><path d="M30.32,29.49H11.68a2.17,2.17,0,0,1-2.17-2.16V13a.5.5,0,0,1,.5-.5H28.66a.5.5,0,0,1,.5.5v2.16H32a.51.51,0,0,1,.5.5V27.33A2.17,2.17,0,0,1,30.32,29.49Zm-19.81-16V27.33a1.16,1.16,0,0,0,1.17,1.16H30.32a1.16,1.16,0,0,0,1.17-1.16V16.17H28.66a.5.5,0,0,1-.5-.5V13.51Z"/><path d="M30.32,29.49a2.16,2.16,0,0,1-2.16-2.16V15.67a.5.5,0,0,1,.5-.5.51.51,0,0,1,.5.5V27.33a1.16,1.16,0,0,0,1.16,1.16.5.5,0,0,1,0,1Z"/><path d="M18.34,21.5H13a.5.5,0,0,1-.5-.5V15.67a.5.5,0,0,1,.5-.5h5.33a.51.51,0,0,1,.5.5V21A.5.5,0,0,1,18.34,21.5Zm-4.83-1h4.33V16.17H13.51Z"/><path d="M25.8,16.17H20.47a.5.5,0,0,1-.5-.5.5.5,0,0,1,.5-.5H25.8a.51.51,0,0,1,.5.5A.5.5,0,0,1,25.8,16.17Z"/><path d="M25.8,18.84H20.47a.5.5,0,0,1-.5-.5.5.5,0,0,1,.5-.5H25.8a.5.5,0,0,1,.5.5A.51.51,0,0,1,25.8,18.84Z"/><path d="M25.8,21.5H20.47a.5.5,0,0,1,0-1H25.8a.5.5,0,0,1,0,1Z"/><path d="M25.8,24.16H13a.5.5,0,0,1-.5-.5.5.5,0,0,1,.5-.5H25.8a.51.51,0,0,1,.5.5A.5.5,0,0,1,25.8,24.16Z"/></g><g id="text"><circle class="cls-1" cx="415.79" cy="-1273.67" r="20.6"/><g class="cls-2"><rect class="cls-1" x="-491.01" y="-2086.2" width="1198.67" height="6366.06"/></g></g></svg>