<svg xmlns="http://www.w3.org/2000/svg" xmlns:xlink="http://www.w3.org/1999/xlink" viewBox="0 0 60 60"><defs><style>.cls-1{fill:#62d38b;}.cls-2{fill:#f5c8a7;}.cls-3{fill:#fff;}.cls-4{clip-path:url(#clip-path);}</style><clipPath id="clip-path"><circle class="cls-1" cx="260.92" cy="-1344.35" r="20.6"/></clipPath></defs><g id="Layer_4" data-name="Layer 4"><path class="cls-2" d="M30,0A30,30,0,1,0,60,30,30,30,0,0,0,30,0ZM26.72,36.86A10.91,10.91,0,1,1,37.63,26,10.9,10.9,0,0,1,26.72,36.86Z"/><path d="M26.72,36.86h0a10.91,10.91,0,1,1,7.72-3.17h0A10.79,10.79,0,0,1,26.72,36.86Zm0-20.8a9.89,9.89,0,0,0,0,19.78A9.88,9.88,0,0,0,36.61,26a9.88,9.88,0,0,0-9.86-9.92Zm7.33,17.27h0Z"/><path d="M44.47,47.15h0a3.26,3.26,0,0,1-2.31-1l-7.71-7.79a14.38,14.38,0,1,1,4.62-4.61l7.73,7.79a3.27,3.27,0,0,1-2.32,5.58Zm-9.25-9.4,7.64,7.73a2.26,2.26,0,0,0,1.61.67,2.38,2.38,0,0,0,1.61-.66,2.28,2.28,0,0,0,0-3.22l-7.67-7.7a15,15,0,0,1-1.48,1.73A14.67,14.67,0,0,1,35.22,37.75ZM26.87,12.89a13.28,13.28,0,1,0,9.36,22.7l.35.35-.35-.35a13.28,13.28,0,0,0-9.32-22.7Z"/><path class="cls-3" d="M25.18,34.26h-.1a8.29,8.29,0,0,1-6.29-9.88.49.49,0,0,1,.59-.38.5.5,0,0,1,.38.6,7.28,7.28,0,0,0,5.53,8.68.5.5,0,0,1-.11,1Z"/></g><g id="text"><circle class="cls-1" cx="260.92" cy="-1344.35" r="20.6"/><g class="cls-4"><rect class="cls-1" x="-645.88" y="-2156.89" width="1198.67" height="6366.06"/></g></g></svg>