<svg xmlns="http://www.w3.org/2000/svg" xmlns:xlink="http://www.w3.org/1999/xlink" viewBox="0 0 60 60"><defs><style>.cls-1{fill:#62d38b;}.cls-2{fill:#00acf2;}.cls-3{clip-path:url(#clip-path);}</style><clipPath id="clip-path"><circle class="cls-1" cx="260.92" cy="-1416.7" r="20.6"/></clipPath></defs><g id="Layer_4" data-name="Layer 4"><path class="cls-2" d="M30.13,0a30,30,0,1,0,30,30A30,30,0,0,0,30.13,0ZM22.78,41.15a3,3,0,0,1-3,3H16.23a1.38,1.38,0,0,1-1.38-1.38V28.13a1.38,1.38,0,0,1,1.38-1.38h3.55a3,3,0,0,1,3,3Zm22.47-6.47a3.41,3.41,0,0,1-1.67,4.17,3.19,3.19,0,0,1-3,3.87H30.05c-3,0-5.06-1.19-5.06-2.86S25,31.1,25,29.61c0-2.44,1.67-4.41,3-5.84s2.81-4.05,2.81-5.66-.72-3.87,1.07-4.89,5,.3,5.24,4.11-.29,5.19-.89,6,0,.84.66.84h6.67a2.92,2.92,0,0,1,3,2.86,3.56,3.56,0,0,1-.83,2.26,3.38,3.38,0,0,1,1.19,2.87A2.43,2.43,0,0,1,45.25,34.68Z"/></g><g id="text"><circle class="cls-1" cx="260.92" cy="-1416.7" r="20.6"/><g class="cls-3"><rect class="cls-1" x="-645.88" y="-2229.24" width="1198.67" height="6366.06"/></g></g></svg>