<?xml version="1.0" encoding="utf-8"?>
<!-- Generator: Adobe Illustrator 26.0.1, SVG Export Plug-In . SVG Version: 6.00 Build 0)  -->
<svg version="1.1" id="Layer_1" xmlns="http://www.w3.org/2000/svg" xmlns:xlink="http://www.w3.org/1999/xlink" x="0px" y="0px"
	 viewBox="0 0 53 29" style="enable-background:new 0 0 53 29;" xml:space="preserve">
<style type="text/css">
	.st0{fill-rule:evenodd;clip-rule:evenodd;}
	.st1{fill:#FFFFFF;}
	.st2{fill-rule:evenodd;clip-rule:evenodd;fill:#FFFFFF;}
</style>
<g>
	<rect x="0.5" y="0.5" class="st0" width="52" height="28"/>
	<path class="st1" d="M52,1v27H1V1H52 M53,0H0v29h53V0L53,0z"/>
</g>
<g>
	<path id="Fill-21_00000072268037670041222500000009663930095162330814_" class="st2" d="M10.4,15c0-1.9,1.5-3.4,3.3-3.4
		S17,13.1,17,15s-1.5,3.4-3.3,3.4S10.4,16.9,10.4,15z"/>
	<path id="Fill-21-Copy_00000070119540585007002480000011965781924075067809_" class="st2" d="M20.7,15c0-2.4,1.9-4.4,4.2-4.4
		s4.2,2,4.2,4.4s-1.9,4.4-4.2,4.4S20.7,17.4,20.7,15z"/>
	<path id="Fill-21-Copy-2_00000009560847155138442630000012222256600032590986_" class="st2" d="M32.1,14.5c0-3.2,2.5-5.8,5.7-5.8
		s5.7,2.6,5.7,5.8s-2.5,5.8-5.7,5.8S32.1,17.7,32.1,14.5z"/>
</g>
</svg>
