<svg id="Layer_1" data-name="Layer 1" xmlns="http://www.w3.org/2000/svg" viewBox="0 0 200 200"><defs><style>.cls-1{fill:#fff;}</style></defs><rect class="cls-1" x="37.28" y="74.57" width="12" height="50.87"/><path class="cls-1" d="M84.68,115.38A15.38,15.38,0,1,1,100.06,100a15.39,15.39,0,0,1-15.38,15.38m0-41.58a26.2,26.2,0,1,0,26.2,26.2,26.2,26.2,0,0,0-26.2-26.2"/><path class="cls-1" d="M140.94,115.38A15.38,15.38,0,1,1,156.31,100a15.38,15.38,0,0,1-15.37,15.38m0-41.58a26.2,26.2,0,1,0,26.2,26.2,26.2,26.2,0,0,0-26.2-26.2"/><path class="cls-1" d="M100.06,185.47A85.47,85.47,0,1,1,185.53,100a85.47,85.47,0,0,1-85.47,85.47m0-184.13A98.66,98.66,0,1,0,198.72,100,98.67,98.67,0,0,0,100.06,1.34"/></svg>