<?xml version="1.0" encoding="utf-8"?>
<!-- Generator: Adobe Illustrator 26.0.1, SVG Export Plug-In . SVG Version: 6.00 Build 0)  -->
<svg version="1.1" id="Layer_1" xmlns="http://www.w3.org/2000/svg" xmlns:xlink="http://www.w3.org/1999/xlink" x="0px" y="0px"
	 viewBox="0 0 565.8 117.3" style="enable-background:new 0 0 565.8 117.3;" xml:space="preserve">
<style type="text/css">
	.st0{fill:#FFFFFF;}
</style>
<polygon class="st0" points="16.1,18.4 16.1,24.6 63.2,24.6 63.3,24.9 13.4,98.7 13.5,98.9 74.5,98.9 74.5,92.7 25.6,92.7 
	25.5,92.5 75.4,18.6 75.3,18.4 "/>
<polygon class="st0" points="95.9,18.4 140.5,18.4 140.5,24.6 102.7,24.6 102.7,54 136.1,54 136.1,60.2 102.7,60.2 102.7,92.7 
	141.5,92.7 141.5,98.9 95.9,98.9 "/>
<path class="st0" d="M186.5,57.1c8.3,0,13.7-1.5,17.6-4.7c3.4-2.9,5.1-6.8,5.1-11.6c0-5.9-2.6-9.9-6.6-12.6
	c-4.3-2.9-9.7-3.7-18.7-3.7h-14.4v32.5H186.5z M162.8,18.4h21.6c9.3,0,16.6,1.1,22.2,4.8c5.4,3.6,9.3,9.3,9.3,17.4
	c0,7.3-3.3,13.3-8.4,17c-3.7,2.7-8,4-13,4.8l26.9,36.6h-8.2l-26.2-36h-17.3v36h-6.8L162.8,18.4L162.8,18.4z"/>
<rect x="330.6" y="17.2" class="st0" width="19.6" height="83"/>
<path class="st0" d="M271.1,93.8c-19.4,0-35.1-15.7-35.1-35.1s15.7-35.1,35.1-35.1s35.1,15.7,35.1,35.1
	C306.2,78.1,290.5,93.8,271.1,93.8 M271.1,17.2c-22.9,0-41.5,18.6-41.5,41.5s18.6,41.5,41.5,41.5s41.5-18.6,41.5-41.5
	S294,17.2,271.1,17.2"/>
<path class="st0" d="M411,83.7c-13.9,0-25.1-11.2-25.1-25.1s11.2-25.1,25.1-25.1c13.9,0,25.1,11.2,25.1,25.1S424.9,83.7,411,83.7
	 M411,15.9c-23.6,0-42.7,19.1-42.7,42.7c0,23.6,19.1,42.7,42.7,42.7c23.6,0,42.7-19.1,42.7-42.7C453.8,35.1,434.6,15.9,411,15.9"/>
<path class="st0" d="M507.1,83.7c-13.9,0-25.1-11.2-25.1-25.1s11.2-25.1,25.1-25.1c13.9,0,25.1,11.2,25.1,25.1S521,83.7,507.1,83.7
	 M507.1,15.9c-23.6,0-42.7,19.1-42.7,42.7c0,23.6,19.1,42.7,42.7,42.7c23.6,0,42.7-19.1,42.7-42.7C549.9,35.1,530.8,15.9,507.1,15.9
	"/>
</svg>
